<svg width="62" height="95" viewBox="0 0 62 95" fill="none" xmlns="http://www.w3.org/2000/svg">
<g clip-path="url(#clip0_17_712)">
<path d="M21.4402 12H40.5598C40.8441 12 41.0573 12.2869 40.9862 12.502L37.0059 29.6414C36.9349 29.8566 36.7927 30 36.5795 30H25.4205C25.2073 30 25.0651 29.8566 24.994 29.6414L21.0138 12.502C20.9427 12.2151 21.1559 12 21.4402 12Z" stroke="#383838" stroke-width="2" stroke-miterlimit="10"/>
<path d="M40.5986 12H21.4411C21.1562 12 20.9426 11.7086 21.0138 11.4901L25.0732 1.36424C25.0732 1.1457 25.2868 1 25.4293 1H36.5392C36.7528 1 36.8953 1.1457 36.9665 1.36424L40.9547 11.4901C41.0971 11.7815 40.8834 12 40.5986 12Z" stroke="#383838" stroke-width="2" stroke-miterlimit="10"/>
<path d="M18 95.0449C18 92.2198 20.4237 90 23.5084 90H38.8218C41.9065 90 44.3302 92.2198 44.3302 95.0449H18Z" fill="#383838"/>
<path d="M32 34H30V90H32V34Z" fill="#383838"/>
</g>
<defs>
<clipPath id="clip0_17_712">
<rect width="62" height="95" fill="white"/>
</clipPath>
</defs>
</svg>
