<svg width="58" height="76" viewBox="0 0 58 76" fill="none" xmlns="http://www.w3.org/2000/svg">
<path d="M43.299 38.2019H14.6522L20.6404 17.2601H37.3108L43.299 38.2019ZM20.6872 17.1059C20.6872 17.1059 20.6869 17.1065 20.6862 17.1076C20.6868 17.1064 20.6872 17.1058 20.6872 17.1059ZM37.264 17.1059C37.2641 17.1058 37.2644 17.1065 37.2651 17.1078C37.2644 17.1066 37.264 17.1059 37.264 17.1059Z" stroke="#383838" stroke-width="2" stroke-miterlimit="10"/>
<path d="M14.6519 39.1091H43.3481L37.3718 60.0509H20.6282L14.6519 39.1091ZM37.3248 60.2059C37.3248 60.2058 37.3251 60.2052 37.3259 60.2039C37.3252 60.2053 37.3248 60.2059 37.3248 60.2059ZM20.6751 60.2059C20.6751 60.2059 20.6748 60.2053 20.6741 60.2039C20.6748 60.2052 20.6752 60.2058 20.6751 60.2059Z" stroke="#383838" stroke-width="2" stroke-miterlimit="10"/>
<path d="M21.5094 38.6559L24.4923 20.1932" stroke="#383838" stroke-width="2" stroke-miterlimit="10"/>
<path d="M33.6617 20.1932L36.7551 38.6559" stroke="#383838" stroke-width="2" stroke-miterlimit="10"/>
<path d="M24.4923 56.8999L21.5094 38.4373" stroke="#383838" stroke-width="2" stroke-miterlimit="10"/>
<path d="M36.7551 38.4373L33.6617 56.8999" stroke="#383838" stroke-width="2" stroke-miterlimit="10"/>
<path d="M17.9742 74.0509C17.9742 70.992 20.4169 68.5886 23.5258 68.5886H34.5179C37.6268 68.5886 40.0695 70.992 40.0695 74.0509H17.9742Z" fill="#383838"/>
<path d="M29.2311 10.6885H28.812C27.7074 10.6885 26.812 11.5839 26.812 12.6885V17.2433H31.2311V12.6885C31.2311 11.5839 30.3356 10.6885 29.2311 10.6885Z" fill="#383838"/>
<path d="M32.3361 60.7233H25.7075V67.278H32.3361V60.7233Z" fill="#383838"/>
<path d="M29.1316 15.0583C32.7925 15.0583 35.7602 12.1236 35.7602 8.50351C35.7602 4.8834 32.7925 1.94873 29.1316 1.94873C25.4708 1.94873 22.5031 4.8834 22.5031 8.50351C22.5031 12.1236 25.4708 15.0583 29.1316 15.0583Z" stroke="#383838" stroke-width="2" stroke-miterlimit="10"/>
</svg>
