<svg width="50" height="60" viewBox="0 0 50 60" fill="none" xmlns="http://www.w3.org/2000/svg">
<path d="M25.1388 58.9999H24.77C24.77 58.9999 7.9881 50.7262 10.2011 42.1149L13.705 18.8136C13.7972 18.4759 14.0738 18.2226 14.4427 18.2226H35.5583C35.9272 18.2226 36.2038 18.4759 36.296 18.8136L39.7999 42.1149C42.0129 50.7262 25.1388 58.9999 25.1388 58.9999Z" stroke="#383838" stroke-width="2" stroke-miterlimit="10"/>
<path d="M15.457 14.339H34.5441" stroke="#383838" stroke-width="2" stroke-miterlimit="10" stroke-linecap="round" stroke-linejoin="round"/>
<path d="M15.457 10.6241H34.5441" stroke="#383838" stroke-width="2" stroke-miterlimit="10" stroke-linecap="round" stroke-linejoin="round"/>
<path d="M15.457 6.8252H34.5441" stroke="#383838" stroke-width="2" stroke-miterlimit="10" stroke-linecap="round" stroke-linejoin="round"/>
<path d="M17.578 18.3071V5.30568C17.578 2.94178 19.6988 1 22.2806 1H27.9053C30.4871 1 32.6079 2.94178 32.6079 5.30568V18.2227" stroke="#383838" stroke-width="2" stroke-miterlimit="10"/>
</svg>
