<svg width="78" height="80" viewBox="0 0 78 80" fill="none" xmlns="http://www.w3.org/2000/svg">
<g clip-path="url(#clip0_17_387)">
<path d="M53.3925 78.0001H24.6075C24.1451 78.0001 23.9139 77.6805 24.0295 77.2542L30.0408 53.705C30.1564 53.4919 30.3876 53.2788 30.6188 53.2788H47.3812C47.728 53.2788 47.9592 53.4919 47.9592 53.705L53.9705 77.2542C54.0861 77.6805 53.8549 78.0001 53.3925 78.0001Z" stroke="#383838" stroke-width="2" stroke-miterlimit="10"/>
<path d="M35.1274 0H42.8728C44.3756 0 45.5316 1.27869 45.1848 2.66393L43.4508 9.48361C43.2196 10.4426 42.1792 11.1885 41.1387 11.1885H36.8614C35.7054 11.1885 34.7806 10.4426 34.5494 9.48361L32.8153 2.66393C32.4685 1.27869 33.6246 0 35.1274 0Z" fill="#383838"/>
<path d="M39.0576 53.2785V14.5981" stroke="#383838" stroke-width="2" stroke-miterlimit="10"/>
</g>
<defs>
<clipPath id="clip0_17_387">
<rect width="78" height="80" fill="white"/>
</clipPath>
</defs>
</svg>
