<svg width="76" height="80" viewBox="0 0 76 80" fill="none" xmlns="http://www.w3.org/2000/svg">
<path d="M22.9975 77.9999H2.41748C2.16183 77.9999 1.90617 77.7449 2.034 77.4898L6.38009 59.2515C6.38009 58.9964 6.63574 58.8689 6.76357 58.8689H18.7792C19.0349 58.8689 19.1627 58.9964 19.1627 59.2515L23.5088 77.4898C23.5088 77.6173 23.2531 77.9999 22.9975 77.9999Z" stroke="#383838" stroke-width="2" stroke-miterlimit="10"/>
<path d="M73.4887 77.9999H52.9087C52.653 77.9999 52.3974 77.7449 52.5252 77.4898L56.8713 59.2515C56.8713 58.9964 57.127 58.8689 57.2548 58.8689H69.2704C69.5261 58.8689 69.6539 58.9964 69.6539 59.2515L74 77.4898C74 77.6173 73.7443 77.9999 73.4887 77.9999Z" stroke="#383838" stroke-width="2" stroke-miterlimit="10"/>
<path d="M48.1801 61.8571H27.6001C27.3444 61.8571 27.0888 61.602 27.2166 61.347L31.5627 43.1087C31.5627 42.8536 31.8184 42.7261 31.9462 42.7261H43.9618C44.2175 42.7261 44.3453 42.8536 44.3453 43.1087L48.6914 61.2194C48.6914 61.602 48.5636 61.8571 48.1801 61.8571Z" stroke="#383838" stroke-width="2" stroke-miterlimit="10"/>
<path d="M33.8633 0H42.0442C43.7059 0 44.8564 1.53048 44.4729 3.06097L42.6833 10.8409C42.4277 11.9888 41.4051 12.754 40.2546 12.754H35.7807C34.5025 12.754 33.4798 11.9888 33.2242 10.8409L31.4346 3.06097C31.0512 1.53048 32.2016 0 33.8633 0Z" fill="#383838"/>
<path d="M12.6438 58.8689V42.2158C12.6438 34.4358 19.0351 28.0588 26.8325 28.0588H49.0742C56.8716 28.0588 63.2629 34.4358 63.2629 42.2158V58.8689" stroke="#383838" stroke-width="2" stroke-miterlimit="10"/>
<path d="M37.9531 42.7261V15.3049" stroke="#383838" stroke-width="2" stroke-miterlimit="10"/>
</svg>
