<svg width="90" height="66" viewBox="0 0 90 66" fill="none" xmlns="http://www.w3.org/2000/svg">
<path d="M6.74177 23H83.2582C83.6865 23 84.1148 23.4918 83.972 23.9836L79.9749 43.1639C78.1191 52.5082 70.8386 58.9016 62.5588 58.9016H27.4412C19.1614 58.9016 11.8809 52.3443 10.0251 43.1639L6.028 23.9836C5.88525 23.4918 6.31351 23 6.74177 23Z" stroke="#383838" stroke-width="2" stroke-miterlimit="10"/>
<path d="M25.9952 7H64.0048C65.3463 7 66.2407 8.37143 65.9426 9.91429L64.452 17.2857C64.3029 18.3143 63.4086 19 62.5142 19H27.4858C26.5914 19 25.6971 18.3143 25.548 17.1143L24.0574 9.74286C23.7593 8.37143 24.6537 7 25.9952 7Z" fill="#383838"/>
</svg>
