<svg width="52" height="36" viewBox="0 0 52 36" fill="none" xmlns="http://www.w3.org/2000/svg">
<path d="M41.4286 16.1489V8.05454C41.4286 6.32002 39.981 4.94686 38.2286 4.87459V4.65778C38.1524 3.93506 37.4667 3.42916 36.6286 3.50143L24.9714 4.87459L12.019 2.056C11.2571 1.83919 10.4952 2.27282 10.2667 2.99554L9.73333 4.94686H9.35238C7.52381 4.94686 6 6.39229 6 8.12681V30.8201C6 32.5546 7.52381 34 9.35238 34H38.1524C39.981 34 41.5048 32.5546 41.5048 30.8201V25.8333C43.3333 25.8333 44.8571 24.3879 44.8571 22.6534V19.4734C44.8571 17.5944 43.3333 16.1489 41.4286 16.1489ZM39.7524 8.05454V8.48817C39.3714 8.27135 38.9905 8.12681 38.6095 8.12681L38.381 6.53684C39.219 6.60911 39.7524 7.25955 39.7524 8.05454ZM36.7048 5.8864L36.9333 7.83772L29.3905 5.8864L35.7143 5.16368C36.1714 5.09141 36.6286 5.45277 36.7048 5.8864ZM12.7048 3.79052L31.219 8.05454H10.6476L11.7143 4.36869C11.7905 3.93506 12.2476 3.64598 12.7048 3.79052ZM7.6 8.05454C7.6 7.18728 8.36191 6.46457 9.27619 6.46457L8.81905 8.12681C8.36191 8.19908 7.98095 8.34362 7.6 8.56044V8.05454ZM39.7524 30.6755C39.7524 31.5428 38.9905 32.2655 38.0762 32.2655H9.35238C8.4381 32.2655 7.67619 31.5428 7.67619 30.6755V11.1622C7.67619 10.295 8.4381 9.57224 9.35238 9.57224H38.1524C39.0667 9.57224 39.8286 10.295 39.8286 11.1622V16.1489H37.0857C35.2571 16.1489 33.7333 17.5944 33.7333 19.3289V22.5088C33.7333 24.2434 35.2571 25.6888 37.0857 25.6888H39.8286V30.6755H39.7524ZM43.181 22.5811C43.181 23.4484 42.419 24.1711 41.5048 24.1711H37.0857C36.1714 24.1711 35.4095 23.4484 35.4095 22.5811V19.4012C35.4095 18.5339 36.1714 17.8112 37.0857 17.8112H41.5048C42.419 17.8112 43.181 18.5339 43.181 19.4012V22.5811Z" fill="#383838" stroke="#383838"/>
</svg>
