<svg width="26" height="30" viewBox="0 0 26 30" fill="none" xmlns="http://www.w3.org/2000/svg">
<path d="M7 8.77783L7 7.00006C7 3.68635 9.68629 1.00006 13 1.00006V1.00006C16.3137 1.00006 19 3.68635 19 7.00006L19 8.77783" stroke="#808080" stroke-width="2" stroke-linecap="round"/>
<path d="M17.5 18.1111V15" stroke="#808080" stroke-width="2" stroke-linecap="round"/>
<path d="M8.5 18.1111V15" stroke="#808080" stroke-width="2" stroke-linecap="round"/>
<path d="M1 12.7776C1 10.892 1 9.94916 1.58579 9.36337C2.17157 8.77759 3.11438 8.77759 5 8.77759H21C22.8856 8.77759 23.8284 8.77759 24.4142 9.36337C25 9.94916 25 10.892 25 12.7776V20.9998C25 24.771 25 26.6567 23.8284 27.8282C22.6569 28.9998 20.7712 28.9998 17 28.9998H9C5.22876 28.9998 3.34315 28.9998 2.17157 27.8282C1 26.6567 1 24.771 1 20.9998V12.7776Z" stroke="#808080" stroke-width="2"/>
</svg>
