<svg width="69" height="64" viewBox="0 0 69 64" fill="none" xmlns="http://www.w3.org/2000/svg">
<path d="M2 2H8.59468C11.1475 2 13.4875 3.70185 14.1257 6.25463L23.9114 43.9081C24.5496 46.4609 26.7832 48.1628 29.4424 48.1628H63.1604" stroke="#383838" stroke-width="3.5" stroke-miterlimit="10" stroke-linecap="round" stroke-linejoin="round"/>
<path d="M21.252 10.084H64.011C65.8192 10.084 67.202 11.6795 66.7765 13.4877L63.1601 32.5272C62.6283 35.1863 60.2882 37.1009 57.5227 37.1009L22.422 37.3136" stroke="#383838" stroke-width="3.5" stroke-miterlimit="10" stroke-linecap="round" stroke-linejoin="round"/>
<path d="M29.0173 63.6922C26.5708 63.6922 24.6562 61.7776 24.6562 59.3312C24.6562 56.8848 26.5708 54.9702 29.0173 54.9702C31.4637 54.9702 33.3783 56.8848 33.3783 59.3312C33.3783 61.6713 31.4637 63.6922 29.0173 63.6922Z" fill="#383838"/>
<path d="M60.0758 63.6922C57.6294 63.6922 55.7148 61.7776 55.7148 59.3312C55.7148 56.8848 57.6294 54.9702 60.0758 54.9702C62.5223 54.9702 64.4368 56.8848 64.4368 59.3312C64.5432 61.6713 62.5223 63.6922 60.0758 63.6922Z" fill="#383838"/>
</svg>
