<svg width="53" height="53" viewBox="0 0 53 53" fill="none" xmlns="http://www.w3.org/2000/svg">
<g clip-path="url(#clip0_1_225)">
<path d="M10.7656 21.5312C7.78438 21.5312 5.25031 20.4878 3.14687 18.3844C1.04344 16.2809 0 13.7469 0 10.7656C0 7.78438 1.04344 5.25031 3.14687 3.14687C5.25031 1.04344 7.78438 0 10.7656 0C13.7469 0 16.2809 1.04344 18.3844 3.14687C20.4878 5.25031 21.5312 7.78438 21.5312 10.7656C21.5312 13.7469 20.4878 16.2809 18.3844 18.3844C16.2809 20.4878 13.7469 21.5312 10.7656 21.5312ZM10.7656 16.5625C12.3722 16.5625 13.7303 15.9994 14.8731 14.8731C15.9994 13.7303 16.5625 12.3722 16.5625 10.7656C16.5625 9.15906 15.9994 7.80094 14.8731 6.65812C13.7303 5.53187 12.3722 4.96875 10.7656 4.96875C9.15906 4.96875 7.80094 5.53187 6.65812 6.65812C5.53187 7.80094 4.96875 9.15906 4.96875 10.7656C4.96875 12.3722 5.53187 13.7303 6.65812 14.8731C7.80094 15.9994 9.15906 16.5625 10.7656 16.5625ZM42.2344 53C39.2531 53 36.7191 51.9566 34.6156 49.8531C32.5122 47.7497 31.4688 45.2156 31.4688 42.2344C31.4688 39.2531 32.5122 36.7191 34.6156 34.6156C36.7191 32.5122 39.2531 31.4688 42.2344 31.4688C45.2156 31.4688 47.7497 32.5122 49.8531 34.6156C51.9566 36.7191 53 39.2531 53 42.2344C53 45.2156 51.9566 47.7497 49.8531 49.8531C47.7497 51.9566 45.2156 53 42.2344 53ZM42.2344 48.0312C43.8409 48.0312 45.1991 47.4681 46.3253 46.3253C47.4681 45.1991 48.0312 43.8409 48.0312 42.2344C48.0312 40.6278 47.4681 39.2697 46.3253 38.1269C45.1991 37.0006 43.8409 36.4375 42.2344 36.4375C40.6278 36.4375 39.2697 37.0006 38.1269 38.1269C37.0006 39.2697 36.4375 40.6278 36.4375 42.2344C36.4375 43.8409 37.0006 45.1991 38.1269 46.3253C39.2697 47.4681 40.6278 48.0312 42.2344 48.0312ZM3.47812 53L0 49.5219L49.5219 0L53 3.47812L3.47812 53Z" fill="#383838"/>
</g>
<defs>
<clipPath id="clip0_1_225">
<rect width="53" height="53" fill="white"/>
</clipPath>
</defs>
</svg>
