<svg width="28" height="28" viewBox="0 0 28 28" fill="none" xmlns="http://www.w3.org/2000/svg">
<path d="M14 25.5V14.8333M14 25.5L4.8906 19.4271C4.45463 19.1364 4.23665 18.9911 4.11833 18.77C4 18.5489 4 18.2869 4 17.763V8.16667M14 25.5L23.1094 19.4271C23.5454 19.1364 23.7633 18.9911 23.8817 18.77C24 18.5489 24 18.2869 24 17.763V8.16667M14 14.8333L4 8.16667M14 14.8333L24 8.16667M4 8.16667L12.8906 2.2396C13.4283 1.8811 13.6972 1.70185 14 1.70185C14.3028 1.70185 14.5717 1.8811 15.1094 2.2396L24 8.16667" stroke="#808080" stroke-width="2" stroke-linejoin="round"/>
</svg>
