<svg width="28" height="28" viewBox="0 0 28 28" fill="none" xmlns="http://www.w3.org/2000/svg">
<path d="M5.5 19.8332H10.5C10.9644 19.8332 11.1966 19.8332 11.3916 19.8588C12.7378 20.0361 13.7971 21.0954 13.9743 22.4416C14 22.6365 14 22.8687 14 23.3332V10.6665C14 7.83808 14 6.42386 13.1213 5.54518C12.2426 4.6665 10.8284 4.6665 8 4.6665H5.5C4.55719 4.6665 4.08579 4.6665 3.79289 4.9594C3.5 5.25229 3.5 5.7237 3.5 6.66651V17.8332C3.5 18.776 3.5 19.2474 3.79289 19.5403C4.08579 19.8332 4.55719 19.8332 5.5 19.8332Z" stroke="#808080" stroke-width="2"/>
<path d="M22.5 19.8332H17.5C17.0356 19.8332 16.8034 19.8332 16.6084 19.8588C15.2622 20.0361 14.2029 21.0954 14.0257 22.4416C14 22.6365 14 22.8687 14 23.3332V10.6665C14 7.83808 14 6.42386 14.8787 5.54518C15.7574 4.6665 17.1716 4.6665 20 4.6665H22.5C23.4428 4.6665 23.9142 4.6665 24.2071 4.9594C24.5 5.25229 24.5 5.7237 24.5 6.66651V17.8332C24.5 18.776 24.5 19.2474 24.2071 19.5403C23.9142 19.8332 23.4428 19.8332 22.5 19.8332Z" stroke="#808080" stroke-width="2"/>
</svg>
