<svg width="110" height="62" viewBox="0 0 110 62" fill="none" xmlns="http://www.w3.org/2000/svg">
<path d="M11.3195 61.3465V49.9606H2.83309V61.3465H0V48.619C0 47.809 0.617194 47.1918 1.40583 47.1918H12.7232C13.5333 47.1918 14.1505 47.809 14.1505 48.619V61.3465H11.3195Z" fill="#383838"/>
<path d="M31.1488 58.5715H22.6624V49.9565H31.1488V58.5715ZM33.9798 59.9367V48.6171C33.9798 47.8071 33.3626 47.1899 32.5525 47.1899H21.2351C20.4465 47.1899 19.8271 47.8071 19.8271 48.6171V59.9367C19.8271 60.7231 20.4465 61.3403 21.2351 61.3403H32.5525C33.3626 61.3403 33.9798 60.7231 33.9798 59.9367Z" fill="#383838"/>
<path d="M51.1268 53.0682H42.3853V49.7208H51.1268V53.0682ZM53.8098 61.3468V55.6806C53.8098 54.8941 53.1926 54.2769 52.3847 54.2769C53.1926 54.2769 53.8098 53.6404 53.8098 52.8539V48.615C53.8098 47.8071 53.1926 47.1899 52.3847 47.1899H39.6572V61.3468H42.4067V55.5756H51.0646V61.3468H53.8098Z" fill="#383838"/>
<path d="M59.4824 61.3468V47.1899H62.3155V58.7108H70.8019V55.6849L73.635 55.3441V61.3468H59.4824Z" fill="#383838"/>
<path d="M88.7749 55.6675H84.5274V61.3444H81.6943V55.6675H77.4254C76.6367 55.6675 76.0195 55.0267 76.0195 54.2402V47.1875H78.8505V52.9201H87.3712V47.1875H90.2021V54.2402C90.2021 55.0267 89.5849 55.6675 88.7749 55.6675Z" fill="#383838"/>
<path d="M108.573 61.3468H97.2554C96.4668 61.3468 95.8496 60.7296 95.8496 59.9431V56.7757L98.5541 57.1143V58.8373H107.338V55.5434H97.2554C96.4668 55.5434 95.8496 54.9048 95.8496 54.1183V48.615C95.8496 47.8071 96.4668 47.1899 97.2554 47.1899H108.573C109.383 47.1899 110 47.8071 110 48.615V51.7717L107.296 51.4524V49.6972H98.5113V53.0125H108.573C109.383 53.0125 110 53.6511 110 54.4376V59.9431C110 60.7296 109.383 61.3468 108.573 61.3468Z" fill="#383838"/>
<path d="M56.9532 1.33612V9.52037C57.7032 9.66824 57.2253 10.6819 57.3625 11.2627C57.1139 12.0106 55.9931 11.537 55.3159 11.672C55.3416 11.5755 55.2688 11.5198 55.213 11.4641H54.9066C55.0502 10.9969 54.5765 11.0612 54.598 10.6497L54.4951 1.23111L55.108 0.618199C55.9524 0.538907 56.6789 0.667489 56.9532 1.33612Z" fill="#383838"/>
<path d="M42.6255 6.25047C42.3512 6.84623 43.1249 7.0091 42.932 7.57915C43.052 7.73988 43.472 7.63487 43.3434 7.98418C43.7442 8.45779 44.1814 8.65067 44.3657 9.21643C44.5371 9.32144 44.6164 9.63432 44.8736 9.52074C44.9464 10.2794 45.5743 10.5837 45.8958 11.158C46.3801 11.473 46.5666 11.7216 46.6137 12.2853C46.7187 12.8253 46.5087 13.5025 46.0008 13.5111C45.4522 13.6632 44.7064 13.6632 44.1578 13.5111C44.0764 12.8253 43.5277 12.866 43.4399 12.1824C43.2706 12.0774 43.1913 11.7624 42.932 11.8738C43.0691 11.5202 42.722 11.1902 42.5205 11.158C42.0683 10.3844 41.0054 9.94935 40.9818 8.90997C40.281 8.66781 40.2725 7.59629 39.8631 6.95981C39.3788 6.47549 39.3788 5.92044 39.3467 5.2261C39.4838 5.01822 39.8374 4.90464 39.7581 4.60676C40.5639 4.4546 41.2004 4.39888 41.8047 5.01822C42.0383 5.34825 42.1198 5.93758 42.6255 6.25047Z" fill="#383838"/>
<path d="M72.5042 5.83888C72.7614 6.7411 72.0949 7.36258 71.8913 7.98192C71.7156 7.98192 71.6192 8.19194 71.4799 8.2948C71.4649 8.92271 70.8284 9.40704 70.7641 9.93208C70.3848 10.1978 69.8619 10.5921 69.7397 11.0529C69.4118 11.2693 69.0561 11.4151 68.8204 11.8715C68.9018 12.5102 68.7582 13.0416 68.2096 13.4124C67.5645 13.4295 66.8338 13.4445 66.4694 13.0009C65.5972 12.5744 66.4116 11.833 66.163 11.1558C66.4759 11.01 66.3644 10.6821 66.4694 10.4378C66.7588 10.5278 66.8809 10.1657 67.0824 10.0285C67.3567 9.65777 67.4274 9.02129 67.9053 8.90985C68.1217 8.88414 68.2417 8.63555 68.411 8.49625C68.3703 8.02907 69.1847 7.9262 68.9275 7.36901C69.6111 7.16757 69.2425 6.16891 70.0483 5.83888C69.894 5.47671 70.3055 5.51743 70.3526 5.32241C71.0362 5.29027 72.1249 4.85523 72.5042 5.83888Z" fill="#383838"/>
<path d="M32.1842 16.0724C32.795 16.0659 32.555 16.8224 33.2064 16.6853C33.3265 16.8717 33.5129 16.921 33.7229 16.8867C33.9244 17.0817 34.2844 17.3046 34.5373 17.6046C35.3173 17.5704 35.8959 18.0225 36.5839 18.224C37.2332 18.5947 37.7904 19.1819 38.5319 19.3426C38.5319 19.4562 38.5083 19.587 38.6305 19.6512H38.8383C38.8062 20.1656 39.3784 20.8021 38.7355 21.1899V21.5993C38.0476 21.6636 37.4368 21.8821 36.6889 21.8029C36.436 21.2778 35.6388 21.2135 35.253 20.577L34.2287 20.1656C34.2222 20.052 34.2544 19.9256 34.1322 19.8613C33.3522 20.0777 32.8293 19.0705 31.9806 19.1433C31.3441 19.0212 31.2713 18.224 30.5469 18.3204C30.0562 17.909 29.5719 17.3132 29.6297 16.5803C29.9426 16.4367 29.829 16.1067 29.934 15.8624C30.2983 15.7831 30.5727 15.4916 30.9584 15.4616C31.522 15.5088 31.8049 15.5816 32.1842 16.0724Z" fill="#383838"/>
<path d="M82.6289 15.5551C82.8539 16.0394 83.0725 16.6502 82.841 17.1988C82.3546 18.3174 80.8159 18.2124 79.7701 18.626C79.4057 18.9625 78.6257 18.746 78.5378 19.3418C78.0299 19.1489 77.9721 20.0511 77.4149 19.7533C77.1106 20.5248 76.2812 20.0019 75.9812 20.7776C75.4669 21.0091 74.8947 21.0991 74.5475 21.5963C73.8874 21.5341 73.1288 21.5084 72.7109 21.0819C72.5095 20.469 72.5887 19.6311 73.0174 19.2454C73.6045 19.4232 73.7353 18.5039 74.3482 18.7289C74.5561 18.3346 74.7254 18.3732 75.064 18.116C75.5869 17.9167 76.1033 17.7238 76.4912 17.1988C76.9584 17.0702 77.2799 16.6094 77.8285 16.6823C78.4864 16.1423 79.3672 16.1037 80.0765 15.6601C80.8073 15.3365 81.8402 15.4243 82.6289 15.5551Z" fill="#383838"/>
<path d="M68.3051 30.0917C68.1508 28.1094 68.1508 25.9364 68.3051 23.9541H68.408C68.273 23.3647 68.7487 22.3575 67.9987 22.2118C68.1358 21.2367 66.9979 21.2453 66.88 20.4716C66.8929 20.0516 66.4192 20.118 66.5714 19.6508H66.3614C66.1921 19.4494 65.8706 19.3037 65.8556 19.0379C65.8706 18.6265 65.3949 18.6843 65.5492 18.2236C64.7584 18.005 64.9213 16.9592 64.3148 16.5799C63.824 16.5156 63.6483 16.0484 63.1876 15.967C63.0032 15.862 63.1254 15.6305 63.0911 15.4612C62.8897 14.1861 61.2052 14.9533 60.2237 14.7433L60.1187 14.9447L56.9535 15.0476L56.8485 15.1526C55.5498 15.1955 54.1311 15.3883 52.8603 15.4612C51.763 15.6777 50.3851 15.4355 49.3778 15.6627C49.2492 15.8962 48.8614 15.6048 48.8614 15.967C48.152 15.6777 48.362 16.4834 47.7427 16.3806V16.6849C47.6698 16.8713 47.4684 16.7577 47.3334 16.7899V17.0963C47.4512 17.3857 47.1148 17.4435 46.9198 17.4028V17.7093C46.864 17.765 46.8148 17.8443 46.7183 17.8121C46.849 18.32 46.2276 18.32 46.309 18.7315C46.2533 18.7893 46.1954 18.8686 46.0968 18.8365C46.0433 19.3294 45.5739 19.5051 45.4861 19.9552C45.4304 20.0216 45.3811 20.0945 45.2846 20.0602V20.3666C45.2289 20.4223 45.1732 20.5038 45.0768 20.4716V20.7781L44.2624 21.4939C44.2217 22.051 43.5531 22.2439 43.4395 22.7218C43.3045 22.9297 43.2616 23.1697 42.9316 23.1311C42.0851 23.2833 42.6101 24.3634 42.3208 24.9763C42.1987 25.5399 42.0765 26.6286 42.4172 27.1193L42.5201 38.4796C42.7066 38.6253 42.5951 38.891 42.6251 39.0925H42.9316C42.9873 39.1503 43.0602 39.206 43.0302 39.3025C43.5788 39.3325 44.1895 39.2146 44.6717 39.3989V39.5039C45.0768 39.5361 45.5504 39.4225 45.8975 39.6068V39.7118H46.204C46.2619 39.7697 46.3411 39.8168 46.309 39.9132H46.6155C46.6712 39.969 46.7505 40.0204 46.7183 40.1168L48.152 40.2218V40.3247C48.6921 40.3568 49.305 40.2368 49.7893 40.4211V40.5261H50.0957C50.1515 40.5819 50.2243 40.6397 50.1986 40.7362H50.5051C50.6508 40.704 50.8437 40.7683 50.8137 40.9376H51.118C51.2637 40.9055 51.4566 40.9698 51.4244 41.1391H51.7309C51.7887 41.1969 51.868 41.2526 51.8359 41.3491H52.1423C52.2859 41.3148 52.4809 41.3812 52.4467 41.5505H52.7553C52.8988 41.5184 53.0917 41.5805 53.0596 41.7584H53.366C53.4217 41.8163 53.5032 41.8634 53.471 41.9598C53.7453 42.0327 54.2275 41.7927 54.2939 42.1634C55.1147 42.1634 55.8884 42.2599 56.2355 41.5505C56.9599 41.6534 56.8227 40.5261 57.7657 40.9376C57.9993 40.0675 59.1265 40.2776 59.6108 39.8082C59.868 39.4546 60.7381 39.7118 60.8345 39.1975C61.891 39.4461 61.9317 38.3445 62.8811 38.5846C63.1875 38.3188 63.8969 38.7303 63.9055 38.1731C65.2191 37.9888 66.1707 37.3352 67.3858 37.1509C67.8122 37.1337 67.9344 36.8123 68.2087 36.643C68.273 36.3622 68.0308 35.8779 68.408 35.8222C68.378 33.9106 68.4916 31.849 68.3051 30.0917ZM53.2696 38.891H52.8603C52.8024 38.5138 52.3116 38.7539 52.0373 38.6896C52.0673 38.5138 51.8766 38.4474 51.7309 38.4796H51.4244C51.4566 38.3831 51.3751 38.336 51.3194 38.2781H51.013C51.0451 38.1817 50.9744 38.1259 50.908 38.0702H50.6036V37.9738L48.7649 37.8688C48.7092 37.4895 48.2184 37.7295 47.9441 37.6652C47.9763 37.5688 47.9034 37.513 47.8391 37.4552H47.5327V37.3523C47.1855 37.168 46.7183 37.2859 46.309 37.2559C46.0347 36.8594 45.3575 37.2302 45.1818 36.643H44.8732V26.5064C44.4939 26.3457 44.7382 25.7585 44.6717 25.3878C45.4689 25.362 44.7296 24.2348 45.5911 24.3634C45.6082 23.9691 45.9297 23.8812 46.0968 23.6455V23.3412C46.5276 23.5105 46.5104 23.0583 46.7183 22.9297C46.4612 22.2932 47.2819 22.5268 47.1234 21.9075C47.2584 21.8732 47.4684 21.9868 47.5327 21.8025V21.4939C47.7084 21.5281 47.7748 21.3331 47.7427 21.1895C47.6548 20.7781 48.2742 20.7781 48.152 20.2702C48.3556 20.1266 48.5956 20.0859 48.557 19.7559C48.9364 19.7473 48.9492 19.9873 49.0714 20.2702C49.7636 20.4395 48.9364 21.7939 49.7893 21.9075C49.95 22.3425 49.9586 22.664 50.0957 23.1311C50.6358 23.099 50.265 23.9841 50.8137 23.9541C50.908 24.4191 51.4094 24.717 51.5294 25.1777H51.8359C51.6837 25.6449 52.1573 25.5785 52.1423 26.0007C53.1089 26.2964 52.3995 27.8351 52.7553 28.658C53.0767 31.9133 53.4003 35.265 53.2696 38.891ZM54.6968 24.9763C54.6626 24.8391 54.7847 24.6377 54.5983 24.5648C54.2275 24.717 54.2768 24.3077 54.0839 24.2584C54.2618 23.7976 53.8096 23.7762 53.6746 23.5405C53.366 23.6883 53.4303 23.2361 53.2696 23.2361C53.3253 22.4046 52.2774 22.3168 52.3416 21.4939C52.5774 20.7309 51.4159 20.8917 51.8359 19.9552C51.223 19.5951 51.3751 18.7401 50.908 18.2236V18.0136C51.763 17.9836 52.6824 18.095 53.471 17.9086C54.0668 17.6921 55.0333 17.9343 55.7191 17.7093C57.2192 17.7564 58.37 17.1992 60.0201 17.4028C60.3437 17.0235 61.1088 17.2656 61.6574 17.1992C61.4003 17.8207 62.101 17.8786 62.0689 18.32C62.206 18.5065 62.4803 18.3929 62.6818 18.4272C62.5339 18.8922 63.0032 18.8279 62.9861 19.2458C63.0354 19.803 63.704 19.7559 63.599 20.4716C63.9612 20.3173 63.9226 20.7309 64.1155 20.7781C64.2848 21.1574 64.6062 21.376 64.6234 21.9075H64.9277C64.9598 22.1068 64.8484 22.3725 65.0327 22.5182H65.3392V22.9297C63.2861 23.1547 61.4238 23.444 59.6108 24.0505C57.9114 24.2027 56.557 24.9763 54.6968 24.9763ZM65.9521 34.9993C64.9277 35.4 63.9055 35.5222 62.8811 35.9272C61.7946 36.1115 60.9888 36.763 59.8123 36.9494C59.1522 37.2473 58.2907 37.5388 57.7657 38.0702C57.0156 38.0702 56.7756 38.5846 56.1305 38.6896H55.7191C55.6226 35.8929 55.9784 32.8091 55.4126 30.2953C55.1555 29.7617 55.5176 28.7137 55.1062 28.2487V27.8351C55.6548 27.6679 56.0491 27.3465 56.7413 27.3293C57.8707 26.8536 59.2487 26.755 60.4338 26.305C60.8195 25.9749 61.9553 26.5793 62.0689 25.7885C62.7547 25.7585 63.4961 25.8785 64.1155 25.6921L65.3392 25.4842V25.3878H65.7506C65.517 28.8016 66.1921 31.5833 65.9521 34.9993Z" fill="#383838"/>
<path d="M33.4184 28.5538C33.562 28.9975 34.0871 28.5217 34.2307 28.9632C34.505 29.0382 34.9079 28.7939 35.0536 29.1668C35.9322 29.0853 36.6244 29.7604 37.5095 29.3768C38.476 29.7561 37.9231 30.7612 38.2274 31.4234C38.0431 31.4148 37.9445 31.6248 37.8181 31.7277V31.9291C36.8987 31.7448 36.0458 32.3256 35.2529 31.8327C34.9807 31.7598 34.5864 32.002 34.4428 31.6248C33.8192 31.5284 33.2063 31.4234 32.5955 31.3184C32.3619 30.8662 31.839 31.3805 31.3718 31.2133C31.1383 31.2133 30.8789 31.2691 30.7504 31.0098C30.1867 30.939 29.276 31.2369 29.1152 30.6004C29.1388 30.1333 28.9459 29.7561 29.0167 29.2718C30.1053 27.8038 31.9505 29.1025 33.4184 28.5538Z" fill="#383838"/>
<path d="M83.7576 29.5747C83.6784 30.194 83.9119 30.9377 83.1469 31.212V31.4199C82.7997 31.1948 82.2597 31.4349 81.9232 31.212C81.5353 31.557 80.8345 31.4349 80.3824 31.3148L77.62 31.6213C77.4721 32.0178 77.1442 31.7092 76.9021 31.7263C76.4263 32.0178 75.6291 31.5399 75.2669 32.1356C74.5897 32.1528 73.9125 32.1699 73.4218 31.7263C73.3168 31.1777 73.051 30.0505 73.7347 29.5747C73.9618 29.5661 74.219 29.6304 74.3476 29.3733C74.8876 29.5276 75.2991 29.0668 75.7813 29.3733C76.2249 29.1139 76.7414 29.0089 77.3114 29.0668C77.9157 29.5275 78.3443 28.6082 78.9487 29.0668C79.1094 29.0347 78.9658 28.7925 79.1587 28.8568C79.328 28.8911 79.5616 28.7775 79.6666 28.9618C80.4209 28.4303 81.3017 29.1311 82.1225 28.7603C82.8169 28.8825 83.404 28.8418 83.7576 29.5747Z" fill="#383838"/>
</svg>
