<svg width="40" height="40" viewBox="0 0 40 40" fill="none" xmlns="http://www.w3.org/2000/svg">
<path d="M12.2867 28.7945V31.3331H10.5801V23.8665C10.9072 23.8665 11.2663 23.8629 11.6574 23.8558C12.0556 23.8487 12.4574 23.8451 12.8627 23.8451C13.9152 23.8451 14.6832 24.0798 15.1667 24.5491C15.6432 25.0043 15.8814 25.5945 15.8814 26.3198C15.8814 27.0167 15.629 27.6105 15.1241 28.1011C14.6192 28.5847 13.9507 28.8265 13.1187 28.8265C12.749 28.8265 12.4716 28.8158 12.2867 28.7945ZM13.0334 25.4451C13.0263 25.4451 12.9943 25.4487 12.9374 25.4558C12.8805 25.4558 12.7916 25.4594 12.6707 25.4665C12.5499 25.4665 12.4219 25.4665 12.2867 25.4665V27.1731C12.5854 27.2087 12.845 27.2265 13.0654 27.2265C13.357 27.2265 13.5952 27.1518 13.7801 27.0025C13.9721 26.846 14.0681 26.6149 14.0681 26.3091C14.0681 25.7331 13.7232 25.4451 13.0334 25.4451Z" fill="#808080"/>
<path d="M17.6622 31.3331H17.4809V23.8665H17.6302C17.9502 23.8665 18.3058 23.8629 18.6969 23.8558C18.8462 23.8558 19.0098 23.8558 19.1876 23.8558C19.3725 23.8487 19.5147 23.8451 19.6142 23.8451C19.7138 23.838 19.7885 23.8345 19.8382 23.8345C21.2391 23.8345 22.288 24.1829 22.9849 24.8798C23.6818 25.5767 24.0302 26.462 24.0302 27.5358C24.0302 28.638 23.6569 29.5518 22.9102 30.2771C22.1707 30.9954 21.1182 31.3545 19.7529 31.3545C19.4756 31.3545 19.1662 31.3509 18.8249 31.3438C18.4836 31.3367 18.096 31.3331 17.6622 31.3331ZM19.8169 25.4345C19.5396 25.4345 19.3298 25.4451 19.1876 25.4665V29.7331C19.3867 29.7474 19.5929 29.7545 19.8062 29.7545C20.56 29.7545 21.1502 29.5589 21.5769 29.1678C22.0036 28.7767 22.2169 28.2327 22.2169 27.5358C22.2169 26.8745 22 26.3589 21.5662 25.9891C21.1325 25.6194 20.5494 25.4345 19.8169 25.4345Z" fill="#808080"/>
<path d="M27.3384 31.3331H25.6317V23.8665H29.9517V25.4665H27.3384V27.0451H29.6317V28.6451H27.3384V31.3331Z" fill="#808080"/>
<path fill-rule="evenodd" clip-rule="evenodd" d="M27.0714 13.6765L20.7074 20.0404C20.3169 20.431 19.6837 20.431 19.2932 20.0404L12.9292 13.6765C12.5387 13.286 12.5387 12.6528 12.9292 12.2623C13.3198 11.8717 13.9529 11.8717 14.3434 12.2623L19.0003 16.9191L19.0003 6L21.0003 6L21.0003 16.9191L25.6572 12.2623C26.0477 11.8717 26.6808 11.8717 27.0714 12.2623C27.4619 12.6528 27.4619 13.286 27.0714 13.6765Z" fill="#808080"/>
<circle cx="20" cy="20" r="19" stroke="#808080" stroke-width="2"/>
</svg>
