<svg width="438" height="440" viewBox="0 0 438 440" fill="none" xmlns="http://www.w3.org/2000/svg">
<path fill-rule="evenodd" clip-rule="evenodd" d="M103.381 1.17484e-07L157.996 0C161.305 11.858 162.959 24.358 162.959 37.5C162.959 63.0556 156.704 86.3111 144.195 107.267C131.686 127.967 114.965 144.578 94.0314 157.1C73.3533 169.367 50.3776 175.5 25.1043 175.5C16.4837 175.5 8.11564 174.786 0 173.359L1.02409e-08 120.877C7.97719 123.304 16.3453 124.517 25.1043 124.517C40.932 124.517 55.3557 120.556 68.3752 112.633C81.6501 104.711 92.2445 94.2333 100.158 81.2C108.072 67.9111 112.029 53.3444 112.029 37.5C112.029 23.976 109.146 11.476 103.381 1.17484e-07ZM1.02409e-08 334.998L335.394 1.10774e-07H411.72L1.02409e-08 411.541V334.998ZM256.739 440H438V232.096C431.628 226.604 424.703 221.666 417.223 217.283C396.29 204.761 373.186 198.5 347.913 198.5C323.406 198.5 300.685 204.761 279.752 217.283C258.818 229.806 241.97 246.544 229.205 267.5C216.441 288.456 210.059 311.456 210.059 336.5C210.059 362.056 216.313 385.311 228.822 406.267C236.564 419.077 245.869 430.322 256.739 440ZM347.913 423.517C363.486 423.517 377.909 419.556 391.184 411.633C404.459 403.711 415.053 393.233 422.967 380.2C430.881 366.911 434.838 352.344 434.838 336.5C434.838 320.656 430.881 306.217 422.967 293.183C415.053 279.894 404.459 269.289 391.184 261.367C377.909 253.444 363.486 249.483 347.913 249.483C332.085 249.483 317.534 253.444 304.259 261.367C291.24 269.289 280.645 279.894 272.476 293.183C264.562 306.217 260.605 320.656 260.605 336.5C260.605 352.344 264.562 366.911 272.476 380.2C280.645 393.233 291.24 403.711 304.259 411.633C317.534 419.556 332.085 423.517 347.913 423.517Z" fill="#B3B3B3"/>
</svg>
