<svg width="132" height="30" viewBox="0 0 132 30" fill="none" xmlns="http://www.w3.org/2000/svg">
<g clip-path="url(#clip0_188_1385)">
<path d="M39.4131 24.8955H40.2556V28.921H42.7833V29.67H39.4131V24.8955Z" fill="black"/>
<path d="M47.2771 24.8955H46.4346V29.7636H47.2771V24.8955Z" fill="black"/>
<path d="M51.0215 27.3295C51.0215 25.9253 52.0513 24.8019 53.4555 24.8019C54.2981 24.8019 54.7662 25.0827 55.3279 25.4572L54.7662 26.1125C54.3917 25.8317 54.0172 25.5508 53.4555 25.5508C52.613 25.5508 51.864 26.2998 51.864 27.2359C51.864 28.2657 52.5194 28.921 53.4555 28.921C53.9236 28.921 54.2981 28.7338 54.5789 28.5466V27.6104H53.3619V26.8615H55.4215V28.921C54.9534 29.2955 54.2981 29.67 53.4555 29.67C52.0513 29.7636 51.0215 28.7338 51.0215 27.3295Z" fill="black"/>
<path d="M59.3535 24.8955H60.1961V26.8615H62.4429V24.8955H63.2854V29.67H62.4429V27.704H60.1961V29.67H59.3535V24.8955Z" fill="black"/>
<path d="M68.4344 25.6444H66.9365V24.8955H70.8684V25.6444H69.2769V29.67H68.4344V25.6444Z" fill="black"/>
<path d="M75.3621 24.8955H74.5195V29.7636H75.3621V24.8955Z" fill="black"/>
<path d="M79.3877 24.8955H80.1366L82.6643 28.1721V24.8955H83.5068V29.67H82.8515L80.1366 26.2998V29.67H79.3877V24.8955Z" fill="black"/>
<path d="M87.251 27.3295C87.251 25.9253 88.2808 24.8019 89.685 24.8019C90.5276 24.8019 90.9957 25.0827 91.5574 25.4572L90.9957 26.1125C90.6212 25.8317 90.2467 25.5508 89.685 25.5508C88.8425 25.5508 88.0935 26.2998 88.0935 27.2359C88.0935 28.2657 88.7489 28.921 89.685 28.921C90.1531 28.921 90.5276 28.7338 90.8084 28.5466V27.6104H89.5914V26.8615H91.7446V28.921C91.2765 29.2955 90.6212 29.67 89.7786 29.67C88.2808 29.7636 87.251 28.7338 87.251 27.3295Z" fill="black"/>
<path d="M131.064 23.0232C131.158 23.0232 131.251 22.9295 131.251 22.8359C131.251 22.7423 131.158 22.6487 131.064 22.6487H130.877V22.9295H131.064V23.0232ZM130.69 22.5551H131.158C131.251 22.5551 131.439 22.5551 131.439 22.6487C131.532 22.7423 131.532 22.7423 131.532 22.8359C131.532 23.0232 131.439 23.1168 131.345 23.1168L131.626 23.4912H131.345L131.158 23.1168H130.97V23.5849H130.783V22.5551H130.69ZM131.907 23.1168C131.907 22.6487 131.532 22.2742 131.064 22.2742C130.596 22.2742 130.222 22.6487 130.222 23.1168C130.222 23.5849 130.596 23.9593 131.064 23.9593C131.532 23.9593 131.907 23.5849 131.907 23.1168ZM130.128 23.1168C130.128 22.5551 130.596 22.1806 131.064 22.1806C131.626 22.1806 132 22.6487 132 23.1168C132 23.6785 131.532 24.0529 131.064 24.0529C130.502 24.0529 130.128 23.5849 130.128 23.1168Z" fill="black"/>
<path d="M17.8809 11.6019C17.3192 6.92101 13.7618 4.20612 8.98733 4.86144C4.21286 5.42314 1.31073 8.88697 1.87243 13.5678C2.43414 18.2487 5.99158 20.9636 10.766 20.3082C15.5405 19.7465 18.349 16.2827 17.8809 11.6019ZM0.0937095 13.7551C-0.56161 8.13803 2.90222 3.83165 8.80009 3.17633C14.6043 2.4274 19.0043 5.79761 19.7533 11.4146C20.4086 17.0317 16.9448 21.338 11.0469 21.9934C5.14903 22.6487 0.749029 19.3721 0.0937095 13.7551Z" fill="black"/>
<path d="M24.1532 13.5679L23.4043 1.86572L25.183 1.77211L25.8383 13.1934C26.0256 16.8444 28.4596 18.6232 32.6724 18.3423C36.9788 18.0615 39.132 16.0955 38.8511 12.3508L38.2894 0.929555L39.9745 0.835938L40.7234 12.4444C41.0043 16.8444 38.1958 19.5593 32.8596 19.9338C27.5234 20.3083 24.4341 17.9679 24.1532 13.5679Z" fill="black"/>
<path d="M62.7233 9.54231C62.6297 4.86146 59.3531 1.7721 54.5787 1.86572C49.8042 1.95933 46.6212 5.14231 46.7148 9.82316C46.8085 14.504 50.085 17.5934 54.8595 17.4998C59.5404 17.4061 62.7233 14.2232 62.7233 9.54231ZM44.8425 9.82316C44.7489 4.20614 48.5872 0.274227 54.485 0.18061C60.3829 0.0869929 64.4085 3.83167 64.5021 9.54231C64.5957 15.1593 60.6638 19.0912 54.7659 19.1849C48.9616 19.2785 44.9361 15.4402 44.8425 9.82316Z" fill="black"/>
<path d="M68.8953 18.8154L70.6738 18.8387L70.9144 0.491644L69.1359 0.468319L68.8953 18.8154Z" fill="black"/>
<path d="M91.4642 2.52101L77.0472 17.3125L90.8089 17.8742V19.4657L74.5195 18.8104L74.6131 17.4061L88.9366 2.61463L75.5493 2.14654L75.6429 0.555054L91.4642 1.11676V2.52101Z" fill="black"/>
<path d="M97.7358 3.17638L97.1741 9.82319L109.251 10.853L109.064 12.4445L97.0805 11.4147L96.5188 18.2487L110.281 19.4657L110.093 20.9636L94.6465 19.7466L96.1444 1.49127L111.591 2.70829L111.498 4.29978L97.7358 3.17638Z" fill="black"/>
<path d="M128.911 21.9934L128.724 23.5849L113.839 21.4317L116.367 3.26996L118.145 3.55081L115.805 20.121L128.911 21.9934Z" fill="black"/>
<path d="M22.4677 22.2742L21.4379 23.6785C21.3443 23.7721 21.1571 23.6785 20.9698 23.4912L15.8209 18.904C15.6337 18.7168 15.54 18.5295 15.54 18.4359L16.5698 17.0317C16.6634 16.938 16.8507 17.0317 17.0379 17.2189L22.0932 21.7125C22.3741 21.9934 22.4677 22.1806 22.4677 22.2742Z" fill="black"/>
</g>
<defs>
<clipPath id="clip0_188_1385">
<rect width="132" height="29.583" fill="white" transform="translate(0 0.180603)"/>
</clipPath>
</defs>
</svg>
