<?xml version="1.0" encoding="utf-8"?><svg viewBox="0 0 502.66 502.66" xmlns="http://www.w3.org/2000/svg" xmlns:xlink="http://www.w3.org/1999/xlink"><style>:root>svg{display:none}:root>svg:target{display:block}</style><svg viewBox="0 0 30 30" id="filter" xmlns="http://www.w3.org/2000/svg"><path d="M15 6.25h10M5 23.75h3.75M5 6.25h5m3.75 17.5H25M21.25 15H25M5 15h11.25"/><circle cx="12.5" cy="6.25" r="2.5" transform="rotate(90 12.5 6.25)"/><circle cx="18.75" cy="15" r="2.5" transform="rotate(90 18.75 15)"/><circle cx="11.25" cy="23.75" r="2.5" transform="rotate(90 11.25 23.75)"/></svg><svg viewBox="0 0 502.664 502.664" id="icon" xmlns="http://www.w3.org/2000/svg"><path d="M153.821 358.226L0 274.337v-46.463l153.821-83.414v54.574L46.636 250.523l107.185 53.431v54.272zm26.273 29.358L282.103 115.08h32.227L212.084 387.584h-31.99zm168.749-29.358v-54.272l107.164-52.999-107.164-52.59v-53.927l153.821 83.522v46.183l-153.821 84.083z"/></svg></svg>