<svg width="51" height="51" viewBox="0 0 51 51" fill="none" xmlns="http://www.w3.org/2000/svg">
<g clip-path="url(#clip0_103_1235)">
<path d="M25.5 51C39.5833 51 51 39.5833 51 25.5C51 11.4167 39.5833 0 25.5 0C11.4167 0 0 11.4167 0 25.5C0 39.5833 11.4167 51 25.5 51Z" fill="#383838"/>
<path d="M11.5427 25.2308C18.9764 21.992 23.9334 19.8568 26.4137 18.8252C33.4953 15.8797 34.9668 15.3681 35.9259 15.351C36.1369 15.3475 36.6085 15.3997 36.914 15.6476C37.172 15.857 37.243 16.1397 37.277 16.3382C37.3109 16.5367 37.3532 16.9888 37.3196 17.3421C36.9359 21.3742 35.2753 31.1592 34.4306 35.6753C34.0731 37.5862 33.3693 38.2269 32.6879 38.2896C31.2071 38.4259 30.0826 37.311 28.6483 36.3708C26.404 34.8996 25.1361 33.9838 22.9576 32.5482C20.4399 30.8891 22.072 29.9772 23.5068 28.487C23.8823 28.097 30.4069 22.1624 30.5332 21.624C30.549 21.5567 30.5636 21.3057 30.4145 21.1732C30.2654 21.0406 30.0454 21.086 29.8865 21.122C29.6615 21.1731 26.0761 23.5429 19.1305 28.2314C18.1128 28.9302 17.191 29.2707 16.3651 29.2528C15.4546 29.2332 13.7032 28.738 12.4013 28.3148C10.8043 27.7957 9.5351 27.5213 9.64562 26.6397C9.70319 26.1805 10.3355 25.7109 11.5427 25.2308Z" fill="white"/>
</g>
<defs>
<clipPath id="clip0_103_1235">
<rect width="51" height="51" fill="white"/>
</clipPath>
</defs>
</svg>
