<svg width="70" height="50" viewBox="0 0 70 50" fill="none" xmlns="http://www.w3.org/2000/svg">
<path d="M19.2909 44.5714C17.2905 44.5714 15.5845 43.8712 14.1732 42.4829C12.7618 41.0946 12.0623 39.4165 12.0623 37.4487H11C9.34315 37.4487 8 36.1055 8 34.4487V9.62173C8 8.65594 8.36818 7.81087 9.10455 7.08652C9.84091 6.36217 10.7 6 11.6818 6H44.2114C45.8682 6 47.2114 7.34315 47.2114 9V16.0805H52.171C53.106 16.0805 53.9875 16.5164 54.5551 17.2594L61.3841 26.1997C61.7836 26.7227 62 27.3626 62 28.0207V34.4487C62 36.1055 60.6569 37.4487 59 37.4487H57.6432C57.6432 39.4165 56.9314 41.1066 55.52 42.4829C54.1086 43.8712 52.4027 44.5714 50.4023 44.5714C48.4018 44.5714 46.6836 43.8712 45.2845 42.4829C43.8732 41.0946 43.1614 39.4165 43.1614 37.4487H26.5318C26.5318 39.4165 25.82 41.1066 24.4086 42.4829C22.9973 43.8833 21.2914 44.5714 19.2909 44.5714ZM19.2909 40.9497C20.2727 40.9497 21.1073 40.6117 21.8068 39.9235C22.5064 39.2354 22.85 38.4145 22.85 37.4487C22.85 36.4829 22.5064 35.662 21.8068 34.9738C21.1073 34.2857 20.2727 33.9477 19.2909 33.9477C18.3091 33.9477 17.4745 34.2857 16.775 34.9738C16.0755 35.662 15.7318 36.4829 15.7318 37.4487C15.7318 38.4145 16.0755 39.2354 16.775 39.9235C17.4745 40.6117 18.3091 40.9497 19.2909 40.9497ZM11.6818 33.827H13.0318C13.7314 32.7404 14.6027 31.8712 15.6705 31.2314C16.7382 30.5915 17.9164 30.2656 19.2295 30.2656C20.5427 30.2656 21.7332 30.5915 22.8255 31.2555C23.9055 31.9195 24.8014 32.7767 25.5009 33.8149H43.5418V9.62173H11.6818V33.827ZM50.4023 40.9497C51.3841 40.9497 52.2186 40.6117 52.9182 39.9235C53.6177 39.2354 53.9614 38.4145 53.9614 37.4487C53.9614 36.4829 53.6177 35.662 52.9182 34.9738C52.2186 34.2857 51.3841 33.9477 50.4023 33.9477C49.4205 33.9477 48.5859 34.2857 47.8864 34.9738C47.1868 35.662 46.8432 36.4829 46.8432 37.4487C46.8432 38.4145 47.1868 39.2354 47.8864 39.9235C48.5859 40.6117 49.4205 40.9497 50.4023 40.9497ZM47.2114 28.6358H58.625L51.8136 19.7022H47.2114V28.6358Z" fill="#383838"/>
</svg>
