<svg width="70" height="50" viewBox="0 0 70 50" fill="none" xmlns="http://www.w3.org/2000/svg">
<path d="M55.1082 22.5705V11.9466C55.1082 9.67003 53.3059 7.86776 51.1242 7.7729V7.48834C51.0294 6.53977 50.1757 5.87578 49.1322 5.97063L34.6192 7.7729L18.4936 4.07351C17.5451 3.78894 16.5965 4.35808 16.312 5.30664L15.648 7.86776H15.1737C12.8971 7.86776 11 9.76489 11 12.0414V41.8263C11 44.1029 12.8971 46 15.1737 46H51.0294C53.3059 46 55.203 44.1029 55.203 41.8263V35.2812C57.4796 35.2812 59.3767 33.3841 59.3767 31.1076V26.9339C59.3767 24.4676 57.4796 22.5705 55.1082 22.5705ZM53.0213 11.9466V12.5157C52.5471 12.2312 52.0728 12.0414 51.5985 12.0414L51.3139 9.9546C52.3573 10.0495 53.0213 10.9032 53.0213 11.9466ZM49.2271 9.10089L49.5117 11.662L40.1209 9.10089L47.994 8.15233C48.5631 8.05747 49.1322 8.53176 49.2271 9.10089ZM19.3474 6.35006L42.3974 11.9466H16.7862L18.1142 7.10891C18.2091 6.53977 18.7782 6.16035 19.3474 6.35006ZM12.992 11.9466C12.992 10.8083 13.9405 9.85974 15.0788 9.85974L14.5097 12.0414C13.9405 12.1363 13.4663 12.326 12.992 12.6106V11.9466ZM53.0213 41.6366C53.0213 42.7749 52.0728 43.7234 50.9345 43.7234H15.1737C14.0354 43.7234 13.0868 42.7749 13.0868 41.6366V16.0254C13.0868 14.8871 14.0354 13.9386 15.1737 13.9386H51.0294C52.1676 13.9386 53.1162 14.8871 53.1162 16.0254V22.5705H49.7014C47.4248 22.5705 45.5277 24.4676 45.5277 26.7442V30.9178C45.5277 33.1944 47.4248 35.0915 49.7014 35.0915H53.1162V41.6366H53.0213ZM57.2899 31.0127C57.2899 32.151 56.3413 33.0995 55.203 33.0995H49.7014C48.5631 33.0995 47.6145 32.151 47.6145 31.0127V26.839C47.6145 25.7007 48.5631 24.7522 49.7014 24.7522H55.203C56.3413 24.7522 57.2899 25.7007 57.2899 26.839V31.0127Z" fill="#383838" stroke="#383838" stroke-width="2"/>
</svg>
