<svg width="109" height="104" viewBox="0 0 109 104" fill="none" xmlns="http://www.w3.org/2000/svg">
<path d="M19.9243 95.976L19.9243 83.448C21.3323 83.368 22.9083 83.328 24.6523 83.328C26.1883 83.328 27.3483 83.608 28.1323 84.168C28.9323 84.728 29.3323 85.488 29.3323 86.448C29.3323 87.872 28.6843 88.848 27.3883 89.376V89.4C28.9723 89.688 29.7643 90.616 29.7643 92.184C29.7643 93.448 29.2843 94.416 28.3243 95.088C27.3643 95.76 26.0763 96.096 24.4603 96.096C22.4443 96.096 20.9323 96.056 19.9243 95.976ZM24.8203 90.96H22.8523L22.8523 93.216C23.3643 93.296 23.9803 93.336 24.7003 93.336C26.1083 93.336 26.8123 92.928 26.8123 92.112C26.8123 91.344 26.1483 90.96 24.8203 90.96ZM24.6043 86.088C23.8523 86.088 23.2683 86.112 22.8523 86.16V88.368H24.6763C25.8283 88.368 26.4043 87.984 26.4043 87.216C26.4043 86.464 25.8043 86.088 24.6043 86.088ZM33.2933 89.736C33.2933 87.864 33.9493 86.32 35.2613 85.104C36.5893 83.856 38.2853 83.232 40.3493 83.232C42.4133 83.232 44.1093 83.824 45.4373 85.008C46.7653 86.192 47.4293 87.768 47.4293 89.736C47.4293 91.64 46.7573 93.208 45.4133 94.44C44.1013 95.656 42.4133 96.264 40.3493 96.264C38.2853 96.264 36.5893 95.672 35.2613 94.488C33.9493 93.32 33.2933 91.736 33.2933 89.736ZM36.4133 89.736C36.4133 90.808 36.7893 91.704 37.5413 92.424C38.3093 93.144 39.2453 93.504 40.3493 93.504C41.5813 93.504 42.5493 93.16 43.2533 92.472C43.9573 91.768 44.3093 90.856 44.3093 89.736C44.3093 88.632 43.9333 87.728 43.1813 87.024C42.4453 86.336 41.5013 85.992 40.3493 85.992C39.1973 85.992 38.2533 86.344 37.5173 87.048C36.7813 87.736 36.4133 88.632 36.4133 89.736ZM62.1083 96H59.1563V86.16H55.6523L55.3643 88.536C55.1883 90.152 54.9403 91.488 54.6203 92.544C54.3003 93.584 53.8923 94.376 53.3963 94.92C52.9163 95.448 52.3803 95.792 51.7883 95.952C51.1963 96.112 50.4923 96.128 49.6763 96L49.7243 93.168C49.9963 93.216 50.2363 93.216 50.4443 93.168C50.6523 93.12 50.8763 92.96 51.1163 92.688C51.3723 92.416 51.5883 92.032 51.7643 91.536C51.9563 91.024 52.1403 90.296 52.3163 89.352C52.4923 88.392 52.6363 87.248 52.7483 85.92L52.9643 83.4H62.1083V96ZM71.379 90C71.331 90 71.259 90.008 71.163 90.024C71.067 90.024 70.923 90.032 70.731 90.048C70.555 90.048 70.387 90.048 70.227 90.048V93.24C70.371 93.24 70.531 93.248 70.707 93.264C70.883 93.264 71.011 93.272 71.091 93.288C71.187 93.288 71.267 93.288 71.331 93.288C72.995 93.288 73.827 92.72 73.827 91.584C73.827 90.528 73.011 90 71.379 90ZM67.299 83.4H70.227V87.312C70.595 87.264 71.059 87.24 71.619 87.24C73.363 87.24 74.683 87.616 75.579 88.368C76.491 89.104 76.947 90.152 76.947 91.512C76.947 92.904 76.419 94.008 75.363 94.824C74.307 95.64 72.843 96.048 70.971 96.048C70.171 96.048 69.483 96.04 68.907 96.024C68.347 96.008 67.811 96 67.299 96V83.4ZM81.9973 86.16H77.6533V83.4L89.2933 83.4V86.16H84.9253V96H81.9973V86.16Z" fill="#383838"/>
<path d="M3.03711 63.97L3.06711 58.39L21.8771 41.53C23.3971 40.19 24.4271 38.91 24.9671 37.69C25.5271 36.47 25.8071 35.25 25.8071 34.03C25.8071 32.49 25.4671 31.11 24.7871 29.89C24.1071 28.65 23.1671 27.67 21.9671 26.95C20.7671 26.23 19.3871 25.87 17.8271 25.87C16.2271 25.87 14.7971 26.25 13.5371 27.01C12.2971 27.75 11.3271 28.74 10.6271 29.98C9.92711 31.22 9.58711 32.56 9.60711 34H3.18711C3.18711 31.2 3.81711 28.75 5.07711 26.65C6.35711 24.53 8.10711 22.88 10.3271 21.7C12.5471 20.5 15.0871 19.9 17.9471 19.9C20.6671 19.9 23.1071 20.52 25.2671 21.76C27.4271 22.98 29.1271 24.66 30.3671 26.8C31.6271 28.94 32.2571 31.38 32.2571 34.12C32.2571 36.1 31.9971 37.78 31.4771 39.16C30.9571 40.54 30.1771 41.82 29.1371 43C28.0971 44.18 26.7971 45.46 25.2371 46.84L10.7171 59.8L10.0271 58L32.2571 58V63.97L3.03711 63.97ZM38.252 63.97L38.282 58.39L57.092 41.53C58.612 40.19 59.642 38.91 60.182 37.69C60.742 36.47 61.022 35.25 61.022 34.03C61.022 32.49 60.682 31.11 60.002 29.89C59.322 28.65 58.382 27.67 57.182 26.95C55.982 26.23 54.602 25.87 53.042 25.87C51.442 25.87 50.012 26.25 48.752 27.01C47.512 27.75 46.542 28.74 45.842 29.98C45.142 31.22 44.802 32.56 44.822 34H38.402C38.402 31.2 39.032 28.75 40.292 26.65C41.572 24.53 43.322 22.88 45.542 21.7C47.762 20.5 50.302 19.9 53.162 19.9C55.882 19.9 58.322 20.52 60.482 21.76C62.642 22.98 64.342 24.66 65.582 26.8C66.842 28.94 67.472 31.38 67.472 34.12C67.472 36.1 67.212 37.78 66.692 39.16C66.172 40.54 65.392 41.82 64.352 43C63.312 44.18 62.012 45.46 60.452 46.84L45.932 59.8L45.242 58H67.472L67.472 63.97H38.252ZM89.7268 64.9C86.7868 64.9 84.1868 64.26 81.9268 62.98C79.6668 61.68 77.8868 59.9 76.5868 57.64C75.3068 55.38 74.6668 52.78 74.6668 49.84V34.96C74.6668 32.02 75.3068 29.42 76.5868 27.16C77.8868 24.9 79.6668 23.13 81.9268 21.85C84.1868 20.55 86.7868 19.9 89.7268 19.9C92.6668 19.9 95.2668 20.55 97.5268 21.85C99.7868 23.13 101.557 24.9 102.837 27.16C104.137 29.42 104.787 32.02 104.787 34.96V49.84C104.787 52.78 104.137 55.38 102.837 57.64C101.557 59.9 99.7868 61.68 97.5268 62.98C95.2668 64.26 92.6668 64.9 89.7268 64.9ZM89.7268 58.9C91.3268 58.9 92.7768 58.52 94.0768 57.76C95.3968 56.98 96.4468 55.94 97.2268 54.64C98.0068 53.32 98.3968 51.85 98.3968 50.23V34.51C98.3968 32.91 98.0068 31.46 97.2268 30.16C96.4468 28.84 95.3968 27.8 94.0768 27.04C92.7768 26.26 91.3268 25.87 89.7268 25.87C88.1268 25.87 86.6668 26.26 85.3468 27.04C84.0468 27.8 83.0068 28.84 82.2268 30.16C81.4468 31.46 81.0568 32.91 81.0568 34.51V50.23C81.0568 51.85 81.4468 53.32 82.2268 54.64C83.0068 55.94 84.0468 56.98 85.3468 57.76C86.6668 58.52 88.1268 58.9 89.7268 58.9Z" fill="#383838"/>
</svg>
