<svg width="40" height="40" viewBox="0 0 40 40" fill="none" xmlns="http://www.w3.org/2000/svg">
<path d="M17.666 23.5L17.666 20" stroke="#808080" stroke-width="2" stroke-linecap="round"/>
<path d="M22.334 23.5L22.334 20" stroke="#808080" stroke-width="2" stroke-linecap="round"/>
<path d="M9.5 14.1667H30.5V14.1667C29.0955 14.1667 28.3933 14.1667 27.8889 14.5037C27.6705 14.6497 27.483 14.8372 27.3371 15.0555C27 15.56 27 16.2622 27 17.6667V25.3334C27 27.219 27 28.1618 26.4142 28.7476C25.8284 29.3334 24.8856 29.3334 23 29.3334H17C15.1144 29.3334 14.1716 29.3334 13.5858 28.7476C13 28.1618 13 27.219 13 25.3334V17.6667C13 16.2622 13 15.56 12.6629 15.0555C12.517 14.8372 12.3295 14.6497 12.1111 14.5037C11.6067 14.1667 10.9045 14.1667 9.5 14.1667V14.1667Z" stroke="#808080" stroke-width="2" stroke-linecap="round"/>
<path d="M17.7468 9.93236C17.8798 9.80832 18.1727 9.69872 18.5802 9.62054C18.9877 9.54237 19.487 9.5 20.0007 9.5C20.5143 9.5 21.0136 9.54237 21.4211 9.62054C21.8286 9.69872 22.1215 9.80832 22.2545 9.93236" stroke="#808080" stroke-width="2" stroke-linecap="round"/>
</svg>
