<svg width="70" height="50" viewBox="0 0 70 50" fill="none" xmlns="http://www.w3.org/2000/svg">
<path d="M34.6943 31.4374L35.0554 31.7985L35.4088 31.4299L53.2292 12.8431L53.2324 12.8397L54.7653 11.2109L54.7663 11.2098L57.5448 8.23978L57.5729 8.20976L57.5957 8.17555C57.669 8.06548 57.7739 8.01497 57.9461 8.01497C58.2448 8.01497 58.5 8.27015 58.5 8.56886C58.5 8.75704 58.4356 8.90514 58.359 8.98177L58.359 8.98173L58.3538 8.98709L55.1921 12.2446L55.1921 12.2445L55.1868 12.2501L53.6563 13.8763L53.6539 13.8789L35.4527 32.9421L35.4226 32.9737L35.3983 33.0101C35.325 33.1201 35.22 33.1707 35.0479 33.1707C34.8597 33.1707 34.7116 33.1063 34.635 33.0297L23.7128 22.1075C23.6362 22.0309 23.5719 21.8828 23.5719 21.6946C23.5719 21.3959 23.827 21.1407 24.1257 21.1407C24.3139 21.1407 24.462 21.2051 24.5387 21.2817L34.6943 31.4374ZM55.9044 16.108C55.9811 16.0314 56.1292 15.9671 56.3174 15.9671C56.5055 15.9671 56.6536 16.0314 56.7303 16.108C56.7913 16.1691 56.8063 16.1977 56.8163 16.2176C56.8256 16.2363 56.8338 16.2558 56.8524 16.2996C56.8675 16.3354 56.8873 16.3819 56.9134 16.4356C57.9394 19.0545 58.5 21.9556 58.5 24.9521C58.5 37.9946 47.992 48.5 35.0479 48.5C22.0054 48.5 11.5 37.992 11.5 25.0479C11.5 12.008 22.1012 1.5 35.0479 1.5C41.6104 1.5 47.4264 4.21733 51.7482 8.53918L51.844 8.63499C51.9207 8.71162 51.985 8.85972 51.985 9.0479C51.985 9.22267 51.9295 9.36287 51.8602 9.44335C51.7077 9.55807 51.561 9.60179 51.4311 9.60179C51.3003 9.60179 51.1525 9.55743 50.9987 9.44086C46.8894 5.24581 41.216 2.60778 34.9521 2.60778C22.6041 2.60778 12.6078 12.6041 12.6078 24.9521C12.6078 37.3001 22.6041 47.2964 34.9521 47.2964C47.3001 47.2964 57.2964 37.3001 57.2964 24.9521C57.2964 22.0222 56.7127 19.2897 55.7427 16.7574C55.693 16.52 55.7666 16.2459 55.9044 16.108Z" fill="#383838" stroke="#383838"/>
<path d="M35.0479 31.0838L24.8922 20.9281C24.7006 20.7365 24.4132 20.6407 24.1257 20.6407C23.5509 20.6407 23.0719 21.1198 23.0719 21.6946C23.0719 21.982 23.1677 22.2695 23.3593 22.4611L34.2814 33.3832C34.473 33.5748 34.7605 33.6707 35.0479 33.6707C35.3353 33.6707 35.6227 33.5748 35.8144 33.2874L54.018 14.2216L55.5509 12.5928L58.7126 9.33533C58.9042 9.14371 59 8.85629 59 8.56886C59 7.99401 58.521 7.51497 57.9461 7.51497C57.6587 7.51497 57.3712 7.61078 57.1796 7.8982L54.4012 10.8683L52.8683 12.497L35.0479 31.0838ZM57.0838 15.7545C56.7006 15.3713 55.9341 15.3713 55.5509 15.7545C55.2635 16.0419 55.1677 16.521 55.2635 16.9042C56.2215 19.3952 56.7964 22.0778 56.7964 24.9521C56.7964 37.024 47.0239 46.7964 34.9521 46.7964C22.8802 46.7964 13.1078 37.024 13.1078 24.9521C13.1078 12.8802 22.8802 3.10778 34.9521 3.10778C41.0838 3.10778 46.6407 5.69461 50.6647 9.81437C51.1437 10.1976 51.7186 10.1976 52.1976 9.81437C52.5808 9.43114 52.5808 8.66467 52.1976 8.28144L52.1018 8.18563C47.6946 3.77844 41.7545 1 35.0479 1C21.8263 1 11 11.7305 11 25.0479C11 38.2695 21.7305 49 35.0479 49C48.2695 49 59 38.2695 59 24.9521C59 21.8862 58.4251 18.9162 57.3713 16.2335C57.2754 16.0419 57.2754 15.9461 57.0838 15.7545Z" stroke="#383838" stroke-width="0.5304" stroke-miterlimit="10"/>
</svg>
