<svg width="70" height="50" viewBox="0 0 70 50" fill="none" xmlns="http://www.w3.org/2000/svg">
<path d="M57.2612 24.9983C57.2603 12.7229 47.2756 2.73881 35 2.73881C22.7239 2.73881 12.7388 12.7239 12.7388 25C12.7388 37.2761 22.7239 47.2612 35 47.2612C47.3629 47.2612 57.3517 37.2785 57.2612 24.9983ZM57.2612 24.9983C57.2612 24.9989 57.2612 24.9994 57.2612 25H56.7612L57.2612 24.9963C57.2612 24.997 57.2612 24.9976 57.2612 24.9983ZM11.5 25C11.5 12.0224 22.0224 1.5 35 1.5C47.9788 1.5 58.5 11.9341 58.5 25C58.5 37.9776 47.9776 48.5 35 48.5C22.0224 48.5 11.5 37.9776 11.5 25ZM15.8881 24.9104C15.8881 14.3508 24.4403 5.79851 35 5.79851C45.5597 5.79851 54.1119 14.3508 54.1119 24.9104C54.1119 35.4701 45.5597 44.0224 35 44.0224C24.4403 44.0224 15.8881 35.4701 15.8881 24.9104ZM17.0373 24.9104C17.0373 34.8582 25.0522 42.8731 35 42.8731C44.9478 42.8731 52.9627 34.8582 52.9627 24.9104C52.9627 14.9627 44.9478 6.94776 35 6.94776C25.0522 6.94776 17.0373 14.9627 17.0373 24.9104Z" fill="#383838" stroke="#383838"/>
<path d="M37.0964 24.9105C37.0964 26.0686 36.1575 27.0075 34.9994 27.0075C33.8412 27.0075 32.9023 26.0686 32.9023 24.9105C32.9023 23.7523 33.8412 22.8135 34.9994 22.8135C36.1575 22.8135 37.0964 23.7523 37.0964 24.9105Z" fill="#383838" stroke="#383838"/>
<path d="M24.0742 14.3433L34.9996 25.2686" stroke="#383838" stroke-width="1.7682" stroke-miterlimit="10" stroke-linecap="round" stroke-linejoin="round"/>
<path d="M35 13.1791V24.9104" stroke="#383838" stroke-width="1.7682" stroke-miterlimit="10" stroke-linecap="round" stroke-linejoin="round"/>
</svg>
