<svg width="30" height="28" viewBox="0 0 30 28" fill="none" xmlns="http://www.w3.org/2000/svg">
<g clip-path="url(#clip0_10_1025)">
<path d="M7.01953 18.9092C7.01953 18.2188 6.45989 17.6592 5.76953 17.6592C5.07918 17.6592 4.51953 18.2188 4.51953 18.9092L7.01953 18.9092ZM4.51953 18.9092L4.51953 27.5001L7.01953 27.5001L7.01953 18.9092L4.51953 18.9092Z" fill="#808080"/>
<path d="M13.1733 2.95459C13.1733 2.26423 12.6137 1.70459 11.9233 1.70459C11.233 1.70459 10.6733 2.26423 10.6733 2.95459L13.1733 2.95459ZM10.6733 2.95459L10.6733 27.5L13.1733 27.5L13.1733 2.95459L10.6733 2.95459Z" fill="#808080"/>
<path d="M19.3271 11.5454C19.3271 10.8551 18.7675 10.2954 18.0771 10.2954C17.3868 10.2954 16.8271 10.8551 16.8271 11.5454L19.3271 11.5454ZM16.8271 11.5454L16.8271 27.5L19.3271 27.5L19.3271 11.5454L16.8271 11.5454Z" fill="#808080"/>
<path d="M25.481 7.25C25.481 6.55964 24.9213 6 24.231 6C23.5406 6 22.981 6.55964 22.981 7.25L25.481 7.25ZM22.981 7.25L22.981 27.5L25.481 27.5L25.481 7.25L22.981 7.25Z" fill="#808080"/>
</g>
<defs>
<clipPath id="clip0_10_1025">
<rect width="30" height="27" fill="white" transform="translate(0 0.5)"/>
</clipPath>
</defs>
</svg>
