<svg width="63" height="64" viewBox="0 0 63 64" fill="none" xmlns="http://www.w3.org/2000/svg">
<g clip-path="url(#clip0_1_221)">
<path d="M29.1611 54.7636L13.437 45.3818C12.7651 44.9891 12.2648 44.4655 11.9075 43.7818C11.5501 43.0982 11.3643 42.3709 11.3643 41.6V22.9091C11.3643 22.1382 11.5358 21.4109 11.9075 20.7273C12.2791 20.0436 12.7794 19.52 13.437 19.1273L29.2326 9.6C29.9045 9.20727 30.6335 9.01818 31.4483 9.01818C32.2631 9.01818 32.9921 9.20727 33.6639 9.6L49.4596 19.1273C50.1314 19.52 50.646 20.0436 51.0034 20.7273C51.3608 21.4109 51.5466 22.1382 51.5466 22.9091V41.6C51.5466 42.3709 51.3608 43.0982 50.9748 43.7818C50.5888 44.4655 50.0742 44.9891 49.4024 45.3818L33.4495 54.7636C32.7777 55.1564 32.0629 55.3455 31.3053 55.3455C30.5477 55.3455 29.833 55.1564 29.1611 54.7636ZM29.3041 49.7455V33.4545L15.7241 25.5273V41.4545L29.3041 49.7455ZM33.5925 49.7455L47.2439 41.4545V25.5273L33.5925 33.4545V49.7455ZM0 13.7455V8.14545C0 5.92 0.786207 4 2.35862 2.4C3.93103 0.8 5.81793 0 8.00502 0H13.5085V4.36364H8.00502C6.9615 4.36364 6.07524 4.72727 5.3605 5.45455C4.64577 6.18182 4.2884 7.08364 4.2884 8.14545V13.7455H0ZM8.00502 64C5.81793 64 3.93103 63.2 2.35862 61.6C0.786207 60 0 58.08 0 55.8545V50.2545H4.2884V55.8545C4.2884 56.9164 4.64577 57.8182 5.3605 58.5455C6.07524 59.2727 6.9615 59.6364 8.00502 59.6364H13.5085V64H8.00502ZM49.3881 63.7091V59.3455H54.8915C55.935 59.3455 56.8213 58.9818 57.5361 58.2545C58.2508 57.5273 58.6082 56.6255 58.6082 55.5636V49.9636H62.8966V55.5636C62.8966 57.7891 62.1103 59.7091 60.5379 61.3091C58.9655 62.9091 57.0786 63.7091 54.8915 63.7091H49.3881V63.7091ZM58.6082 13.7455V8.14545C58.6082 7.08364 58.2508 6.18182 57.5361 5.45455C56.8213 4.72727 55.935 4.36364 54.8915 4.36364H49.3881V0H54.8915C57.0786 0 58.9655 0.8 60.5379 2.4C62.1103 4 62.8966 5.92 62.8966 8.14545V13.7455H58.6082ZM31.4483 29.5273L45.0282 21.5273L31.4483 13.6L17.8683 21.5273L31.4483 29.5273Z" fill="#383838"/>
</g>
<defs>
<clipPath id="clip0_1_221">
<rect width="62.8966" height="64" fill="white"/>
</clipPath>
</defs>
</svg>
