<svg width="61" height="80" viewBox="0 0 61 80" fill="none" xmlns="http://www.w3.org/2000/svg">
<path d="M21.1213 80L17.8425 76.7197L23.9425 70.5407C17.0342 69.7778 11.3155 68.0996 6.78625 65.5059C2.257 62.9122 0 59.6319 0 55.6651C0 51.6525 2.9585 48.2197 8.8755 45.3972C14.7925 42.5747 22.0057 41.1558 30.5 41.1558C39.04 41.1558 46.2533 42.5747 52.155 45.3972C58.0568 48.2197 61 51.6373 61 55.6651C61 58.6708 59.3682 61.3102 56.12 63.5988C52.8717 65.8873 48.5407 67.6724 43.1575 68.9387V63.9802C47.2292 62.958 50.447 61.6459 52.8413 60.0134C55.2355 58.3961 56.425 56.9467 56.425 55.6651C56.425 54.0326 54.3053 51.9729 50.0658 49.4861C45.8263 46.9992 39.2992 45.7481 30.5 45.7481C21.7617 45.7481 15.25 46.9992 10.98 49.4861C6.71 51.9729 4.575 54.0479 4.575 55.6651C4.575 57.9537 6.039 59.9218 8.967 61.5848C11.895 63.2326 16.958 64.7583 24.1865 66.1314L17.8577 59.9523L21.1365 56.6721L32.8027 68.2674L21.1213 80Z" fill="#383838"/>
<g clip-path="url(#clip0_103_1118)">
<path d="M30.0283 50.4699C36.1718 44.8279 40.7205 39.7039 43.6605 35.1119C46.6005 30.52 48.0566 26.4599 48.0566 22.9599C48.0566 17.4579 46.3092 12.95 42.8145 9.44995C39.3198 5.94995 35.0624 4.19995 30.0283 4.19995C24.9942 4.19995 20.7229 5.94995 17.2282 9.44995C13.7335 12.95 12 17.4579 12 22.9599C12 26.4599 13.4977 30.506 16.5071 35.1119C19.5164 39.7179 24.0235 44.8279 30.0283 50.4699Z" fill="white"/>
<path d="M22.5613 30.1V17.15L30.1887 12.04L37.816 17.15V30.1H33.6557V21.7H26.7217V30.1H22.5613ZM30.1887 50.47C36.3322 44.828 40.8808 39.704 43.8208 35.112C46.7608 30.52 48.217 26.46 48.217 22.96C48.217 17.458 46.4696 12.95 42.9749 9.45C39.4802 5.95 35.2227 4.2 30.1887 4.2C25.1546 4.2 20.8833 5.95 17.3886 9.45C13.8939 12.95 12.1604 17.458 12.1604 22.96C12.1604 26.46 13.6581 30.506 16.6675 35.112C19.6768 39.718 24.1839 44.828 30.1887 50.47ZM30.1887 56C22.7416 49.602 17.1806 43.666 13.5194 38.178C9.8583 32.69 8 27.622 8 22.96C8 15.96 10.2327 10.388 14.6843 6.23C19.1359 2.072 24.3225 0 30.1887 0C36.0548 0 41.2275 2.072 45.6791 6.23C50.1308 10.388 52.3774 15.96 52.3774 22.96C52.3774 27.622 50.5329 32.704 46.8718 38.192C43.1968 43.666 37.6358 49.602 30.1887 56Z" fill="#383838"/>
</g>
<defs>
<clipPath id="clip0_103_1118">
<rect width="44.3774" height="56" fill="white" transform="translate(8)"/>
</clipPath>
</defs>
</svg>
