<svg width="51" height="64" viewBox="0 0 51 64" fill="none" xmlns="http://www.w3.org/2000/svg">
<g clip-path="url(#clip0_1_229)">
<path d="M25.3793 64C17.9717 62.128 11.8966 57.792 7.13793 51.008C2.37931 44.224 0 36.752 0 28.64V9.6L25.3793 0L50.7586 9.6V28.64C50.7586 36.752 48.3793 44.208 43.6207 51.008C38.8621 57.808 32.7869 62.128 25.3793 64ZM25.3793 59.04C31.4545 57.008 36.4193 53.184 40.2579 47.568C44.0966 41.952 46 35.632 46 28.64V12.96L25.3793 5.12L4.75862 12.96V28.64C4.75862 35.632 6.67793 41.936 10.5007 47.552C14.3234 53.168 19.3041 57.008 25.3793 59.04Z" fill="#383838"/>
<path d="M19.3994 39.008V36.544L21.6201 34.512C25.3794 31.12 27.2036 29.168 27.267 27.136C27.267 25.712 26.4104 24.592 24.4277 24.592C22.9367 24.592 21.6518 25.344 20.7477 26.032L19.6056 23.12C20.9063 22.128 22.9208 21.328 25.2525 21.328C29.1546 21.328 31.296 23.632 31.296 26.784C31.296 29.696 29.2022 32.016 26.7118 34.272L25.1256 35.6V35.648H31.6132V38.992H19.3994V39.008Z" fill="#383838"/>
</g>
<defs>
<clipPath id="clip0_1_229">
<rect width="50.7586" height="64" fill="white"/>
</clipPath>
</defs>
</svg>
