<svg width="70" height="50" viewBox="0 0 70 50" fill="none" xmlns="http://www.w3.org/2000/svg">
<path d="M19.5 18.8853C19.5 10.8019 26.5054 3.5 35.1667 3.5C43.8281 3.5 50.8335 10.8019 50.8335 18.8853C50.8335 24.8679 48.019 30.8545 44.5905 35.8971C41.1802 40.913 37.2803 44.8234 35.3619 46.6202C35.286 46.6912 35.2078 46.7154 35.1411 46.7162C35.0748 46.717 34.9986 46.6952 34.9237 46.628C32.9984 44.9003 29.1127 41.141 25.7183 36.187C22.3116 31.2151 19.5 25.1854 19.5 18.8853Z" stroke="#383838" stroke-width="3"/>
<path d="M41.4694 19.167C41.4694 22.6481 38.6474 25.4701 35.1663 25.4701C31.6853 25.4701 28.8633 22.6481 28.8633 19.167C28.8633 15.6859 31.6853 12.864 35.1663 12.864C38.6474 12.864 41.4694 15.6859 41.4694 19.167Z" stroke="#383838" stroke-width="3"/>
</svg>
