<svg width="164" height="80" viewBox="0 0 164 80" fill="none" xmlns="http://www.w3.org/2000/svg">
<path d="M128.16 51.4328C128.108 51.0912 127.792 49.3829 127.45 48.5419C127.424 48.4893 127.424 48.4631 127.398 48.4105C126.977 47.3592 126.451 46.6759 125.715 45.9663C125.61 45.8612 125.478 45.7561 125.373 45.651C125.294 45.5984 125.242 45.5196 125.163 45.4407C123.296 43.8901 120.666 42.9177 117.695 42.9177H112.042C111.358 42.9177 110.674 42.9703 110.017 43.0754C110.017 43.0754 106.993 43.4433 106.993 46.4394V76.8468H110.017V68.9361H112.042H117.695C119.93 68.9361 121.981 68.3842 123.664 67.4381C128.108 65.283 128.45 60.8415 128.45 55.6904C128.45 54.2449 128.371 52.7995 128.16 51.4328ZM125.058 61.3671C124.663 62.7863 123.901 64.0215 122.691 64.9151C122.586 64.9677 122.507 65.0465 122.402 65.0991C121.219 65.8612 119.641 66.308 117.564 66.308H109.964C109.964 66.308 109.886 54.3238 109.859 48.3317C109.859 45.6247 111.2 45.8612 115.092 45.7298H117.38C122.139 45.7298 124.505 48.0426 125.189 51.17C125.242 51.3803 125.347 51.9585 125.347 52.011C125.505 53.1937 125.557 54.4552 125.557 55.743C125.557 57.8717 125.557 59.6326 125.058 61.3409C125.058 61.3409 125.058 61.3409 125.058 61.3671C125.058 61.3671 125.058 61.3409 125.058 61.3671Z" fill="#383838"/>
<path d="M19.8788 45.6767H10.886C8.83502 45.6767 7.25734 46.1235 6.04778 46.8856C5.94261 46.9382 5.86372 47.017 5.75854 47.0696C4.54899 47.9369 3.78644 49.1721 3.39202 50.6176V50.6438C2.89242 52.3521 2.89242 54.113 2.89242 56.2417C2.89242 57.5295 2.94501 58.791 3.10278 59.9737C3.10278 60.0262 3.20796 60.6044 3.26055 60.8147C3.94421 63.9684 6.31073 66.2549 11.0701 66.2549H19.8788V68.9618H10.7545C7.80953 68.9618 5.15376 67.9894 3.28684 66.4389C3.20796 66.36 3.12907 66.3074 3.07648 66.2286C2.94501 66.1235 2.83983 66.0184 2.73465 65.9132C1.9984 65.2036 1.4725 64.5203 1.05179 63.4691C1.02549 63.4165 1.02549 63.3902 0.999199 63.3377C0.657368 62.4967 0.341831 60.7884 0.289242 60.4467C0.0788842 59.1852 0 57.7135 0 56.2155C0 51.0906 0.368126 46.6491 4.78564 44.4678C6.4685 43.5216 8.51949 42.9697 10.7545 42.9697H19.9051L19.8788 45.6767Z" fill="#383838"/>
<path d="M41.125 64.3105L40.862 63.6272C40.5202 64.1002 40.0995 64.5207 39.5736 64.8887C39.4684 64.9412 39.3895 65.0201 39.2844 65.0726C38.1011 65.8348 36.5234 66.2816 34.4461 66.2816H32.8947H32.5003H30.9489C28.8979 66.2816 27.3203 65.8348 26.1107 65.0726C26.0055 65.0201 25.9266 64.9412 25.8215 64.8887C24.6119 64.0214 23.8494 62.7862 23.4549 61.3407V61.3144C22.9553 59.6061 22.9553 57.8453 22.9553 55.7165C22.9553 54.4287 23.0079 53.1672 23.1657 51.9846C23.1657 51.932 23.2709 51.3538 23.3235 51.1436C24.0071 47.9898 26.3736 45.7034 31.133 45.7034H32.5003H32.8947H34.2621C39.0214 45.7034 41.3879 48.0161 42.0716 51.1436C42.1242 51.3538 42.2294 51.932 42.2294 51.9846C42.2557 52.0897 42.2557 52.2211 42.2557 52.3525L45.0166 51.3538C44.9377 50.8808 44.6222 49.3565 44.3066 48.568C44.2804 48.5155 44.2804 48.4892 44.2541 48.4366C43.8333 47.3854 43.3074 46.7021 42.5712 45.9925C42.466 45.8873 42.3345 45.7822 42.2294 45.6771C42.1505 45.6245 42.0979 45.5457 42.019 45.4668C40.1521 43.9163 37.5226 42.9438 34.5513 42.9438H32.8684H32.474H30.7912C27.8462 42.9438 25.1904 43.9163 23.3235 45.4668C23.2446 45.5457 23.1657 45.5982 23.1131 45.6771C22.9816 45.7822 22.8765 45.8873 22.7713 45.9925C22.035 46.7021 21.5091 47.3854 21.0884 48.4366C21.0621 48.4892 21.0621 48.5155 21.0358 48.568C20.694 49.409 20.3785 51.1173 20.3259 51.459C20.1155 52.8256 20.0366 54.2711 20.0366 55.7954C20.0366 60.9202 20.4047 65.3617 24.8223 67.5431C26.5051 68.4892 28.5561 69.0411 30.7912 69.0411H32.474H32.8684H34.5513C36.7864 69.0411 38.8373 68.4892 40.5202 67.5431C41.0461 67.2803 41.5194 66.9912 41.9401 66.6758L41.125 64.3105Z" fill="#383838"/>
<path d="M134.129 35.9004H130.921V42.97H127.871V45.7296H130.921V62.8124C130.816 66.6231 133.314 68.0686 134.55 68.5679C134.971 68.7256 135.891 68.7782 135.891 68.7782H140.782V66.2815H138.047C133.814 66.5443 134.077 61.8925 134.077 61.8925L134.129 45.7296H140.808V42.97H134.129V35.9004Z" fill="#383838"/>
<path d="M150.406 54.113C146.724 53.3508 144.963 51.9053 144.963 49.908C144.963 47.5427 145.699 45.6241 149.038 45.7555H161.712V42.9697H148.723C144.095 42.9697 142.044 46.0446 141.86 49.7766C141.65 54.2706 145.988 55.9789 150.406 56.925C157.032 58.318 160.845 59.0801 161.239 61.5768C161.66 64.0735 160.976 66.5177 156.559 66.3074L142.754 66.3337L142.78 68.7779L156.611 68.8042C162.107 68.8042 164 66.2812 164 62.4178C163.974 58.134 161.134 56.3469 150.406 54.113Z" fill="#383838"/>
<path d="M83.0646 57.1879C80.6718 59.9211 77.9634 59.7109 77.9634 59.7109C72.4153 59.5795 72.389 54.2707 72.389 54.2707C72.389 47.385 80.4877 48.7779 82.118 49.1458C82.1969 49.1721 82.2495 49.1721 82.2758 49.1721C82.3547 49.1984 79.0415 40.2891 79.0415 40.2891L78.726 40.2628C78.6734 40.2628 78.6208 40.2628 78.5682 40.2365C67.1826 39.3166 64.6583 47.6741 64.6583 47.6741L64.5269 48.0683L63.2647 44.678L54.64 47.8318L59.1101 59.9737L46.0417 50.9329L37.417 54.0604L41.1245 64.2575L42.1237 66.9645L46.8568 80L55.5078 76.8725L51.0377 64.5729L64.1324 73.745L72.7308 70.5913L71.5475 67.3324L72.0208 67.5952C77.2798 70.3285 82.4336 68.0946 85.4049 66.2286C86.4041 65.5979 87.1403 65.0197 87.561 64.678C87.7977 64.4678 87.8503 64.4152 87.8503 64.4152L85.773 58.8699L84.4582 55.1905L84.3531 55.3482C83.9586 56.0841 83.5116 56.6885 83.0646 57.1879Z" fill="#383838"/>
<path d="M88.692 65.0995C88.692 65.0732 88.692 65.0732 88.692 65.0995C88.5868 65.0206 88.5079 64.9681 88.4027 64.9155C88.1661 64.7578 87.982 64.5739 87.7717 64.3899L87.8243 64.5213C87.8243 64.5213 87.7717 64.5739 87.535 64.7841C87.1406 65.1258 86.4306 65.6514 85.5366 66.2559C86.0625 66.7552 86.6936 67.1757 87.4561 67.5436C89.139 68.4898 91.19 69.0417 93.425 69.0417H104.258V66.3347H93.5565C91.4792 66.3084 89.9015 65.8616 88.692 65.0995Z" fill="#383838"/>
<path d="M104.942 52.5365V52.5102C104.942 52.0897 104.916 51.7743 104.916 51.5378C104.916 51.4064 104.89 51.275 104.89 51.1436C104.89 51.1436 104.89 51.1173 104.89 51.091C104.863 50.9333 104.863 50.8019 104.811 50.6705C104.653 50.0135 104.469 49.1199 104.232 48.568C104.206 48.5155 104.206 48.4892 104.18 48.4366C103.759 47.3854 103.233 46.7021 102.497 45.9925C102.392 45.8873 102.26 45.7822 102.155 45.6771C102.076 45.6245 102.023 45.5457 101.945 45.4668C100.288 44.1002 98.0266 43.1804 95.5023 42.9964L94.5031 42.9438H93.425L92.4258 42.9964C89.8752 43.1804 87.6139 44.1002 85.9836 45.4668C85.9047 45.5457 85.8258 45.5982 85.7733 45.6771C85.6418 45.7822 85.5366 45.8873 85.4314 45.9925C84.6952 46.7021 84.1693 47.3854 83.7486 48.4366C83.7223 48.4892 83.7223 48.5155 83.696 48.568C83.3541 49.409 83.0386 51.1173 82.986 51.459C82.7757 52.8256 82.6968 54.2711 82.6968 55.7954C82.6968 56.4261 82.6968 57.0306 82.7231 57.635C82.8545 57.5036 82.986 57.3722 83.1175 57.2145C83.5645 56.7152 84.0115 56.1107 84.4059 55.3749L84.4585 55.1909L85.6155 58.476C85.5892 57.9767 85.5629 57.4774 85.5629 56.9517C89.3493 56.9517 99.2887 56.9517 101.892 56.9517C102.365 56.9517 103.049 56.8203 103.364 56.6364C103.785 56.4261 104.18 56.0845 104.6 55.2697C104.89 54.7178 104.968 53.6929 104.968 52.773C104.942 52.6942 104.942 52.6416 104.942 52.5365ZM102.207 53.3249C102.155 53.9294 102.023 54.6916 100.709 54.7178C99.8672 54.7441 88.7183 54.7178 85.5892 54.7178C85.6155 53.7717 85.6681 52.8519 85.7733 51.9846C85.7733 51.932 85.8784 51.3538 85.931 51.1436C86.6147 47.9898 88.9812 45.7034 93.7406 45.7034H94.1876C98.9469 45.7034 101.313 48.0161 101.997 51.1436C102.05 51.3538 102.155 51.932 102.155 51.9846C102.181 52.116 102.234 53.0621 102.234 53.1935C102.207 53.2461 102.207 53.2724 102.207 53.3249Z" fill="#383838"/>
<path d="M161.713 0H153.456V33.8239H161.713V0Z" fill="#383838"/>
<path d="M16.8022 9.04053C13.0683 9.04053 10.0182 10.8802 8.38789 13.5346V9.51359H0.131348V33.8237H8.38789V22.2337V20.6305C8.62454 18.239 10.3863 16.9512 10.7018 16.7146C11.4644 16.1627 12.4373 15.7948 13.5417 15.7948C16.4078 15.7948 17.6699 17.2403 17.9329 19.1588C17.9855 19.2639 17.9855 19.9735 17.9855 20.0524V25.4663V33.85H26.242V18.8697C26.242 18.7909 26.1631 16.9775 26.1368 16.9249C25.8739 12.4834 23.2444 9.04053 16.8022 9.04053Z" fill="#383838"/>
<path d="M95.2135 21.1037V22.7331C94.9768 25.1247 93.2151 26.4125 92.8996 26.649C92.137 27.2009 91.1641 27.5689 90.0597 27.5689C87.1936 27.5689 85.9315 26.1234 85.6685 24.2049C85.6422 24.0997 85.6159 23.3902 85.6159 23.3113V17.8974V9.51367H77.3594V24.4677C77.3594 24.5465 77.4383 26.3599 77.4646 26.4125C77.7538 30.854 80.357 34.2969 86.8255 34.2969C90.5593 34.2969 93.6095 32.4572 95.2398 29.8028V33.8238H103.496V9.51367H95.2398V21.1037H95.2135Z" fill="#383838"/>
<path d="M123.112 9.04053C122.928 9.04053 122.56 9.06681 122.56 9.06681C119.22 9.645 117.275 11.8001 116.012 14.507V9.51359H107.756V33.8237H116.012V25.0458C116.012 25.0458 115.907 23.101 116.749 21.419C116.933 21.051 117.169 20.6831 117.459 20.3414C117.459 20.3414 118.8 18.5018 121.534 17.9499C122.823 17.687 123.769 17.6345 123.769 17.6345V9.04053H123.112Z" fill="#383838"/>
<path d="M72.4946 27.648C72.1265 27.7794 71.732 27.9108 71.3639 27.9633C70.6014 28.0685 69.234 28.305 68.4189 27.2012C68.0245 26.6756 67.446 25.598 67.446 23.3116V16.0579H73.3886V9.51392H67.446V8.6992V3.02246L59.2946 5.96596V6.54414V9.51392H55.1138V16.0579H59.2946V24.8096C59.2946 25.5192 59.4524 27.7268 59.8205 28.8043C60.7671 32.0895 63.5018 34.4548 68.7344 34.4811C68.7607 34.4811 68.7607 34.4811 68.787 34.4811C68.8133 34.4811 68.8396 34.4811 68.8659 34.4811C70.8117 34.4548 72.889 33.9817 74.5456 33.2721L72.4946 27.648Z" fill="#383838"/>
<path d="M149.748 30.197C149.59 29.724 149.143 27.9894 149.038 26.4914V18.1603C149.038 16.6359 148.644 14.2706 147.382 12.5361C146.724 11.6162 145.83 10.8015 144.621 10.197C143.753 9.77655 141.492 8.93555 138.599 8.93555C135.365 8.93555 132.998 9.46117 132.473 9.5663C130.711 9.9868 129.554 10.4073 128.897 10.6964L127.398 11.2483L127.95 12.7463L129.186 16.1892C129.212 16.2154 129.212 16.268 129.238 16.2943L129.475 16.9776L130.106 16.7411C130.159 16.7411 130.211 16.7148 130.29 16.6885C130.29 16.6885 133.603 15.4533 136.128 15.2693C140.992 14.9277 141.202 18.2391 141.202 18.7384V18.791V19.0275C140.466 18.9224 137.074 18.2391 133.551 18.8173C128.765 19.6057 125.715 22.7595 125.715 26.7016C125.715 30.9855 128.581 34.4283 134.103 34.4283C137.442 34.4283 140.23 33.0617 141.702 30.8804C141.728 30.8804 141.755 30.9066 141.755 30.9066C142.149 31.6688 142.491 32.2995 142.806 32.7989V32.8252C142.833 32.8514 142.833 32.8777 142.859 32.904C142.938 33.0354 143.043 33.1668 143.148 33.3245L144.226 34.8751L145.673 34.3495L148.276 33.4296L150.669 32.5624L149.748 30.197ZM140.23 26.9645C139.52 28.1734 138.179 28.8567 136.969 28.9093C134.865 29.0144 133.708 28.042 133.261 26.7542C133.261 26.7542 132.814 25.0985 134.234 23.9421C136.627 21.9973 141.176 23.4691 141.176 23.4691C141.176 23.4691 141.176 25.7292 140.23 26.9645Z" fill="#383838"/>
<path d="M53.0627 30.197C52.9049 29.724 52.4579 27.9894 52.3527 26.4914V18.1603C52.3527 16.6359 51.9583 14.2706 50.6961 12.5361C50.0125 11.5899 49.1185 10.7752 47.9352 10.197C47.0675 9.77655 44.8061 8.93555 41.9137 8.93555C38.6795 8.93555 36.3129 9.46117 35.787 9.5663C34.0253 9.9868 32.8683 10.4073 32.211 10.6964L30.7122 11.2483L31.2643 12.7463L32.5002 16.1892C32.5265 16.2154 32.5265 16.268 32.5528 16.2943L32.7894 16.9776L33.4205 16.7411C33.4731 16.7411 33.5257 16.7148 33.6046 16.6885C33.6046 16.6885 36.9177 15.4533 39.442 15.2693C44.3065 14.9277 44.5169 18.2391 44.5169 18.7384V18.791V19.0275C43.7806 18.9224 40.3886 18.2391 36.8651 18.8173C32.0795 19.6057 29.0293 22.7595 29.0293 26.7016C29.0293 30.9855 31.8954 34.4283 37.4173 34.4283C40.7567 34.4283 43.544 33.0617 45.0165 30.8804C45.0428 30.8804 45.0691 30.9066 45.0691 30.9066C45.4635 31.6688 45.8053 32.2995 46.1209 32.7989V32.8252C46.1472 32.8514 46.1472 32.8777 46.1735 32.904C46.2523 33.0354 46.3575 33.1668 46.4627 33.3245L47.5408 34.8751L48.987 34.3495L51.5902 33.4296L53.983 32.5624L53.0627 30.197ZM43.5177 26.9645C42.8077 28.1734 41.4667 28.8567 40.2571 28.9093C38.1536 29.0144 36.9966 28.042 36.5496 26.7542C36.5496 26.7542 36.1026 25.0985 37.5225 23.9421C39.9153 21.9973 44.4643 23.4691 44.4643 23.4691C44.4643 23.4691 44.4906 25.7292 43.5177 26.9645Z" fill="#383838"/>
</svg>
