<svg width="76" height="57" viewBox="0 0 76 57" fill="none" xmlns="http://www.w3.org/2000/svg">
<path d="M19.2488 28.6296L17.8708 26.1925H17.756L18.1005 28.6296V36.7886H15V21.1064H17.4115L23.842 29.3713L25.1052 31.8084H25.22L24.8755 29.3713V21.2124H27.976V36.8945H25.6794L19.2488 28.6296Z" fill="#383838"/>
<path d="M30.9609 21.2119H40.9513V23.9669H34.2911V27.5695H40.3772V30.3245H34.2911V34.1391H41.181V36.894H31.0758V21.2119H30.9609Z" fill="#383838"/>
<path d="M47.9564 29.9007L48.3009 32.6556H48.4158L48.7603 29.7947L51.7459 21.106H53.9277L56.7985 29.7947L57.143 32.5497H57.2578L57.6023 29.6887L59.6693 21H62.9994L58.2913 36.6821H56.1095L53.1239 27.9934L52.6645 25.5563H52.5497L52.0904 28.3113L49.1048 37H46.8081L42.2148 21.3179H45.7746L47.9564 29.9007Z" fill="#383838"/>
<path d="M12.555 54.8C-1.51834 40.1985 -1.51834 16.6015 12.555 2" stroke="#383838" stroke-width="3.2974" stroke-miterlimit="10" stroke-linecap="round" stroke-linejoin="round"/>
<path d="M63.4453 2C77.5187 16.6015 77.5187 40.1985 63.4453 54.8" stroke="#383838" stroke-width="3.2974" stroke-miterlimit="10" stroke-linecap="round" stroke-linejoin="round"/>
</svg>
