<svg width="70" height="50" viewBox="0 0 70 50" fill="none" xmlns="http://www.w3.org/2000/svg">
<path d="M16.874 19.4644H16.374V19.9644V44.8307C16.374 47.0682 18.1155 48.8066 20.3543 48.8066H48.1966C50.4354 48.8066 52.1769 47.0682 52.1769 44.8307V25.6684C52.1769 25.4423 52.3655 25.2772 52.5693 25.2772C52.6543 25.2772 52.7221 25.3092 52.772 25.3627C52.8223 25.4169 52.8724 25.5141 52.8724 25.6684V44.7415C52.8724 47.4005 50.6929 49.5 48.1073 49.5H20.265C17.6012 49.5 15.5 47.3224 15.5 44.7415V16.934C15.5 14.2751 17.6794 12.1756 20.265 12.1756H25.5301H26.0301V11.6756V9.35829C26.0301 8.47638 26.7873 7.71925 27.6718 7.71925H32.0445H32.5445V7.21925C32.5445 6.33734 33.3017 5.58021 34.1862 5.58021C35.0707 5.58021 35.8279 6.33734 35.8279 7.21925V7.71925H36.3279H40.7006C41.5851 7.71925 42.3423 8.47638 42.3423 9.35829V11.6756V12.1756H42.8423H44.5378C44.7657 12.1756 44.9302 12.3649 44.9302 12.5668C44.9302 12.793 44.7415 12.9581 44.5378 12.9581H42.8423H42.3423V13.4581V13.7255C42.3423 14.6074 41.5851 15.3645 40.7006 15.3645H27.6718C26.7873 15.3645 26.0301 14.6074 26.0301 13.7255V13.4581V12.9581H25.5301H20.3543C18.1155 12.9581 16.374 14.6965 16.374 16.934V18.1818V18.6818H16.874H37.1311C37.359 18.6818 37.5234 18.8712 37.5234 19.0731C37.5234 19.2992 37.3348 19.4644 37.1311 19.4644H16.874ZM27.7611 8.94741H27.2611V9.44741V13.8146V14.3146H27.7611H40.7898H41.2898V13.8146V9.44741V8.94741H40.7898H27.7611ZM60.3286 1.60233L60.3394 1.59158L60.3495 1.58018C60.9509 0.904524 61.9638 0.5 63.0101 0.5C65.1543 0.5 66.8724 2.15434 66.7939 4.34933L66.7935 4.35826V4.3672C66.7935 5.39376 66.3997 6.33582 65.6909 7.04373L45.8144 26.8953L39.2582 27.9998L40.3637 21.4536L60.3286 1.60233ZM44.8056 26.3387L45.2163 26.2641V25.8467V22.6381V22.1381H44.7163H41.5037H41.0865L41.0118 22.5486L40.2979 26.4702L40.1685 27.1807L40.8792 27.0517L44.8056 26.3387ZM46.0011 24.5098V25.7158L46.8544 24.8636L62.9173 8.8208L63.2715 8.46702L62.9173 8.11325L59.2585 4.45906L58.9052 4.10617L58.5518 4.45906L42.489 20.5018L41.6341 21.3556H42.8423H46.0011V24.5098ZM63.3707 7.66215L63.724 8.01504L64.0774 7.66215L65.2374 6.5035C65.7549 5.98666 66.1873 5.24179 66.1873 4.27807C66.1873 2.57532 64.8027 1.1934 63.0993 1.1934C62.233 1.1934 61.3969 1.61757 60.872 2.14177L59.7119 3.30041L59.3577 3.65419L59.7119 4.00796L63.3707 7.66215ZM33.4723 28.4661H22.6745C22.3519 28.4661 22.1036 28.1819 22.1036 27.8966C22.1036 27.5495 22.3254 27.3271 22.6745 27.3271H33.4723C33.8214 27.3271 34.0431 27.5495 34.0431 27.8966C34.0431 28.2438 33.8214 28.4661 33.4723 28.4661ZM46.5903 33.8333C46.9394 33.8333 47.1612 34.0557 47.1612 34.4029C47.1612 34.5054 47.1057 34.6482 46.9717 34.775C46.8409 34.8987 46.6703 34.9724 46.5011 34.9724H22.6745C22.3254 34.9724 22.1036 34.75 22.1036 34.4029C22.1036 34.0557 22.3254 33.8333 22.6745 33.8333H46.5903ZM22.1036 40.82C22.1036 40.4728 22.3254 40.2504 22.6745 40.2504H42.2176C42.5667 40.2504 42.7885 40.4728 42.7885 40.82C42.7885 41.1671 42.5667 41.3895 42.2176 41.3895H22.6745C22.3254 41.3895 22.1036 41.1671 22.1036 40.82Z" fill="#383838" stroke="#383838"/>
</svg>
