<svg width="27" height="44" viewBox="0 0 27 44" fill="none" xmlns="http://www.w3.org/2000/svg">
<path d="M3 1.5L23.4 1.5C24.2284 1.5 24.9 2.17157 24.9 3L24.9 41C24.9 41.8284 24.2284 42.5 23.4 42.5L3 42.5C2.17157 42.5 1.5 41.8284 1.5 41L1.5 3C1.5 2.17157 2.17157 1.5 3 1.5Z" stroke="#383838" stroke-width="3" stroke-linejoin="round"/>
<circle cx="13.3108" cy="36.6666" r="1.76" fill="#383838"/>
<path d="M9.42578 4.17859L17.5913 4.17859" stroke="#383838" stroke-width="3" stroke-miterlimit="10" stroke-linecap="square"/>
<path d="M15.6294 27.1723C15.2143 27.1723 14.9376 27.0295 14.6608 26.8867C14.5225 26.744 14.3841 26.4584 14.3841 26.0301C14.3841 25.8873 14.3841 25.6018 14.5225 25.3162C14.5225 25.0307 14.6608 24.7451 14.6608 24.4596L15.491 21.4614C15.6294 21.1758 15.6294 20.8903 15.6294 20.6047C15.6294 20.3192 15.6294 20.0336 15.6294 19.8909C15.6294 19.3198 15.3526 18.7487 14.9376 18.3204C14.5225 17.892 13.8306 17.7493 13.0004 17.7493C12.5853 17.7493 12.0319 17.892 11.6168 18.0348C11.0633 18.1776 10.5099 18.3204 9.95641 18.6059L9.67969 19.6053C9.81805 19.6053 10.0948 19.4625 10.2331 19.4625C10.5099 19.4625 10.6482 19.3198 10.925 19.3198C11.3401 19.3198 11.6168 19.4625 11.8935 19.6053C12.0319 19.7481 12.1703 20.0336 12.1703 20.462C12.1703 20.6047 12.1703 20.8903 12.0319 21.1758C12.0319 21.4614 11.8935 21.7469 11.8935 22.0325L11.2017 24.8879C11.0633 25.1735 11.0633 25.459 11.0633 25.7446C11.0633 26.0301 11.0633 26.1729 11.0633 26.4584C11.0633 27.0295 11.3401 27.6006 11.7552 28.0289C12.1703 28.4572 12.8621 28.6 13.6923 28.6C14.2457 28.6 14.6608 28.6 15.0759 28.4572C15.491 28.3145 16.0445 28.1717 16.7363 27.8861L17.013 26.8867C16.8747 26.8867 16.7363 27.0295 16.4596 27.0295C16.0445 27.1723 15.7677 27.1723 15.6294 27.1723ZM15.0759 12.4667C14.5225 12.4667 14.1074 12.6094 13.6923 13.0378C13.2772 13.4661 13.1388 13.8944 13.1388 14.3227C13.1388 14.8938 13.2772 15.3221 13.6923 15.6077C14.1074 16.036 14.5225 16.1788 15.0759 16.1788C15.6294 16.1788 16.0445 16.036 16.4596 15.6077C16.8747 15.1794 17.013 14.751 17.013 14.3227C17.013 13.7516 16.8747 13.3233 16.4596 13.0378C16.0445 12.6094 15.6294 12.4667 15.0759 12.4667Z" fill="#383838"/>
</svg>
