<svg width="37" height="49" viewBox="0 0 37 49" fill="none" xmlns="http://www.w3.org/2000/svg">
<path d="M18.28 1C8.695 1 1 8.77273 1 18.4545C1 30.2233 12.8998 43.4946 16.9494 47.6701C17.6889 48.4326 18.8711 48.4326 19.6106 47.6701C23.6602 43.4946 35.56 30.2233 35.56 18.4545C35.56 8.90909 27.865 1 18.28 1ZM18.28 45.8636C18.28 45.8636 3.16 31.6818 3.16 18.5909C3.16 10.1364 9.91 3.31818 18.28 3.31818C26.65 3.31818 33.4 10.1364 33.4 18.5909C33.4 31.6818 18.28 45.8636 18.28 45.8636Z" fill="#383838" stroke="#383838"/>
<path d="M22.2223 23.019C22.9721 23.019 23.6318 22.609 23.9717 21.989L27.5504 15.499C27.9202 14.839 27.4404 14.019 26.6807 14.019L11.8862 14.019L10.9465 12.019H7.67773V14.019H9.67699L13.2757 21.609L11.9262 24.049C11.1964 25.389 12.1561 27.019 13.6755 27.019L25.6711 27.019L25.6711 25.019L13.6755 25.019L14.7751 23.019L22.2223 23.019ZM12.8358 16.019L24.9813 16.019L22.2223 21.019L15.2049 21.019L12.8358 16.019ZM13.6755 28.019C12.5759 28.019 11.6862 28.919 11.6862 30.019C11.6862 31.119 12.5759 32.019 13.6755 32.019C14.7751 32.019 15.6748 31.119 15.6748 30.019C15.6748 28.919 14.7751 28.019 13.6755 28.019ZM23.6718 28.019C22.5722 28.019 21.6825 28.919 21.6825 30.019C21.6825 31.119 22.5722 32.019 23.6718 32.019C24.7714 32.019 25.6711 31.119 25.6711 30.019C25.6711 28.919 24.7714 28.019 23.6718 28.019Z" fill="#383838"/>
</svg>
