<svg width="47" height="34" viewBox="0 0 47 34" fill="none" xmlns="http://www.w3.org/2000/svg">
<g clip-path="url(#clip0_1_418)">
<path d="M46.8621 5.32418C46.3117 3.22875 44.724 1.59414 42.6888 1.02747C39.0295 0 24.3018 0 24.3018 0C24.3018 0 9.57406 0.0311356 5.91481 1.05861C3.88257 1.62527 2.29185 3.25989 1.74145 5.35531C0.634602 12.0495 0.205169 22.2495 1.77169 28.6758C2.32209 30.7712 3.90978 32.4059 5.94505 32.9725C9.6043 34 24.332 34 24.332 34C24.332 34 39.0598 34 42.719 32.9725C44.7543 32.4059 46.342 30.7712 46.8924 28.6758L46.8621 5.32418ZM19.6143 24.2857V9.71429L31.832 17L19.6143 24.2857Z" fill="white"/>
</g>
<defs>
<clipPath id="clip0_1_418">
<rect width="46.1429" height="34" fill="white" transform="translate(0.75)"/>
</clipPath>
</defs>
</svg>
