<svg width="50" height="53" viewBox="0 0 50 53" fill="none" xmlns="http://www.w3.org/2000/svg">
<path d="M3.19984 25.2226L25.3746 3.19848C25.7055 2.86976 26.2572 2.97933 26.4778 3.30805L41.5919 27.5237C41.8126 27.7428 41.7023 28.1811 41.4816 28.4003L28.5739 41.2203C28.3533 41.4394 28.0223 41.4394 27.6913 41.3299L3.31016 26.3184C2.97919 26.0992 2.86887 25.5514 3.19984 25.2226Z" stroke="#808080" stroke-width="4" stroke-miterlimit="10" stroke-linecap="round"/>
<path d="M42 33L33 42" stroke="#808080" stroke-width="4" stroke-miterlimit="10" stroke-linecap="round"/>
<path d="M27.8028 42.4395C25.9273 42.4395 24.3828 43.9735 24.3828 45.8362V46.6032C24.3828 48.466 25.9273 50 27.8028 50H43.5789C45.4543 50 46.9989 48.466 46.9989 46.6032V45.8362C46.9989 43.9735 45.4543 42.4395 43.5789 42.4395" stroke="#808080" stroke-width="4" stroke-miterlimit="10" stroke-linecap="round"/>
<path d="M44 35L35 44" stroke="#808080" stroke-width="4" stroke-miterlimit="10" stroke-linecap="round"/>
<path d="M9.82031 18.6483C7.39323 16.2377 7.39323 12.1835 9.82031 9.77287L9.93064 9.6633C12.3577 7.2527 16.4396 7.2527 18.8667 9.6633" stroke="#808080" stroke-width="4" stroke-miterlimit="10" stroke-linecap="round"/>
</svg>
