<svg width="360" height="160" viewBox="0 0 360 160" fill="none" xmlns="http://www.w3.org/2000/svg">
<path fill-rule="evenodd" clip-rule="evenodd" d="M359.386 158.048C358.359 145.498 354.686 133.978 348.369 123.488C340.978 110.805 330.969 100.752 318.343 93.328C305.717 85.7493 291.782 81.96 276.538 81.96C261.756 81.96 248.052 85.7493 235.426 93.328C222.8 100.907 212.637 111.037 204.939 123.72C198.177 134.859 194.384 146.952 193.561 160H224.147C224.893 152.535 227.19 145.623 231.038 139.264C235.965 131.221 242.355 124.803 250.208 120.008C258.215 115.213 266.991 112.816 276.538 112.816C285.931 112.816 294.63 115.213 302.637 120.008C310.644 124.803 317.034 131.221 321.807 139.264C325.656 145.623 327.953 152.535 328.698 160H359.386V158.048ZM276.961 0L117.437 160H71.2528L230.896 0H276.961ZM0 2.09525e-09C1.66853 9.51318 4.92595 18.4278 9.77225 26.744C17.3171 39.272 27.4027 49.3253 40.0288 56.904C52.655 64.328 66.5899 68.04 81.8337 68.04C97.0774 68.04 110.935 64.328 123.408 56.904C136.034 49.3253 146.119 39.272 153.664 26.744C158.611 18.4278 161.937 9.51318 163.64 2.09525e-09L131.988 0C130.814 3.80319 129.186 7.45919 127.103 10.968C122.33 18.856 115.94 25.1973 107.933 29.992C100.08 34.7867 91.3803 37.184 81.8337 37.184C72.2871 37.184 63.5104 34.7867 55.5035 29.992C47.6507 25.1973 41.3376 18.856 36.5643 10.968C34.4819 7.45919 32.8537 3.80319 31.6797 0L0 2.09525e-09Z" fill="#B3B3B3"/>
</svg>
