<svg width="64" height="64" viewBox="0 0 64 64" fill="none" xmlns="http://www.w3.org/2000/svg">
<g clip-path="url(#clip0_17_231)">
<path d="M2.18914 1.3335H41.5936C42.1087 1.3335 42.6238 1.88641 42.495 2.43933L34.1248 40.0376C33.996 40.4523 33.7384 40.7287 33.2233 40.7287H10.4306C10.0443 40.7287 9.65796 40.4523 9.52918 40.0376L1.28773 2.43933C1.15896 1.88641 1.54528 1.3335 2.18914 1.3335Z" stroke="#383838" stroke-width="2" stroke-miterlimit="10"/>
<path d="M64.1449 63.4817C59.6859 63.4817 56.1449 59.6811 56.1449 54.8952V24.0682C56.1449 19.2823 59.6859 15.4817 64.1449 15.4817V63.4817Z" fill="#383838"/>
<path d="M21.8914 44.4611C21.8914 52.893 28.2012 59.6663 36.0563 59.6663H39.0181C46.8732 59.6663 53.1831 52.893 53.1831 44.4611V35.8909" stroke="#383838" stroke-width="2" stroke-miterlimit="10"/>
</g>
<defs>
<clipPath id="clip0_17_231">
<rect width="64" height="64" fill="white"/>
</clipPath>
</defs>
</svg>
