<svg width="70" height="70" viewBox="0 0 70 70" fill="none" xmlns="http://www.w3.org/2000/svg">
<path d="M10 70C10 65.541 14.1127 62 19.2916 62L47.7084 62C52.8873 62 57 65.541 57 70L10 70Z" fill="#383838"/>
<path d="M40.4289 34.9951H10.8042C10.4362 34.9951 10.0682 34.6177 10.2522 34.2403L16.5083 7.25581C16.5083 6.8784 16.8763 6.6897 17.0603 6.6897H34.3567C34.7247 6.6897 34.9087 6.8784 34.9087 7.25581L40.9809 34.2403C41.1649 34.6177 40.7969 34.9951 40.4289 34.9951Z" stroke="#383838" stroke-width="2" stroke-miterlimit="10"/>
<path d="M25.6166 2H40.7652C49.4523 2 56.6643 9.01381 56.6643 17.8219L56.6643 62" stroke="#383838" stroke-width="2" stroke-miterlimit="10"/>
</svg>
