<svg width="58" height="60" viewBox="0 0 58 60" fill="none" xmlns="http://www.w3.org/2000/svg">
<g clip-path="url(#clip0_17_250)">
<path d="M2.24527 29.0199L29.4611 1.25026C29.8673 0.835785 30.5444 0.973942 30.8152 1.38841L49.3653 31.9212C49.6361 32.1975 49.5007 32.7501 49.2299 33.0264L33.3878 49.1908C33.117 49.4671 32.7108 49.4671 32.3046 49.329L2.38067 30.4014C1.97446 30.1251 1.83906 29.4343 2.24527 29.0199Z" stroke="#383838" stroke-width="2" stroke-miterlimit="10"/>
<path d="M51.6671 36.4805L36.7728 51.6778" stroke="#383838" stroke-width="2" stroke-miterlimit="10"/>
<path d="M32.44 49.4672C30.1382 49.4672 28.2426 51.4014 28.2426 53.75V54.7171C28.2426 57.0658 30.1382 59 32.44 59H51.8026C54.1044 59 56 57.0658 56 54.7171V53.75C56 51.4014 54.1044 49.4672 51.8026 49.4672H48.1467" stroke="#383838" stroke-width="2" stroke-miterlimit="10"/>
<path d="M54.2397 38.967L39.2101 54.3025" stroke="#383838" stroke-width="2" stroke-miterlimit="10"/>
<path d="M10.3694 20.7304C7.39054 17.691 7.39054 12.5792 10.3694 9.5397L10.5048 9.40154C13.4836 6.36208 18.4935 6.36208 21.4724 9.40154" stroke="#383838" stroke-width="2" stroke-miterlimit="10"/>
</g>
<defs>
<clipPath id="clip0_17_250">
<rect width="58" height="60" fill="white"/>
</clipPath>
</defs>
</svg>
