<svg width="155" height="66" viewBox="0 0 155 66" fill="none" xmlns="http://www.w3.org/2000/svg">
<path d="M91.064 9C91.064 15.7119 87.341 21 83.1684 21H72.9595C68.712 21 65.064 15.7119 65.064 9H91.064Z" fill="#383838"/>
<path d="M76.179 56H79.821C85.2299 56 90.3187 50.9792 91.6851 43.4369L76.179 56ZM76.179 56C70.6731 56 65.6823 50.9845 64.3149 43.4369C64.3149 43.4368 64.3149 43.4368 64.3148 43.4367C64.3148 43.4365 64.3148 43.4364 64.3148 43.4362L63.0029 36.1654C62.9977 36.1245 62.9995 36.0808 63.0082 36.0381C63.0109 36.0244 63.0143 36.0117 63.0179 36H92.9821C92.9857 36.0117 92.989 36.0244 92.9918 36.0381C93.0005 36.0808 93.0023 36.1245 92.9971 36.1654L91.6852 43.4362L76.179 56ZM92.945 35.9226C92.945 35.9226 92.9453 35.9228 92.9458 35.9235L92.945 35.9226Z" stroke="#383838" stroke-width="2" stroke-miterlimit="10"/>
<path d="M78 35.6803V19" stroke="#383838" stroke-width="2" stroke-miterlimit="10"/>
<path d="M57.7541 36.0811L57.7551 36.0884L58.9947 45.3451C59.0141 45.6094 58.9775 45.816 58.9321 45.9406L27.2307 51.7638C27.2304 51.7638 27.23 51.7639 27.2296 51.764C20.2455 53.03 13.1275 49.146 7.16083 40.8393L6.42153 39.7764C6.04706 39.158 5.90674 38.1081 6.06204 37.1579C6.13856 36.6897 6.2733 36.3389 6.40879 36.1341C6.46096 36.0552 6.49861 36.0171 6.51963 36H57.7404C57.7457 36.0246 57.7504 36.0517 57.7541 36.0811ZM6.53905 35.9879C6.53911 35.9885 6.5356 35.9909 6.52831 35.9934C6.53535 35.9886 6.53899 35.9873 6.53905 35.9879Z" stroke="#383838" stroke-width="2" stroke-miterlimit="10"/>
<path d="M98.2434 36.0882L98.2435 36.0882L98.2444 36.081C98.2481 36.0516 98.2528 36.0246 98.2581 36H149.481C149.502 36.0172 149.54 36.0553 149.592 36.1336C149.727 36.3385 149.862 36.6894 149.938 37.1577C150.093 38.1081 149.953 39.1583 149.579 39.7769L148.842 40.8376C142.812 49.1473 135.703 53.0295 128.729 51.7641C128.728 51.764 128.728 51.7639 128.727 51.7638L97.0678 45.9408C97.0224 45.816 96.9859 45.6093 97.0053 45.345L98.2434 36.0882ZM149.462 35.9876C149.462 35.9871 149.466 35.9883 149.473 35.9932C149.465 35.9907 149.462 35.9882 149.462 35.9876Z" stroke="#383838" stroke-width="2" stroke-miterlimit="10"/>
</svg>
