<svg width="60" height="60" viewBox="0 0 60 60" fill="none" xmlns="http://www.w3.org/2000/svg">
<path d="M57 53.7675C53.4822 53.7675 50.6887 50.9967 50.6887 47.5075V25.0329C50.6887 21.5437 53.4822 18.7728 57 18.7728V53.7675Z" fill="#383838"/>
<path d="M32.4724 44.2647H4.64083C4.22698 44.2647 3.91659 43.8542 4.02005 43.5463L9.81399 19.0192C9.91745 18.7114 10.1244 18.5061 10.4348 18.5061H26.575C26.8854 18.5061 27.0923 18.7114 27.1958 19.0192L32.9897 43.5463C33.1967 43.8542 32.8863 44.2647 32.4724 44.2647Z" stroke="#383838" stroke-width="2" stroke-miterlimit="10"/>
<path d="M4.64083 43.5037H32.4724C32.8863 43.5037 33.1967 43.9142 33.0932 44.222L27.2993 58.4867C27.1958 58.7946 26.9889 58.9999 26.6785 58.9999H10.4348C10.1244 58.9999 9.91745 58.7946 9.81399 58.4867L4.02005 44.3247C3.91659 43.9142 4.22698 43.5037 4.64083 43.5037Z" stroke="#383838" stroke-width="2" stroke-miterlimit="10"/>
<path d="M11.4692 43.5459L14.3662 21.0713" stroke="#383838" stroke-width="2" stroke-miterlimit="10"/>
<path d="M22.8501 21.174L25.7471 43.5459" stroke="#383838" stroke-width="2" stroke-miterlimit="10"/>
<path d="M14.2627 56.3318L11.4692 44.2222" stroke="#383838" stroke-width="2" stroke-miterlimit="10"/>
<path d="M25.7471 44.2222L22.8501 56.3318" stroke="#383838" stroke-width="2" stroke-miterlimit="10"/>
<path d="M48.4195 39.7636V14.9124C48.4195 7.2658 42.5613 0.999878 35.2891 0.999878H32.461C25.0877 0.999878 19.2295 7.2658 19.2295 14.9124V16.5054" stroke="#383838" stroke-width="2" stroke-miterlimit="10"/>
</svg>
