<svg width="60" height="80" viewBox="0 0 60 80" fill="none" xmlns="http://www.w3.org/2000/svg">
<path d="M44.3397 65.2971H15.6604C15.2339 65.2971 14.914 64.9216 15.0207 64.6401L20.9911 42.2069C21.0977 41.9253 21.3109 41.7375 21.6308 41.7375H38.2626C38.5825 41.7375 38.7957 41.9253 38.9023 42.2069L44.8727 64.6401C45.086 64.9216 44.7661 65.2971 44.3397 65.2971Z" stroke="#383838" stroke-width="2" stroke-miterlimit="10"/>
<path d="M15.6604 64.8265H44.3396C44.7661 64.8265 45.0859 65.202 44.9793 65.4836L39.0089 78.5305C38.9023 78.8121 38.6891 78.9998 38.3692 78.9998H21.6308C21.3109 78.9998 21.0977 78.8121 20.9911 78.5305L15.0207 65.4836C14.914 65.202 15.2339 64.8265 15.6604 64.8265Z" stroke="#383838" stroke-width="2" stroke-miterlimit="10"/>
<path d="M22.6968 64.6401L25.5754 44.178" stroke="#383838" stroke-width="2" stroke-miterlimit="10"/>
<path d="M34.4243 44.178L37.4095 64.6401" stroke="#383838" stroke-width="2" stroke-miterlimit="10"/>
<path d="M25.5754 77.499L22.6968 66.4232" stroke="#383838" stroke-width="2" stroke-miterlimit="10"/>
<path d="M37.4095 66.4232L34.4243 77.5929" stroke="#383838" stroke-width="2" stroke-miterlimit="10"/>
<path d="M30.053 39.1098V37.2325" stroke="#383838" stroke-width="2" stroke-miterlimit="10"/>
<path d="M30.053 36.3874V10.1997" stroke="#383838" stroke-width="2" stroke-miterlimit="10" stroke-dasharray="3.79 0.95"/>
<path d="M30.053 8.98811V6.91357" stroke="#383838" stroke-width="2" stroke-miterlimit="10"/>
<path d="M25.8955 41.0803C25.8955 39.1092 27.708 37.4197 30.0535 37.4197C32.399 37.4197 34.2114 39.0153 34.2114 41.0803" stroke="#383838" stroke-width="2" stroke-miterlimit="10"/>
<path d="M42.7404 1C42.7404 3.62816 40.3949 5.69314 37.4097 5.69314H22.5902C19.605 5.69314 17.2595 3.62816 17.2595 1H42.7404Z" fill="#383838"/>
</svg>
