<svg width="90" height="66" viewBox="0 0 90 66" fill="none" xmlns="http://www.w3.org/2000/svg">
<path d="M6.71272 23L83.2593 23C83.687 23 84.1146 23.4773 83.972 23.9545L76.8448 57.3636C76.8448 57.8409 76.5597 58 76.1321 58L13.84 58C13.5549 58 13.1272 57.6818 13.1272 57.3636L6 23.9545C6 23.4773 6.28509 23 6.71272 23Z" stroke="#383838" stroke-width="2" stroke-miterlimit="10"/>
<path d="M29.9961 54L25.9961 26" stroke="#383838" stroke-width="2" stroke-miterlimit="10"/>
<path d="M63.9896 26L59.9896 54" stroke="#383838" stroke-width="2" stroke-miterlimit="10"/>
<path d="M25.9952 7H64.0048C65.3463 7 66.2407 8.37143 65.9426 9.91429L64.452 17.2857C64.3029 18.3143 63.4086 19 62.5142 19H27.4858C26.5914 19 25.6971 18.3143 25.548 17.1143L24.0574 9.74286C23.7593 8.37143 24.6537 7 25.9952 7Z" fill="#383838"/>
</svg>
