<svg width="90" height="66" viewBox="0 0 90 66" fill="none" xmlns="http://www.w3.org/2000/svg">
<path d="M83.2873 58.2564H6.74068C6.31305 58.2564 5.88542 57.7756 6.02796 57.2949L13.1552 23.641C13.1552 23.1603 13.4403 23 13.8679 23H76.16C76.4451 23 76.8728 23.3205 76.8728 23.641L84 57.2949C84 57.7756 83.7149 58.2564 83.2873 58.2564Z" stroke="#383838" stroke-width="2" stroke-miterlimit="10"/>
<path d="M25.9952 7H64.0048C65.3463 7 66.2407 8.37143 65.9426 9.91429L64.452 17.2857C64.3029 18.3143 63.4086 19 62.5142 19H27.4858C26.5914 19 25.6971 18.3143 25.548 17.1143L24.0574 9.74286C23.7593 8.37143 24.6537 7 25.9952 7Z" fill="#383838"/>
</svg>
