<svg width="150" height="66" viewBox="0 0 150 66" fill="none" xmlns="http://www.w3.org/2000/svg">
<path d="M69.72 6H80.28C83.96 6 87 8.81481 87 12.2222V23.7778C87 27.1852 83.96 30 80.28 30H69.72C66.04 30 63 27.1852 63 23.7778V12.2222C63 8.81481 66.04 6 69.72 6Z" stroke="#383838" stroke-width="2" stroke-miterlimit="10"/>
<path d="M75.08 12.1375C78.44 12.1375 81 14.5078 81 17.6189V18.656C81 21.6189 78.44 24.1375 75.08 24.1375H74.92C71.72 24.1375 69 21.7671 69 18.656V17.4708C69.16 14.5078 71.88 12.1375 75.08 12.1375Z" fill="#383838"/>
<path d="M75 23.7988V49.7988" stroke="#383838" stroke-width="2" stroke-miterlimit="10"/>
<path d="M141.978 60H8.02158C6.29496 60 5 58.7143 5 57C5 55.2857 6.29496 54 8.02158 54H141.978C143.705 54 145 55.2857 145 57C145 58.7143 143.705 60 141.978 60Z" stroke="#383838" stroke-width="2" stroke-miterlimit="10"/>
</svg>
