<svg width="62" height="62" viewBox="0 0 62 62" fill="none" xmlns="http://www.w3.org/2000/svg">
<path d="M16.1824 19.2959H45.8176C46.2583 19.2959 46.5888 19.6995 46.4786 20.0022L40.3092 44.1168C40.1991 44.4195 39.9787 44.6213 39.6482 44.6213H22.3518C22.0213 44.6213 21.8009 44.4195 21.6908 44.1168L15.5214 20.0022C15.4112 19.5986 15.7417 19.2959 16.1824 19.2959Z" stroke="#383838" stroke-width="2" stroke-miterlimit="10"/>
<path d="M45.8176 19.6993H16.1824C15.7417 19.6993 15.4112 19.2957 15.5214 18.993L21.8009 4.96823C21.8009 4.66554 22.1315 4.46375 22.3518 4.46375H39.538C39.8685 4.46375 40.0889 4.66554 40.1991 4.96823L46.3685 18.993C46.5888 19.3966 46.2583 19.6993 45.8176 19.6993Z" stroke="#383838" stroke-width="2" stroke-miterlimit="10"/>
<path d="M38.6569 20.9104L35.5721 43.007" stroke="#383838" stroke-width="2" stroke-miterlimit="10"/>
<path d="M26.4282 43.007L23.4536 20.9104" stroke="#383838" stroke-width="2" stroke-miterlimit="10"/>
<path d="M35.5721 6.07825L38.6569 18.0851" stroke="#383838" stroke-width="2" stroke-miterlimit="10"/>
<path d="M23.4536 18.0851L26.4282 6.07825" stroke="#383838" stroke-width="2" stroke-miterlimit="10"/>
<path d="M27.75 4.06026C27.75 2.345 29.1822 1.03333 31.055 1.03333C32.9279 1.03333 34.3601 2.345 34.3601 4.06026" stroke="#383838" stroke-width="2" stroke-miterlimit="10"/>
<path d="M17.8348 60.9665C17.8348 58.1414 20.2585 55.9216 23.3433 55.9216H38.6566C41.7414 55.9216 44.1651 58.1414 44.1651 60.9665H17.8348Z" fill="#383838"/>
<path d="M34.3601 44.5204H27.75V54.6102H34.3601V44.5204Z" fill="#383838"/>
</svg>
