<svg width="87" height="70" viewBox="0 0 87 70" fill="none" xmlns="http://www.w3.org/2000/svg">
<path d="M38.0569 9.34585L39.5831 7.82275" stroke="#383838" stroke-width="2" stroke-miterlimit="10" stroke-linecap="round" stroke-linejoin="round"/>
<path d="M30.3303 16.6029L36.5306 10.7793" stroke="#383838" stroke-width="2" stroke-miterlimit="10" stroke-linecap="round" stroke-linejoin="round"/>
<path d="M39.448 50.3652L38.1125 51.6196" stroke="#383838" stroke-width="2" stroke-miterlimit="10" stroke-linecap="round" stroke-linejoin="round"/>
<path d="M47.4605 42.9292L41.2603 48.6632" stroke="#383838" stroke-width="2" stroke-miterlimit="10" stroke-linecap="round" stroke-linejoin="round"/>
<path d="M36.5305 15.9756L45.1155 7.91211" stroke="#383838" stroke-width="2" stroke-miterlimit="10" stroke-linecap="round" stroke-linejoin="round"/>
<path d="M24 62.998H54" stroke="#383838" stroke-width="2" stroke-miterlimit="10" stroke-linecap="round" stroke-linejoin="round"/>
<path d="M46.7119 56.0397H31.2881C28.3797 56.0397 26 53.6529 26 50.7357V8.30397C26 5.38679 28.3797 3 31.2881 3H46.7119C49.6203 3 52 5.38679 52 8.30397V50.7357C52 53.6529 49.6203 56.0397 46.7119 56.0397Z" stroke="#383838" stroke-width="2" stroke-miterlimit="10" stroke-linecap="round" stroke-linejoin="round"/>
<path d="M22.2889 12.0475V61.9481C22.2889 61.9481 22.5879 67.0002 19 67.0002" stroke="#383838" stroke-width="2" stroke-miterlimit="10" stroke-linecap="round" stroke-linejoin="round"/>
<path d="M55.7109 11.7504V61.6509C55.7109 61.6509 55.4119 66.703 58.9998 66.703" stroke="#383838" stroke-width="2" stroke-miterlimit="10" stroke-linecap="round" stroke-linejoin="round"/>
<path d="M20.1765 14.0498H24.8646" stroke="#383838" stroke-width="2" stroke-miterlimit="10" stroke-linecap="round" stroke-linejoin="round"/>
<path d="M53.1353 14.0498H57.8234" stroke="#383838" stroke-width="2" stroke-miterlimit="10" stroke-linecap="round" stroke-linejoin="round"/>
<path d="M71.5424 48.5107L71.8727 43.6858C71.8727 43.402 71.5424 43.1749 71.2121 43.1749H65.399C65.0687 43.1749 64.7384 43.402 64.7384 43.6858L65.0687 48.5107V48.5674C63.2851 51.4056 61.7658 54.0735 62.03 57.3658C62.1621 59.0119 65.0687 65.4829 65.0687 65.4829C65.1347 65.6532 65.2669 65.7667 65.465 65.7667H71.1461C71.3442 65.7667 71.4763 65.6532 71.5424 65.4829C71.5424 65.4829 74.449 59.0119 74.5811 57.3658C74.7793 54.0735 73.326 51.4056 71.5424 48.5107Z" stroke="#383838" stroke-width="2" stroke-miterlimit="10"/>
<path d="M68.4377 43.4018L72.1553 36.1168" stroke="#383838" stroke-width="2" stroke-miterlimit="10"/>
<path d="M75.6402 34.1616C74.967 35.022 73.6207 35.1785 72.6109 34.5527C71.8536 34.0051 71.6853 33.0665 72.2744 32.3625C72.6951 31.815 73.6207 31.6585 74.2097 32.1279C74.7146 32.4407 74.7987 33.0665 74.4621 33.5358C74.2097 33.9269 73.6207 33.9269 73.2 33.6923C72.8634 33.4576 72.8634 33.0665 73.0317 32.7536C73.2841 32.519 73.6207 32.4407 73.8731 32.5972" stroke="#383838" stroke-width="2" stroke-miterlimit="10"/>
<path d="M73.4152 36.1168C75.3288 36.1168 76.88 34.7475 76.88 33.0584C76.88 31.3693 75.3288 30 73.4152 30C71.5017 30 69.9504 31.3693 69.9504 33.0584C69.9504 34.7475 71.5017 36.1168 73.4152 36.1168Z" stroke="#383838" stroke-width="2" stroke-miterlimit="10"/>
<path d="M68.2394 38.2362C68.9 39.2579 68.4375 40.5635 68.4375 40.5635C68.4375 40.5635 66.9182 40.1661 66.2576 39.1444C65.597 38.1226 66.0594 36.8171 66.0594 36.8171C66.0594 36.8171 67.5788 37.2144 68.2394 38.2362Z" stroke="#383838" stroke-width="2" stroke-miterlimit="10"/>
</svg>
