<svg width="60" height="60" viewBox="0 0 60 60" fill="none" xmlns="http://www.w3.org/2000/svg">
<path d="M47.2941 13.7841V54.1473C47.2941 56.8698 45.1765 59.0004 42.4706 59.0004H42.3529C39.6471 59.0004 37.5294 56.8698 37.5294 54.1473V24.082C37.5294 21.3596 35.4118 19.229 32.7059 19.229H32.5882C29.8824 19.229 27.7647 21.3596 27.7647 24.082V54.029C27.7647 56.7514 25.6471 58.882 22.9412 58.882H22.8235C20.1176 58.882 18 56.7514 18 54.029V24.082C18 21.3596 15.8824 19.229 13.1765 19.229H12.8235C10.1176 19.229 8 21.3596 8 24.082V59.0004" stroke="#383838" stroke-width="2" stroke-miterlimit="10" stroke-linecap="round" stroke-linejoin="round"/>
<path d="M42.5884 6.08972V9.04891C42.5884 11.653 44.706 13.7836 47.2943 13.7836C49.8825 13.7836 52.0001 11.653 52.0001 9.04891V6.08972H42.5884Z" stroke="#383838" stroke-width="2" stroke-miterlimit="10" stroke-linecap="round" stroke-linejoin="round"/>
<path d="M49.7646 6.08998V1.00018" stroke="#383838" stroke-width="2" stroke-miterlimit="10" stroke-linecap="round" stroke-linejoin="round"/>
<path d="M44.7058 6.08998V1.00018" stroke="#383838" stroke-width="2" stroke-miterlimit="10" stroke-linecap="round" stroke-linejoin="round"/>
</svg>
