<svg width="76" height="80" viewBox="0 0 76 80" fill="none" xmlns="http://www.w3.org/2000/svg">
<path d="M53.0023 25.7554L73.5825 25.7554C73.8382 25.7554 74.0938 26.0221 73.966 26.2889L69.6199 45.3621C69.6199 45.6288 69.3642 45.7622 69.2364 45.7622L57.2206 45.7622C56.9649 45.7622 56.8371 45.6288 56.8371 45.3621L52.491 26.2889C52.491 26.1555 52.7466 25.7554 53.0023 25.7554Z" stroke="#383838" stroke-width="2" stroke-miterlimit="10"/>
<path d="M2.51133 25.7554L23.0915 25.7554C23.3472 25.7554 23.6029 26.0221 23.475 26.2889L19.1289 45.3621C19.1289 45.6288 18.8732 45.7622 18.7454 45.7622L6.72964 45.7622C6.47398 45.7622 6.34616 45.6288 6.34616 45.3621L2.00002 26.2889C2.00002 26.1555 2.25568 25.7554 2.51133 25.7554Z" stroke="#383838" stroke-width="2" stroke-miterlimit="10"/>
<path d="M27.8194 42.6374L48.3997 42.6374C48.6553 42.6374 48.911 42.9042 48.7831 43.171L44.437 62.2442C44.437 62.5109 44.1813 62.6443 44.0535 62.6443L32.0377 62.6443C31.7821 62.6443 31.6543 62.5109 31.6543 62.2441L27.3081 43.3043C27.3081 42.9042 27.436 42.6374 27.8194 42.6374Z" stroke="#383838" stroke-width="2" stroke-miterlimit="10"/>
<path d="M33.8636 0H42.0446C43.7063 0 44.8568 1.60055 44.4733 3.20109L42.6837 11.3372C42.428 12.5376 41.4054 13.3379 40.255 13.3379H35.781C34.5027 13.3379 33.4801 12.5376 33.2245 11.3372L31.4349 3.20109C31.0514 1.60055 32.2018 0 33.8636 0Z" fill="#383838"/>
<path d="M63.3557 45.7795L63.3557 63.1949C63.3557 71.3311 56.9643 78 49.1669 78L26.9249 78C19.1274 78 12.736 71.3311 12.736 63.1949L12.7361 45.7795" stroke="#383838" stroke-width="2" stroke-miterlimit="10"/>
<path d="M38.0471 16.0178L38.0471 41.7856" stroke="#383838" stroke-width="2" stroke-miterlimit="10"/>
<path d="M38.0471 62.6785L38.0471 77.3035" stroke="#383838" stroke-width="2" stroke-miterlimit="10"/>
</svg>
