<svg width="60" height="60" viewBox="0 0 60 60" fill="none" xmlns="http://www.w3.org/2000/svg">
<path d="M24.0721 47.176C23.2508 47.176 22.5255 47.0107 21.8961 46.68C21.2775 46.3387 20.8188 45.8747 20.5201 45.288L21.5601 43.944C22.1895 44.872 22.9895 45.336 23.9601 45.336C24.5255 45.336 24.9681 45.192 25.2881 44.904C25.6081 44.616 25.7681 44.2427 25.7681 43.784C25.7681 43.272 25.5815 42.8827 25.2081 42.616C24.8455 42.3387 24.3388 42.2 23.6881 42.2H22.8881V40.36H23.6081C24.0988 40.36 24.5095 40.216 24.8401 39.928C25.1708 39.64 25.3361 39.272 25.3361 38.824C25.3361 38.3973 25.2135 38.0667 24.9681 37.832C24.7228 37.5867 24.3708 37.464 23.9121 37.464C23.0481 37.464 22.3441 37.864 21.8001 38.664L20.7761 37.368C21.3948 36.2053 22.4988 35.624 24.0881 35.624C25.0588 35.624 25.8375 35.8853 26.4241 36.408C27.0108 36.92 27.3041 37.608 27.3041 38.472C27.3041 39.7413 26.7335 40.6267 25.5921 41.128V41.176C26.2641 41.2933 26.7868 41.5973 27.1601 42.088C27.5441 42.568 27.7361 43.1547 27.7361 43.848C27.7361 44.8613 27.3895 45.672 26.6961 46.28C26.0028 46.8773 25.1281 47.176 24.0721 47.176ZM30.7485 47H30.5245V35.8H30.7325C31.2018 35.8 31.6978 35.7947 32.2205 35.784C33.2658 35.7627 33.7992 35.752 33.8205 35.752C35.9965 35.752 37.6072 36.3067 38.6525 37.416C39.6232 38.4507 40.1085 39.7413 40.1085 41.288C40.1085 42.952 39.5485 44.328 38.4285 45.416C37.3192 46.4933 35.7405 47.032 33.6925 47.032C33.2658 47.032 32.8178 47.0267 32.3485 47.016C31.8898 47.0053 31.3565 47 30.7485 47ZM33.7885 37.592C33.3725 37.592 32.9405 37.608 32.4925 37.64V45.16C32.9832 45.1813 33.4045 45.192 33.7565 45.192C35.0898 45.192 36.1352 44.84 36.8925 44.136C37.6498 43.432 38.0285 42.4827 38.0285 41.288C38.0285 40.1467 37.6498 39.2453 36.8925 38.584C36.1458 37.9227 35.1112 37.592 33.7885 37.592Z" fill="#808080"/>
<path d="M28.9393 30.0607C29.5251 30.6464 30.4749 30.6464 31.0607 30.0607L40.6066 20.5147C41.1924 19.9289 41.1924 18.9792 40.6066 18.3934C40.0208 17.8076 39.0711 17.8076 38.4853 18.3934L30 26.8787L21.5147 18.3934C20.9289 17.8076 19.9792 17.8076 19.3934 18.3934C18.8076 18.9792 18.8076 19.9289 19.3934 20.5147L28.9393 30.0607ZM28.5 9L28.5 29L31.5 29L31.5 9L28.5 9Z" fill="#808080"/>
<circle cx="30" cy="30" r="29" stroke="#808080" stroke-width="2"/>
</svg>
