<svg width="134" height="54" viewBox="0 0 134 54" fill="none" xmlns="http://www.w3.org/2000/svg">
<path d="M71.3506 45.2737V53.7871H76.2193V53.2395H72.0072V45.2737H71.3506Z" fill="#383838"/>
<path d="M79.0995 45.2737H78.4404V53.7871H79.0995V45.2737Z" fill="#383838"/>
<path d="M89.4257 45.8884V46.6317C88.4173 46.0593 87.4113 45.7719 86.4078 45.7719C85.3325 45.7719 84.4356 46.1312 83.722 46.8448C83.0059 47.5608 82.6466 48.4553 82.6466 49.5331C82.6466 50.6084 83.001 51.5029 83.7096 52.2165C84.4157 52.9301 85.3771 53.2868 86.5912 53.2868C87.4683 53.2868 88.2463 53.1109 88.9252 52.764V50.4647H87.1288V49.9172H89.5892V53.1778C88.5857 53.656 87.5773 53.8964 86.5664 53.8964C85.2458 53.8964 84.1457 53.4776 83.2611 52.6402C82.3766 51.8052 81.9355 50.7596 81.9355 49.5083C81.9355 48.2645 82.3692 47.2288 83.2364 46.4037C84.1036 45.5762 85.1937 45.1624 86.5069 45.1624C87.4014 45.1624 88.3727 45.4052 89.4257 45.8884Z" fill="#383838"/>
<path d="M99.5274 45.2712V53.7846H98.8634V49.7509H93.182V53.7846H92.5254V45.2712H93.182V49.2033H98.8634V45.2712H99.5274Z" fill="#383838"/>
<path d="M108.862 45.2712V45.8188H105.668V53.7846H105.004V45.8188H101.811V45.2712H108.862Z" fill="#383838"/>
<path d="M111.801 45.2737H111.142V53.7871H111.801V45.2737Z" fill="#383838"/>
<path d="M122.66 45.2712V53.7846H122.117L115.645 46.344V53.7846H114.986V45.2712H115.544L122.001 52.7118V45.2712H122.66Z" fill="#383838"/>
<path d="M132.994 45.8884V46.6317C131.988 46.0593 130.98 45.7719 129.979 45.7719C128.901 45.7719 128.006 46.1312 127.29 46.8448C126.574 47.5608 126.217 48.4553 126.217 49.5331C126.217 50.6084 126.572 51.5029 127.278 52.2165C127.984 52.9301 128.945 53.2868 130.162 53.2868C131.037 53.2868 131.817 53.1109 132.494 52.764V50.4647H130.697V49.9172H133.16V53.1778C132.154 53.656 131.148 53.8964 130.137 53.8964C128.817 53.8964 127.714 53.4776 126.829 52.6402C125.945 51.8052 125.504 50.7596 125.504 49.5083C125.504 48.2645 125.938 47.2288 126.805 46.4037C127.672 45.5762 128.762 45.1624 130.075 45.1624C130.97 45.1624 131.941 45.4052 132.994 45.8884Z" fill="#383838"/>
<path d="M27.0733 18.8932H39.3306L40.9163 23.2788L40.6983 23.3729C37.8984 19.8273 34.8186 19.6093 30.4331 19.6093H28.5352C28.3791 19.6093 27.7571 19.6093 26.7314 19.639V27.9146C27.6952 27.9468 28.3493 27.9765 28.6293 27.9765H32.0808C35.0367 27.9765 36.7166 27.4165 37.5887 25.2386H37.7746V31.4627H37.5887C36.8107 29.3789 35.0986 28.6926 32.0808 28.6926H28.6293H28.3493H27.5094C27.4474 28.6926 27.1675 28.7248 26.7314 28.7545V33.1723C26.7314 35.3205 26.7314 36.6559 26.9494 37.2184C27.3533 38.3061 28.5674 38.3358 30.9608 38.3358C35.8469 38.3358 39.2686 37.8378 41.8826 34.2625L42.0684 34.2922L40.4827 39.0519H28.2552H25.2993H24.2413C24.0232 39.0519 23.2774 39.0519 21.9717 39.0841V38.8339C23.9935 38.4622 24.0554 36.5643 24.0554 32.0524V21.693C24.0554 20.0751 23.5252 19.2673 22.3136 19.1112V18.8635C23.8374 18.8932 25.4231 18.8932 27.0733 18.8932Z" fill="#383838"/>
<path d="M42.8789 38.8963C44.8388 38.3042 44.9305 36.4707 44.9305 32.4568V31.369V22.8754V21.0717C44.9305 18.6757 44.8066 17.8358 43.1886 17.7738V17.5236C44.591 17.3675 45.9884 16.9636 47.4528 16.3739C47.3586 17.8358 47.3264 19.6395 47.3264 21.8794V31.369V32.3007C47.3264 36.5326 47.3884 38.2744 49.3804 38.8963V39.1466C48.3225 39.0822 47.2025 39.0202 46.0529 39.0202C45.3046 39.0202 44.2169 39.0524 42.8789 39.1466V38.8963V38.8963Z" fill="#383838"/>
<path d="M51.5892 34.5104H51.7453C52.055 37.1244 54.5452 38.834 58.0288 38.834C61.0789 38.834 62.9743 37.1863 62.9743 34.8845C62.9743 32.3647 61.2325 32.0525 57.9347 31.6164C53.7349 31.0565 51.6214 29.7805 51.6214 27.1689C51.6214 24.6169 54.3568 22.4092 58.8688 22.4092C61.2647 22.4092 63.3163 22.7834 64.9045 23.435L64.0323 26.4231H63.8143C63.1924 24.1189 61.5744 22.9692 59.0868 22.9692C56.225 22.9692 54.3568 24.6169 54.3568 26.6387C54.3568 28.8166 56.225 29.161 59.4287 29.5327C63.5665 30.001 65.9005 30.8706 65.9005 33.7646C65.9005 37.0625 62.9743 39.4881 57.6572 39.4881C54.9812 39.4881 52.6472 38.9901 50.5312 38.0263L51.5892 34.5104Z" fill="#383838"/>
<path d="M67.953 24.0273C70.1928 23.3731 71.4044 21.7255 72.6507 18.8934H72.8985C72.8068 20.0753 72.7449 21.6016 72.7126 23.497H76.0724V23.7151L75.7602 24.4931H72.6804L72.7449 31.7107C72.7746 36.4084 72.9926 38.4302 75.1086 38.8985V39.1166C73.1165 39.0843 71.9049 39.0521 71.4688 39.0521C70.3167 38.3063 70.3167 37.1245 70.3167 35.1324V33.4228C70.3167 33.2989 70.3489 32.8925 70.3489 32.2706L70.4728 24.4931H67.7646L67.953 24.0273Z" fill="#383838"/>
<path d="M91.2528 28.195C91.1289 24.9615 89.1987 23.0017 86.4608 23.0017C83.661 23.0017 81.6714 24.8352 80.9851 28.195H91.2528ZM94.6125 32.9869C93.3687 37.2808 90.6308 39.4884 86.4931 39.4884C81.5153 39.4884 77.9375 35.9428 77.9375 30.9031C77.9375 25.9254 81.4212 22.4417 86.4311 22.4417C90.8489 22.4417 93.8345 24.8674 94.3003 28.8491H80.8909C80.8315 29.7212 80.8315 30.3432 80.8315 30.7768C80.8315 35.6009 83.381 38.5865 87.2388 38.5865C90.5689 38.5865 92.9649 36.4705 94.1467 32.365L94.6125 32.9869Z" fill="#383838"/>
<path d="M107.99 29.6888C102.42 29.6888 99.4961 31.5223 99.4961 34.5724C99.4961 36.998 101.208 38.5863 103.82 38.5863C107.179 38.5863 109.328 36.3464 109.328 32.4267V30.7468V29.7185C108.859 29.6888 108.426 29.6888 107.99 29.6888ZM111.193 39.0521H110.353C109.826 38.118 109.452 37.1244 109.234 36.0664C108.019 38.2741 105.903 39.4559 103.012 39.4559C99.06 39.4559 96.6641 37.4341 96.6641 34.3543C96.6641 30.9326 100.678 29.0669 108.55 29.0669H109.328C109.234 24.9588 107.645 22.9989 104.194 22.9989C101.02 22.9989 99.0303 24.493 98.5323 27.1987H98.3762L97.4123 24.0272C99.4664 22.937 101.798 22.4092 104.412 22.4092C107.088 22.4092 109.11 23.1228 110.292 24.3369C111.597 25.6749 111.691 27.3548 111.691 29.8127V31.9286V32.0525C111.691 36.4083 111.939 38.4599 113.681 38.896V39.114C112.811 39.0843 111.971 39.0521 111.193 39.0521Z" fill="#383838"/>
<path d="M118.165 30.8388C118.165 35.9726 120.404 38.7725 124.076 38.7725C127.622 38.7725 129.706 36.1287 129.706 30.933C129.706 25.8313 127.622 23.1554 124.136 23.1554C120.437 23.1554 118.165 26.0791 118.165 30.8388ZM129.706 21.7555C129.706 18.8937 129.676 17.8358 127.964 17.7738V17.5236C129.458 17.308 130.855 16.9339 132.164 16.3739C132.04 18.5196 132.04 20.1053 132.04 21.1014V22.0355V31.929V32.0207C132.04 36.3765 132.258 38.4925 134 38.8963V39.1144C132.974 39.0524 132.102 39.0227 131.356 39.0227H130.67C130.174 38.2125 129.8 37.3403 129.552 36.4385C128.088 38.4305 126.036 39.4563 123.546 39.4563C119.037 39.4563 115.303 36.1585 115.303 31.0569C115.303 26.3591 118.819 22.4394 123.67 22.4394C126.408 22.4394 128.618 23.7451 129.706 25.923V22.0652V21.7555Z" fill="#383838"/>
<path d="M14.7066 18.8266C14.7066 18.8266 14.3102 17.2706 13.7279 15.1868C13.8147 18.6829 13.1828 22.7786 11.2552 27.4144C6.54752 40.0383 7.57577 45.2713 8.00937 46.5869C8.05397 46.7083 8.10105 46.8248 8.14812 46.9388C8.50491 47.806 8.92117 48.5369 9.40185 49.0969C9.40185 49.0969 21.7136 41.2524 14.7066 18.8266Z" fill="#383838"/>
<path d="M5.19986 0.0479126C5.19986 0.0479126 16.9418 9.36661 9.66966 26.7899C3.53236 43.2296 6.86736 47.6994 6.86736 47.6994C6.86736 47.6994 -4.04202 36.562 1.63938 22.5481C7.32078 8.53162 5.19986 0.0479126 5.19986 0.0479126Z" fill="#383838"/>
</svg>
