<svg width="130" height="30" viewBox="0 0 130 30" fill="none" xmlns="http://www.w3.org/2000/svg">
<path d="M59.6006 16.8743H62.9658V1.54799H59.6006V0.925415H71.3453V1.54799H68.0185V16.8743H71.3453V17.4969H59.6006V16.8743Z" fill="#383838"/>
<path d="M128.476 1.27926V0.880238H128.772C129.01 0.880238 129.137 0.911487 129.137 1.111C129.137 1.21436 129.01 1.27926 128.842 1.27926H128.476V1.27926ZM128.313 0.683131V2.10855H128.476V1.51483H128.705L129.137 2.10855H129.373L128.933 1.44031C129.202 1.44031 129.301 1.27926 129.301 1.111C129.301 0.810529 129.137 0.683131 128.842 0.683131H128.313V0.683131ZM128.705 0.346606H128.772C129.301 0.346606 129.769 0.810529 129.769 1.40906C129.769 1.97394 129.301 2.40662 128.772 2.40662C128.183 2.40662 127.777 1.97394 127.777 1.40906C127.777 0.810529 128.183 0.385066 128.705 0.346606ZM128.772 0.147095C128.075 0.147095 127.483 0.683131 127.483 1.40906C127.483 2.10855 128.075 2.63978 128.772 2.63978C129.466 2.63978 130 2.10855 130 1.40906C130 0.683131 129.438 0.147095 128.772 0.147095Z" fill="#383838"/>
<path d="M89.7472 17.4946C84.7474 17.4946 83.346 16.0716 82.0528 16.0716C81.4999 16.0716 81.2547 16.4081 81.1298 17.0956H80.0865V10.9372H80.5288C81.6105 12.7592 82.4013 13.8481 83.5864 14.8457C84.4878 15.6125 87.1295 16.5379 89.7472 16.5379C93.5788 16.5379 95.8527 14.901 95.8527 13.2424C95.8527 12.2881 95.509 11.4636 92.735 11.1511C90.6462 10.9083 85.4637 10.7257 83.4325 10.0646C81.024 9.2738 79.9688 7.97818 79.9688 5.78356C79.9688 2.07698 84.1152 0.0986938 88.9756 0.0986938C93.0547 0.0986938 94.8768 1.20923 95.8527 1.20923C96.3311 1.20923 96.4873 0.889527 96.569 0.44243H97.6555V5.38453H97.1748C96.408 4.21631 95.5691 3.26683 94.7975 2.63224C93.5547 1.60344 91.413 1.07702 88.9756 1.07702C85.1224 1.07702 83.108 2.31735 83.108 3.74999C83.108 4.69706 83.5864 5.38454 85.7546 5.78356C87.817 6.15133 92.7134 6.23065 94.7975 6.62727C98.1002 7.26427 99.1531 8.76901 99.1531 11.1247C99.1531 14.6702 95.1676 17.4946 89.7472 17.4946Z" fill="#383838"/>
<path d="M117.351 17.4946C112.344 17.4946 110.947 16.0716 109.647 16.0716C109.101 16.0716 108.858 16.4081 108.726 17.0956H107.678V10.9372H108.125C109.209 12.7592 109.997 13.8481 111.185 14.8457C112.082 15.6125 114.73 16.5379 117.351 16.5379C121.18 16.5379 123.454 14.901 123.454 13.2424C123.454 12.2881 123.112 11.4636 120.336 11.1511C118.247 10.9083 113.06 10.7257 111.029 10.0646C108.627 9.2738 107.562 7.97818 107.562 5.78356C107.562 2.07698 111.716 0.0986938 116.577 0.0986938C120.646 0.0986938 122.468 1.20923 123.454 1.20923C123.93 1.20923 124.088 0.889527 124.165 0.44243H125.256V5.38453H124.773C124.009 4.21631 123.165 3.26683 122.401 2.63224C121.153 1.60344 119.007 1.07702 116.577 1.07702C112.716 1.07702 110.714 2.31735 110.714 3.74999C110.714 4.69706 111.185 5.38454 113.358 5.78356C115.413 6.15133 120.31 6.23065 122.401 6.62727C125.704 7.26427 126.761 8.76901 126.761 11.1247C126.761 14.6702 122.764 17.4946 117.351 17.4946Z" fill="#383838"/>
<path d="M0 16.8743H3.36765V1.54799H0V0.925415H21.8501V5.89156H21.0568C20.7083 4.56229 19.8165 2.87485 18.754 2.16815C18.0449 1.72586 16.8911 1.54799 14.9441 1.54799H8.82416V9.04287C10.1534 9.04287 13.2254 9.13181 14.3792 8.60058C15.2566 8.15349 15.884 6.69201 16.0594 5.62474H16.8503V12.7591H16.0594C15.884 11.5259 15.1749 10.7303 14.2855 10.2832C13.4033 9.93226 10.413 9.93226 8.82416 9.93226V16.8743H11.925V17.4969H0V16.8743Z" fill="#383838"/>
<path d="M29.0469 16.8743H32.4121V1.54799H29.0469V0.925415H50.8128V5.89156H50.0172C49.6614 4.56229 48.7744 2.87485 47.7144 2.16815C47.0077 1.72586 45.8563 1.54799 43.9068 1.54799H37.8975V9.03566C39.2292 9.03566 42.1185 9.127 43.2675 8.59337C44.152 8.15108 44.7746 7.17756 44.9549 6.1127H45.7217V12.7567H44.9549C44.7746 11.5163 44.0655 10.7231 43.1785 10.276C42.3011 9.92265 39.4936 9.92265 37.8975 9.92265V16.8743H44.7818C47.5269 16.8743 48.4956 16.5209 49.5629 15.8984C50.5412 15.1893 51.5099 13.4201 51.7815 11.8216H52.481V17.4969H29.0469V16.8743V16.8743Z" fill="#383838"/>
<path d="M46.4188 26.83C46.4188 25.8685 46.4188 25.6931 46.4092 25.4936C46.3947 25.2844 46.3491 25.1835 46.1447 25.1426C46.0919 25.1378 45.9861 25.1186 45.9308 25.1186C45.9092 25.1186 45.8779 25.109 45.8779 25.0897C45.8779 25.0513 45.9164 25.0417 45.9861 25.0417C46.1231 25.0417 46.289 25.0417 46.4212 25.0489L46.6784 25.0585C46.7265 25.0585 47.9524 25.0585 48.0918 25.0513C48.2144 25.0489 48.3177 25.0296 48.3634 25.0152C48.3898 25.0104 48.4163 24.9888 48.4475 24.9888C48.4644 24.9888 48.474 25.0104 48.474 25.0489C48.474 25.0897 48.4427 25.1594 48.4235 25.3325C48.4163 25.3926 48.4043 25.6642 48.3898 25.746C48.3826 25.7724 48.3706 25.8109 48.3514 25.8109C48.3177 25.8109 48.3009 25.7748 48.3009 25.7315C48.3009 25.6859 48.2913 25.5777 48.26 25.5056C48.2192 25.4022 48.1567 25.3325 47.8226 25.294C47.7216 25.2844 47.0461 25.2772 46.9764 25.2772C46.9524 25.2772 46.9332 25.294 46.9332 25.3397V27.0464C46.9332 27.0872 46.9452 27.1065 46.9764 27.1065C47.0534 27.1065 47.8202 27.1065 47.9596 27.0945C48.1014 27.0824 48.1927 27.0704 48.248 27.0079C48.2913 26.9598 48.3201 26.9286 48.3466 26.9286C48.3634 26.9286 48.3706 26.9406 48.3706 26.9767C48.3706 27.0199 48.3466 27.1161 48.3225 27.3228C48.3177 27.4526 48.3009 27.6762 48.3009 27.717C48.3009 27.7699 48.3009 27.8396 48.2576 27.8396C48.2288 27.8396 48.2144 27.8132 48.2144 27.7819C48.2144 27.717 48.2144 27.6569 48.1879 27.58C48.1687 27.4935 48.1014 27.3901 47.8706 27.3661C47.7 27.3372 47.0846 27.3252 46.9812 27.3252C46.9524 27.3252 46.9332 27.3444 46.9332 27.3757V27.9141V28.9766C46.9596 29.4021 47.0462 29.4814 47.6543 29.4814C47.8202 29.4814 48.0894 29.4814 48.248 29.4117C48.4115 29.3468 48.486 29.2266 48.5245 28.9694C48.5389 28.8949 48.5485 28.8756 48.5894 28.8756C48.623 28.8756 48.623 28.9261 48.623 28.9694C48.623 29.0175 48.5701 29.4381 48.5389 29.5655C48.4956 29.7266 48.4475 29.7266 48.212 29.7266C47.7456 29.7266 47.4019 29.7169 47.1615 29.7145C46.9188 29.7025 46.7721 29.6929 46.6784 29.6929C46.6784 29.6929 46.5606 29.6929 46.4308 29.7025C46.3106 29.7025 46.1712 29.7145 46.0702 29.7145C46.0125 29.7145 45.9741 29.7025 45.9741 29.6617C45.9741 29.6376 45.9861 29.628 46.0246 29.628C46.0822 29.628 46.1496 29.6136 46.2096 29.5968C46.337 29.5751 46.3635 29.4381 46.3851 29.2602C46.4188 29.003 46.4188 28.5079 46.4188 27.9141V26.83V26.83Z" fill="#383838"/>
<path d="M50.7338 29.6292C50.6377 29.5859 50.6377 29.5667 50.6377 29.3912C50.6377 29.0883 50.6569 28.8359 50.6641 28.7374C50.6738 28.6773 50.681 28.646 50.7098 28.646C50.7507 28.646 50.7579 28.6604 50.7579 28.7085C50.7579 28.7662 50.7579 28.8527 50.7747 28.9417C50.866 29.3912 51.2771 29.5667 51.6905 29.5667C52.2867 29.5667 52.5727 29.1412 52.5727 28.747C52.5727 28.3215 52.3972 28.0691 51.8588 27.6316L51.5848 27.4033C50.9334 26.8673 50.7843 26.4802 50.7843 26.0644C50.7843 25.401 51.2771 24.9467 52.0631 24.9467C52.3035 24.9467 52.4814 24.9779 52.6328 25.0116C52.7554 25.0428 52.8083 25.0476 52.8588 25.0476C52.902 25.0476 52.9164 25.0596 52.9164 25.0909C52.9164 25.1197 52.8948 25.3168 52.8948 25.7471C52.8948 25.8409 52.8852 25.8841 52.8443 25.8841C52.8155 25.8841 52.8083 25.8529 52.8011 25.8024C52.789 25.7327 52.7554 25.5596 52.7217 25.4947C52.6833 25.425 52.5222 25.1606 51.9477 25.1606C51.5151 25.1606 51.1833 25.4322 51.1833 25.8841C51.1833 26.2351 51.3468 26.461 51.9405 26.9225L52.1136 27.0547C52.8371 27.6316 53.0174 28.0186 53.0174 28.509C53.0174 28.7662 52.9164 29.2349 52.4814 29.5378C52.2242 29.7229 51.89 29.8022 51.5583 29.8022C51.2699 29.8022 50.9814 29.7542 50.7338 29.6292Z" fill="#383838"/>
<path d="M56.8918 27.9177C56.8918 28.5114 56.8918 29.0042 56.9255 29.2638C56.9447 29.4393 56.9783 29.5787 57.1634 29.5979C57.2524 29.6147 57.3918 29.6316 57.4471 29.6316C57.4807 29.6316 57.4952 29.6412 57.4952 29.6652C57.4952 29.6965 57.4663 29.7181 57.3918 29.7181C57.0553 29.7181 56.6707 29.6965 56.6394 29.6965C56.601 29.6965 56.2116 29.7181 56.0313 29.7181C55.9568 29.7181 55.9255 29.7061 55.9255 29.6652C55.9255 29.6412 55.9375 29.6316 55.9808 29.6316C56.0337 29.6316 56.1106 29.6147 56.1659 29.5979C56.2861 29.5787 56.3173 29.4393 56.3438 29.2638C56.375 29.0042 56.375 28.5114 56.375 27.9177V25.3L55.4616 25.3168C55.077 25.3192 54.9279 25.3673 54.827 25.5187C54.7645 25.6173 54.7453 25.6582 54.7212 25.7062C54.7044 25.7567 54.6852 25.7663 54.6683 25.7663C54.6419 25.7663 54.6299 25.7471 54.6299 25.7135C54.6299 25.6486 54.7525 25.1221 54.7669 25.0741C54.7789 25.0308 54.8054 24.9467 54.827 24.9467C54.8703 24.9467 54.9352 25.014 55.0962 25.0284C55.2813 25.05 55.5193 25.062 55.5938 25.062H57.9062C58.1153 25.062 58.2499 25.05 58.3485 25.0284C58.435 25.014 58.4951 24.9947 58.5216 24.9947C58.5504 24.9947 58.5504 25.0308 58.5504 25.0741C58.5504 25.2519 58.5384 25.6822 58.5384 25.7471C58.5384 25.8048 58.5143 25.8312 58.4951 25.8312C58.4591 25.8312 58.4567 25.8144 58.435 25.7231L58.4326 25.651C58.4182 25.4707 58.2692 25.3264 57.6706 25.3168L56.8918 25.3V27.9177V27.9177Z" fill="#383838"/>
<path d="M66.4851 27.8336C66.4779 28.4489 66.4851 28.9825 66.5188 29.2542C66.5452 29.4513 66.5669 29.5378 66.7688 29.5835C66.8529 29.5979 67.1173 29.6219 67.1702 29.6219C67.1967 29.6219 67.2279 29.6388 67.2279 29.6748C67.2279 29.7037 67.1967 29.7157 67.1245 29.7157C66.6606 29.7157 66.2616 29.6941 66.2328 29.6941C66.2087 29.6941 65.6823 29.7157 65.2881 29.7157C65.216 29.7157 65.1775 29.7037 65.1775 29.6748C65.1775 29.6388 65.2088 29.6219 65.2328 29.6219C65.3049 29.6219 65.6078 29.5979 65.7256 29.5763C65.9323 29.5378 65.9756 29.4513 65.9852 29.2542C66.0044 28.9825 66.0044 28.4489 66.0044 27.8336V26.7471V25.812C66.0044 25.687 65.99 25.6173 65.8962 25.6173C65.7736 25.6173 65.3458 25.8409 65.1895 25.9178C65.1583 25.9322 65.139 25.9418 65.1126 25.9418C65.0958 25.9418 65.0693 25.9106 65.0693 25.8841C65.0693 25.8697 65.091 25.8408 65.1126 25.8264L66.3097 25.0284C66.3602 24.9899 66.4082 24.9467 66.4563 24.9467C66.5068 24.9467 66.5212 25.0164 66.5212 25.0789C66.5212 25.139 66.4948 25.7471 66.4924 26.6894L66.4851 27.8336Z" fill="#383838"/>
<path d="M72.0401 26.6341C72.0401 28.3768 70.6604 29.4393 69.8936 29.8191C69.8623 29.8359 69.8239 29.8455 69.7999 29.8455C69.7782 29.8455 69.7566 29.8191 69.7566 29.783C69.7566 29.7445 69.7782 29.7181 69.8191 29.6965C70.5426 29.2974 71.4993 28.2686 71.4993 26.8168C71.4993 25.7351 71.0234 25.1822 70.4825 25.1822C69.92 25.1822 69.6292 25.6389 69.6292 26.1269C69.6292 27.1533 70.3888 27.3528 70.5546 27.3528C70.8503 27.3528 70.9729 27.2927 71.0498 27.2446C71.0883 27.2254 71.1147 27.2086 71.1147 27.2086C71.1484 27.2086 71.1628 27.235 71.1628 27.2494C71.1628 27.2687 71.1628 27.2783 71.1387 27.3047C70.9609 27.497 70.6412 27.5884 70.3936 27.5884C69.5186 27.5884 69.1484 26.9153 69.1484 26.3937C69.1484 25.538 69.7734 24.9467 70.6243 24.9467C71.4993 24.9467 72.0401 25.6966 72.0401 26.6341Z" fill="#383838"/>
<path d="M78.858 26.398C79.6464 26.5182 80.7858 26.9941 80.7858 28.0927C80.7858 28.8931 80.18 29.8017 78.9349 29.8017C78.7498 29.8017 78.5166 29.7705 78.3604 29.6863C78.2522 29.6286 78.2474 29.5758 78.2474 29.5157C78.2474 29.3041 78.2426 28.9268 78.2691 28.7345C78.2811 28.6768 78.3027 28.6287 78.3316 28.6287C78.3604 28.6287 78.37 28.6599 78.37 28.7296C78.37 29.3907 78.7714 29.5253 79.2233 29.5253C79.7425 29.5253 80.3098 29.184 80.3098 28.3282C80.3098 27.3259 79.2185 26.8475 78.7426 26.8259C78.6224 26.8139 78.5743 26.7778 78.5791 26.7105L78.7234 25.1384C78.7282 25.0759 78.7714 25.0591 78.8387 25.0591H80.293C80.4685 25.0591 80.5742 25.0471 80.6536 25.0303C80.7209 25.0255 80.7665 25.011 80.7665 25.011C80.8026 25.011 80.8266 25.0255 80.8266 25.0759C80.8266 25.1384 80.8026 25.4005 80.7473 25.8524C80.7401 25.8836 80.7161 25.9197 80.6968 25.9197C80.668 25.9197 80.6536 25.8836 80.6536 25.8403C80.6536 25.6072 80.5983 25.4413 80.1175 25.4413H78.9469L78.858 26.398Z" fill="#383838"/>
<path d="M74.5058 26.398C75.2991 26.5182 76.4408 26.9941 76.4408 28.0927C76.4408 28.8931 75.8327 29.8017 74.5827 29.8017C74.4001 29.8017 74.1645 29.7705 74.0155 29.6863C73.9121 29.6286 73.9025 29.5758 73.9025 29.5157C73.9025 29.3041 73.8905 28.9268 73.9241 28.7345C73.9385 28.6768 73.9506 28.6287 73.9794 28.6287C74.0155 28.6287 74.0275 28.6599 74.0275 28.7296C74.0275 29.3907 74.4193 29.5253 74.876 29.5253C75.3928 29.5253 75.9673 29.184 75.9673 28.3282C75.9673 27.3259 74.8712 26.8475 74.3856 26.8259C74.2702 26.8139 74.2246 26.7778 74.2342 26.7105L74.3712 25.1384C74.3832 25.0759 74.4193 25.0591 74.4866 25.0591H75.9409C76.1163 25.0591 76.2317 25.0471 76.3014 25.0303C76.3831 25.0255 76.4168 25.011 76.4312 25.011C76.4553 25.011 76.4769 25.0255 76.4769 25.0759C76.4769 25.1384 76.4553 25.4005 76.3952 25.8524C76.388 25.8836 76.3783 25.9197 76.3519 25.9197C76.3206 25.9197 76.311 25.8836 76.311 25.8403C76.311 25.6072 76.2533 25.4413 75.7678 25.4413H74.5948L74.5058 26.398Z" fill="#383838"/>
</svg>
