<svg width="120" height="98" viewBox="0 0 120 98" fill="none" xmlns="http://www.w3.org/2000/svg">
<path d="M47.8355 50.6486L47.3008 50.6952C47.5338 50.8949 47.851 51.0613 48.0263 51.261C48.2593 51.0147 48.0507 51.1123 47.8355 50.6486Z" fill="#383838"/>
<path d="M45.445 49.9889C46.6254 50.7056 46.1262 49.9157 46.4368 49.8669C46.0641 49.7448 45.7002 49.6472 45.3252 49.5718L46.0729 49.8491C46.6542 50.5125 45.7423 50.0865 45.445 49.9889Z" fill="#383838"/>
<path d="M44.3824 49.0759C44.3981 49.0602 44.4026 49.0423 44.4138 49.0244C44.3219 49.0042 44.1426 49.0042 44.3824 49.0759Z" fill="#383838"/>
<path d="M44.4141 49.024C44.4407 49.0285 44.4607 49.044 44.4451 49.0462C44.4007 49.2637 44.6936 48.5115 44.4141 49.024Z" fill="#383838"/>
<path d="M44.4527 49.0912C44.4239 49.0867 44.4061 49.0801 44.3839 49.0756C44.3462 49.1466 44.2996 49.2354 44.2441 49.3508C44.2663 49.2553 44.6857 49.2243 44.4527 49.0912Z" fill="#383838"/>
<path d="M45.0703 24.9145C45.2412 25.0543 45.4453 25.1896 45.3809 25.234C45.6184 25.2784 45.6982 25.2407 45.0703 24.9145Z" fill="#383838"/>
<path d="M45.3588 25.2553L45.3834 25.2351L45.2266 25.2127L45.3588 25.2553Z" fill="#383838"/>
<path d="M54.1082 50.8697C54.2103 50.4836 54.268 50.0864 54.3456 49.7026C53.9928 50.0842 54.1171 50.3815 53.7998 50.9673L54.1082 50.8697Z" fill="#383838"/>
<path d="M53.0684 51.0389C53.1749 50.7416 53.3124 50.4554 53.4056 50.1514L53.186 50.4554L53.0684 51.0389Z" fill="#383838"/>
<path d="M54.1523 36.4083L54.159 36.5636C54.4142 37.2403 54.6516 37.937 54.8357 38.647C54.6516 37.8882 54.423 37.1382 54.1523 36.4083Z" fill="#383838"/>
<path d="M46.165 25.0203C45.8344 24.8605 45.4905 24.7341 45.1377 24.6209L45.2664 24.723C45.5726 24.7141 45.8854 24.9449 46.165 25.0203Z" fill="#383838"/>
<path d="M34.2325 23.9743C34.8604 23.5661 34.1925 23.7014 34.319 23.4684C34.0971 24.0786 33.4936 23.9632 34.2325 23.9743Z" fill="#383838"/>
<path d="M33.0115 24.9677C32.4524 25.1807 32.5767 25.3648 32.4258 25.6377C32.7342 25.3648 32.8829 25.174 33.0115 24.9677Z" fill="#383838"/>
<path d="M64.7487 14.3871C64.62 14.3916 64.1519 13.9367 64.3316 14.3139C64.8663 15.1371 64.9085 14.791 64.7487 14.3871Z" fill="#383838"/>
<path d="M60.1283 57.5154C60.0994 57.5221 60.0728 57.5265 60.0439 57.5288C60.0506 57.5465 60.0617 57.5509 60.0728 57.5643C60.0883 57.5598 60.1061 57.5554 60.1283 57.5509V57.5154Z" fill="#383838"/>
<path d="M58.888 31.8526L58.5729 32.0745C58.5108 32.6625 58.4709 33.1794 58.4531 33.7275C58.7504 33.1107 58.6107 32.7579 58.888 31.8526Z" fill="#383838"/>
<path d="M59.6378 31.5397C59.5402 31.9746 59.4115 32.4073 59.3516 32.8466L59.5424 32.3673L59.6378 31.5397Z" fill="#383838"/>
<path d="M60.0452 52.3459L60.0741 52.1462C59.9454 51.1478 59.7768 50.1582 59.5859 49.1708C59.7701 50.227 59.9365 51.2898 60.0452 52.3459Z" fill="#383838"/>
<path d="M56.5947 29.1152C56.9497 29.8985 56.8721 29.1441 57.0962 29.3283C56.4927 28.9555 56.7434 28.301 56.5947 29.1152Z" fill="#383838"/>
<path d="M55.417 26.5109C55.5657 26.9724 55.7254 27.2054 55.8785 27.4384C55.8519 26.7594 55.6211 26.8216 55.417 26.5109Z" fill="#383838"/>
<path d="M80.9326 45.2986L81.4563 46.2483C81.7403 46.5989 81.6027 46.0242 81.4651 45.5227L80.9326 45.2986Z" fill="#383838"/>
<path d="M79.9969 43.8831C80.3474 44.8172 79.5975 43.983 79.3135 43.7433C80.2786 44.9947 80.0102 43.9785 80.3408 44.0651C80.0257 43.7744 79.6596 43.5281 79.3268 43.2729L79.9969 43.8831Z" fill="#383838"/>
<path d="M78.2841 42.3256C78.4039 42.2812 78.8099 42.6052 78.6568 42.3012C78.1554 41.7021 78.1177 42.0505 78.2841 42.3256Z" fill="#383838"/>
<path d="M69.1419 35.8384C68.9444 35.9361 68.7425 36.0825 68.7136 36.0071C68.6027 36.2289 68.5983 36.2977 69.1419 35.8384Z" fill="#383838"/>
<path d="M68.7119 35.9855L68.7142 36.0079L68.8015 35.8734L68.7119 35.9855Z" fill="#383838"/>
<path d="M64.0699 44.9882C64.1431 45.2566 64.2296 45.5207 64.3162 45.7625C64.0632 45.9511 63.8214 46.0465 63.5951 46.0887C63.5418 45.8535 63.5263 45.636 63.5596 45.4275C63.3443 44.6243 63.3443 45.5184 63.1424 45.017C63.169 43.719 63.6306 44.8617 63.9212 44.3957C63.9279 44.4401 63.939 44.4911 63.9545 44.5355C63.7304 44.5799 63.5152 44.6775 63.3266 44.895C63.5351 45.0347 63.8103 44.9637 64.0699 44.9882ZM60.9591 52.5032C60.7705 52.9647 60.633 52.126 60.5331 51.1653C60.5331 52.2658 60.8171 52.3457 60.8615 53.2332L60.38 52.4189C60.8615 53.3375 60.3379 54.0985 60.2114 54.6133C60.3068 54.6754 60.6751 54.1872 60.5908 55.3632C60.5553 55.574 60.5198 55.6494 60.4843 55.6738C59.7787 54.0009 59.2041 52.0261 58.8957 50.28C58.8801 50.5817 58.8912 50.9678 58.7803 50.919C58.534 49.8495 58.7714 49.9383 58.8735 49.712C58.6827 48.9154 58.392 49.0286 58.1391 48.5404C58.1457 48.4561 58.1501 48.3829 58.1612 48.3052C58.5362 48.4539 58.9178 48.6225 59.244 48.8622L59.2662 48.6558C59.5901 49.2127 59.9873 48.7179 60.3712 48.9753L60.1937 48.6558C60.4643 48.303 60.6019 48.5249 60.8549 48.3896C60.8992 48.556 60.9436 48.8133 60.9791 49.2593L60.4488 49.0885C61.0612 49.7319 60.5975 51.2474 60.9591 52.5032ZM60.1648 57.6996C60.1315 57.6441 60.1005 57.6064 60.0716 57.5642C58.4541 57.8971 59.9341 57.5931 59.4015 57.704V57.6996V57.6818V57.6663C59.5413 57.6352 59.7477 57.5931 60.045 57.5287C59.6367 57.0162 59.9873 57.8305 59.5746 57.389C59.5014 57.227 59.4504 57.0961 59.4104 56.994C59.4126 56.8542 59.4126 56.7211 59.4126 56.5969C59.5724 56.5281 59.9474 56.7588 59.9474 56.375L60.2402 56.7566C60.2003 57.0428 60.1337 57.3313 60.1271 57.5154C60.2935 57.4844 60.4799 57.4422 60.704 57.3956L60.7284 57.42V57.4267H60.7306C60.4843 57.4755 60.2957 57.5177 60.1271 57.5509C60.1271 57.6264 60.1337 57.6796 60.1648 57.6996ZM59.4015 57.6663C59.4526 57.6574 59.4415 57.6619 59.4015 57.6663V57.6663ZM59.3527 56.6812C59.3505 56.6989 59.3505 56.7211 59.3505 56.7366C59.3505 56.7144 59.3505 56.6967 59.3527 56.6812ZM60.3002 44.9282C60.3157 45.0303 60.3379 45.1346 60.3534 45.2411C60.3002 45.3232 60.2447 45.3875 60.1692 45.3809L60.3002 44.9282ZM61.2942 44.1029C61.292 44.0718 61.292 44.0429 61.2897 44.0208C61.2942 43.9986 61.3053 43.9919 61.3119 43.9742C61.3075 44.0163 61.2986 44.0585 61.2942 44.1029ZM60.4089 45.5628C60.38 45.5894 60.3623 45.6249 60.3379 45.6604C60.3002 45.4963 60.3068 45.3676 60.3578 45.2588C60.3712 45.3653 60.3911 45.4608 60.4089 45.5628ZM58.7337 43.2065L58.7204 43.273C58.7137 43.2553 58.7137 43.2353 58.7137 43.2242C58.7137 43.2242 58.7226 43.2131 58.7337 43.2065ZM87.8043 30.6171L87.9906 30.5638C87.8154 30.3397 87.5979 30.1467 87.3738 29.9692C87.2806 29.6741 87.112 29.4322 86.9545 29.1527C85.7696 28.6135 82.8675 27.3066 81.1679 27.9545C80.5288 28.0632 79.608 27.8103 78.4166 28.1675L78.5674 28.4271C77.5069 28.3029 74.0455 29.4944 72.9251 29.4034C72.2084 30.0491 73.0382 29.41 73.1336 29.6253C71.6759 30.7568 71.3653 30.4507 70.4467 30.8145C69.5769 31.5578 71.2366 30.4462 70.8394 30.9632C69.284 31.7375 69.8764 32.0038 68.1036 33.1687C67.8307 33.1775 68.452 32.7338 68.5607 32.5097C67.5578 33.6501 65.359 35.4119 64.0987 37.3844C62.925 38.669 61.698 41.0409 61.3519 43.5837C61.3408 43.5637 61.3385 43.5459 61.3319 43.526H61.3385H61.3319C61.1699 43.1244 61.0168 42.7982 60.9125 41.8219L60.9858 41.7864C60.1692 38.101 60.1559 33.1775 61.789 29.6031C61.6425 29.836 61.6226 29.7495 61.5161 29.8183C62.3836 27.8525 63.899 25.9532 65.1526 23.8542C66.5017 21.8284 67.0475 18.9662 66.0246 17.2311C67.2228 20.0556 64.1409 23.71 63.0936 25.8955C62.3725 26.5323 61.8577 27.899 61.4073 28.0743C59.4947 31.154 59.8542 32.8203 59.5502 36.1463C59.4526 36.6189 59.3239 36.3815 59.1686 36.5124C59.1752 35.6071 59.1974 34.693 59.2973 33.7855C59.1819 34.3291 59.0421 34.8771 58.9755 35.4341C58.8735 34.6885 59.2595 32.9601 59.0332 32.7027C58.8047 35.1279 58.5673 39.0063 59.1819 41.0631C59.1686 40.0802 59.011 38.8621 59.0421 37.6994C59.1486 37.1869 59.2351 36.4014 59.3794 36.4614C59.6656 39.4012 59.8253 41.8796 60.2868 44.804C60.0894 44.9948 59.9784 44.2892 59.8764 44.0585C59.8542 44.2737 59.954 44.9305 59.6567 44.8772C59.528 44.7574 59.6035 44.54 59.5813 44.4135C59.5546 44.6309 59.4348 45.017 59.2351 45.0347C59.2107 44.7441 59.3794 44.6043 59.4015 44.3048C59.2573 44.3159 59.1331 44.3691 59.0288 44.125C58.7603 44.3558 59.0354 44.5422 58.8668 44.8528C58.5185 44.662 58.7648 44.043 58.7492 43.4794C58.8424 43.81 58.8269 44.2382 58.9201 44.5577L58.7514 43.1887C59.0599 42.816 59.4437 42.6961 59.619 42.4787L59.0066 42.6939C59.0554 42.3567 58.6117 42.0926 58.9378 41.7753C58.8358 41.711 58.7226 41.6822 58.6117 41.66C58.5673 41.1119 58.5451 40.6726 58.7537 40.9389C58.3432 39.5921 58.2012 37.1492 57.6287 35.4829L57.8928 35.5361C57.3492 34.6797 57.0696 32.3677 56.4617 31.7375L56.5171 31.5867L55.6673 30.0246C55.441 29.2703 55.8914 29.3989 55.7716 29.3745C55.1415 27.7526 54.66 26.4968 54.4137 25.414C54.0077 25.2653 53.2932 23.6057 52.8428 22.2678C50.2779 15.658 53.524 8.56009 56.9609 3.16177C57.5178 2.37632 57.9882 1.07833 58.5673 0C57.631 1.15155 57.6864 1.37121 56.83 2.54051C56.1 3.3659 55.6252 3.53453 54.9129 4.2046L55.421 3.95832C54.802 5.33397 54.7199 4.72824 54.3383 5.88201L53.9633 5.60022C53.9566 6.09057 53.2777 6.89821 52.9515 7.22659L53.0492 7.71695C52.4279 8.45802 52.1372 9.02825 51.7356 9.16581L52.044 9.20575C51.6402 9.40766 50.7194 12.7048 50.6418 11.4489C50.6129 11.7507 50.6484 12.0281 50.4554 12.6338L50.1536 12.656C50.0338 13.5967 49.8363 14.6041 49.6966 14.8725C49.6522 14.3489 49.6034 14.167 49.5013 13.9739C49.0598 18.0188 50.2024 14.928 50.3156 18.3449L50.127 18.325C50.2135 18.6068 50.3489 18.8775 50.451 19.1504L50.3622 20.0778C51.1854 21.1362 51.5359 24.5642 52.5433 26.2571C52.8428 26.9472 52.8317 28.01 53.3287 29.339L53.5794 29.1549C53.7237 30.3331 54.7621 34.4511 54.3538 35.6404C54.853 36.5967 54.3826 35.5139 54.6134 35.4762C55.3833 37.2867 54.893 37.5752 54.8819 38.6091C55.1969 39.8095 54.8619 37.6595 55.1703 38.2874C55.1836 40.2 55.7339 39.7851 55.6984 42.2058C55.5453 42.4499 55.5564 41.5845 55.421 41.3449C55.5187 41.7066 55.5808 42.1459 55.6252 42.6318L55.6584 43.0046C55.3678 42.5386 55.3589 43.4306 55.0527 43.0911C55.0305 42.9624 55.137 42.8115 55.2236 42.674C54.9684 42.8714 54.9617 42.1792 54.7088 42.4166L54.8885 41.7576C54.6822 41.7864 54.3849 41.995 54.467 41.4337C54.325 41.7354 54.1075 41.853 53.8834 41.944C53.8701 41.6422 53.8457 41.336 53.808 41.021C53.7525 40.4352 53.6771 39.6497 53.808 39.5322C53.9034 39.9116 53.9921 39.6032 54.0942 39.9138C53.859 39.0973 53.5883 39.8872 53.4508 38.7045L53.9833 38.7711C53.3731 38.3961 53.808 37.2867 53.2422 36.5457C53.3287 36.1907 53.6504 36.6877 53.808 37.3444C53.7237 36.5767 53.3864 36.6034 53.2222 36.0331L53.808 36.4436C53.2289 35.9488 53.5129 35.3187 53.4885 34.9038C53.3731 34.9149 53.2133 35.3475 52.9116 34.5953C52.8029 34.2647 52.9826 34.3757 53.0026 34.2714C52.8783 34.2825 52.5899 34.0939 52.317 33.6501C52.3902 33.4882 52.6853 33.841 52.8251 33.8077C52.6342 33.4416 52.4057 33.1953 52.3569 32.8713C51.8444 32.3366 52.2149 33.0222 51.8244 32.7493C51.2497 31.7975 52.175 32.3677 52.1772 31.8596C52.8672 32.3877 53.5284 33.3839 53.8302 33.7655C53.555 33.2574 53.2 32.787 52.8517 32.3255C53.0669 32.3167 52.4279 31.2472 53.0935 31.8662C52.2504 30.393 50.7682 28.9308 49.488 27.9279C49.6123 28.1342 49.8008 28.3694 49.6855 28.4094C49.0309 27.8924 49.2262 27.8214 49.1818 27.615C48.6293 27.2911 48.494 27.5618 48.068 27.4863C47.2204 26.5301 47.0118 26.5234 46.2641 25.6603L46.1731 25.9487C45.6229 25.3452 45.3233 25.6714 44.6599 25.1677C44.6444 25.0901 44.9594 25.1566 45.2235 25.2121C44.5113 24.988 44.7176 24.6707 43.9921 24.4999L44.6599 24.4311C44.1185 24.1737 43.2421 24.0162 43.6282 23.8453C42.5454 23.7876 40.7548 23.2418 39.4058 23.4881L39.4946 23.2396C38.8267 23.4881 36.9141 23.4348 36.4526 24.0384L36.3217 23.974C35.9135 24.2092 35.5363 24.4954 35.1901 24.7994C34.631 25.0324 34.631 24.6286 34.6443 24.7351C33.4639 25.4739 32.7539 26.2793 32.0705 26.8651C32.197 27.2578 31.4315 28.4271 31.1386 29.4833C29.0152 34.6242 31.9862 40.2355 34.915 43.5171C35.3055 44.0829 36.2285 44.5644 36.872 45.1191C36.2951 44.2582 36.091 44.2959 35.463 43.4905C35.1058 42.8115 35.2389 42.3833 35.0548 41.7421L34.9993 42.1659C34.2316 41.4492 34.7619 41.4958 34.0874 40.9655L34.5112 40.7591C34.1517 40.6393 33.9742 39.9315 33.9698 39.6209L33.5682 39.5344C33.4328 38.8998 33.3441 38.4982 33.5571 38.2075L33.3108 38.3762C33.3441 38.1033 32.4765 36.164 33.1977 36.6965C33.0845 36.5568 32.8959 36.4436 32.8116 36.0686L33.0823 35.9399C32.907 35.4341 32.7228 34.8549 32.8648 34.6841C32.978 34.9504 33.1377 35.028 33.2797 35.0946C33.0823 32.9468 32.1593 34.7618 32.1082 32.7271L32.3013 32.7582C32.2236 32.5829 32.1792 32.4143 32.1371 32.2368L32.4388 31.742C31.8753 30.8589 33.1977 29.0728 33.7346 28.0632C34.0119 27.6683 34.682 27.4819 35.3588 26.9938L35.1524 26.7808C35.8558 26.4768 38.4296 25.8955 39.0686 26.7009C39.6588 26.4302 39.0042 26.6343 39.0042 26.408C40.2356 26.0663 40.3244 26.6011 40.9035 26.8562C41.6756 26.8318 40.3555 26.6565 40.7881 26.5012C41.8975 26.9538 41.8376 26.3126 43.2177 27.0182C43.302 27.2201 42.8072 26.9938 42.6275 27.047C43.7391 27.0914 45.4831 28.2541 46.7722 29.2969C48.0857 30.5993 50.0249 33 50.8082 34.8705L50.9191 34.8505C51.0789 35.6914 51.6247 36.4658 51.7955 37.4997L51.8044 36.9717C52.1772 37.5707 52.155 37.9834 52.3569 38.6114L52.1195 39.0285C52.3436 39.7074 52.4279 39.3014 52.652 39.8006C52.5721 40.4441 52.7785 41.7554 52.7785 42.1414C52.7363 42.157 52.6853 42.1659 52.6409 42.1703C52.5832 42.066 52.5433 41.8708 52.49 41.8131C52.5122 41.9595 52.5433 42.0749 52.5721 42.1792C52.3502 42.2102 52.1306 42.2369 52.0662 42.6362L52.013 42.4299L51.6225 43.1577C51.4073 43.1155 51.3939 42.3478 51.4006 42.5586C50.9591 42.7405 50.6085 42.816 50.2779 42.5808C50.2934 43.273 49.8474 43.5393 49.4836 43.6902C47.5954 43.5326 45.7604 44.6221 44.4025 45.8712C44.1718 45.9644 44.0719 46.7832 43.8878 47.1759C44.2938 47.2336 44.225 46.8963 44.5756 46.7987C44.8929 46.8941 45.1902 47.5464 45.5297 47.9059L45.259 47.3844C45.4764 46.8408 45.5785 47.613 45.7005 46.9695L45.9379 47.8726C45.9047 47.3889 46.2508 47.6951 46.4083 47.8992L46.3395 47.2535C46.6479 47.5375 46.8188 47.6396 47.0229 48.1876L46.8654 47.6241C47.0274 47.9591 47.6708 47.3268 47.6464 48.3762C47.6708 48.2298 47.6686 47.928 47.8217 47.9658L47.9681 48.5404C48.1323 48.3541 48.3364 48.2032 48.4585 48.5182C48.3853 48.6758 48.3964 48.9287 48.4208 49.1883C49.2572 49.1462 48.2011 47.2779 48.9533 47.0849L49.0132 47.4665L49.133 47.0361L49.4259 47.471C49.4813 46.1375 50.5064 47.3911 50.8636 46.6301C51.0411 46.5058 51.3784 47.2469 51.7157 47.1315L51.6225 46.548C51.8199 46.8564 52.226 47.0849 52.6143 47.431C52.3258 49.0752 51.7955 50.7148 51.1077 52.0062C51.2076 51.8597 51.2386 51.933 51.3318 51.9108C50.5575 53.1755 49.6189 53.8988 48.5162 53.3552C47.3469 52.8072 46.2907 51.5669 45.3655 50.6594C46.04 52.0195 48.1079 55.1835 49.8896 54.063C50.5552 54.1407 51.0922 53.2265 51.4649 53.2598C52.9626 51.5425 52.9049 50.2999 53.3176 48.4251C53.3576 48.5249 53.4019 48.6181 53.4308 48.7268C53.6349 48.272 53.4241 48.556 53.3664 48.2032C53.3731 48.1655 53.3864 48.13 53.4019 48.0922C53.5794 47.8482 53.7037 47.877 53.808 48.0124C53.7325 48.5116 53.6394 49.0042 53.5262 49.4967L53.9766 48.3896C53.9855 48.9287 53.5084 50.098 53.7037 50.331C53.7991 49.7918 53.9389 49.1728 54.0787 48.5249C54.123 48.5981 54.1563 48.6647 54.2029 48.7179C54.3982 48.4983 54.2096 48.4805 54.1164 48.3452C54.1341 48.2675 54.1497 48.1921 54.1696 48.11C54.5757 48.3252 54.467 47.3268 55.0527 47.6751C55.1282 48.0057 54.9085 47.9081 54.8597 48.13C55.0904 47.7639 55.4676 47.7417 55.867 47.755C55.8892 48.1455 55.9136 48.5338 55.9491 48.9088C55.9558 50.4442 56.0867 52.3945 56.5637 54.4535C56.8011 55.4786 57.1539 56.5125 57.5622 57.5177L57.9194 58.2476L58.0947 58.6093L58.1901 58.789L58.2278 58.88L58.2544 58.9199L58.2655 58.9465C54.6866 59.6987 63.1402 57.9326 62.2727 58.1123V58.1078V58.0945L62.5189 56.6523L62.4213 56.5724C62.8096 55.026 62.5678 53.3286 62.5678 51.5669L62.459 52.4433C62.2216 51.2917 62.2727 50.6505 62.0841 49.5855L62.2948 49.0441C62.7253 49.8495 63.311 50.6061 63.8768 51.3516L63.4841 50.6438C64.2918 51.3494 64.6068 51.8353 65.359 52.4388L65.5676 53.0135C66.4307 53.5904 66.0734 53.1178 66.7568 53.4262C67.3737 54.1584 69.0976 54.9816 69.4615 55.1746C69.6479 55.4386 69.0488 55.168 68.8758 55.1746C69.9386 55.6383 69.994 55.3632 71.2565 55.9534L71.2388 56.0377L71.5428 56.142L71.6936 56.1864L71.7269 56.2019L71.7491 56.2152H71.7602H71.7646C76.2311 50.8458 73.0027 54.7264 73.9967 53.5283L73.9923 53.5216L73.9479 53.4706L73.5907 53.0313C73.34 52.7362 73.1181 52.4167 72.9073 52.0816C72.4591 51.4138 72.1019 50.6727 71.7868 49.9116C71.1744 48.374 70.8305 46.7077 70.8461 45.1745C70.815 45.3809 70.7529 45.3232 70.6863 45.3964C70.7085 43.77 71.292 41.9839 72.4436 41.0631C73.5441 40.0735 75.2126 40.2178 76.5772 40.7148C75.7784 40.2222 74.5537 39.6032 73.2601 39.8628C71.9577 40.0913 70.977 41.2362 70.8017 42.1969C70.2314 42.725 70.2514 43.9143 69.9097 44.1384C69.4016 46.9784 70.2314 48.1455 71.099 50.6194C71.1855 50.9966 70.9836 50.8813 70.886 51.0388C70.5687 50.3842 70.2869 49.712 70.0562 49.0175C70.1161 49.4612 70.2315 49.8983 70.3291 50.3399C69.9874 49.834 69.7322 48.4184 69.4416 48.303C70.0717 50.1846 71.1855 53.1333 72.5257 54.296C72.1396 53.6015 71.5583 52.8027 71.1833 51.9441C71.0835 51.538 70.9037 50.9389 71.0635 50.9123C71.7669 52.0284 72.3881 53.029 73.0693 54.0075L73.1381 54.1007L73.1469 54.1118V54.1185C71.2299 56.4216 72.6122 54.7575 72.1862 55.27L72.1795 55.2634L72.1551 55.2545L72.0975 55.2256L71.8822 55.128L71.4496 54.9217L70.5754 54.5045C69.994 54.1828 69.3839 53.8899 68.7604 53.5216C68.1303 53.191 67.3515 52.5698 67.3359 52.39C67.7531 52.623 67.5401 52.3257 67.8884 52.4899C67.0098 51.9818 67.4713 52.8959 66.353 51.8886L66.8278 51.6245C66.0069 51.6711 65.5676 50.3554 64.6823 49.7364C64.6068 49.3148 65.126 49.7985 65.6652 50.3754C65.1438 49.6365 64.8509 49.7763 64.4382 49.155L65.1837 49.4546C64.3894 49.0973 64.4693 48.2831 64.4138 47.8615C64.3295 47.8548 64.2074 48.2409 63.9478 47.8127C64.6667 47.6729 65.4122 47.7195 66.1467 47.4887C66.0734 47.4444 66.1134 47.3201 66.1023 47.1981C67.2694 47.1515 68.5674 47.2868 69.7522 46.0709C69.1043 46.082 68.2057 44.9438 67.3892 45.9334C67.2206 45.4674 66.7568 46.0421 66.7546 45.4097C65.8715 45.017 65.3612 46.0088 64.4848 45.9578C64.4315 45.8956 64.4293 45.7936 64.4382 45.6671C64.4227 45.6849 64.4049 45.6915 64.3894 45.7093C64.3384 45.5273 64.2829 45.3476 64.2452 45.1612C64.2607 45.1679 64.2696 45.1612 64.2829 45.1523C64.3783 45.3032 64.4693 45.4474 64.4382 45.6671C64.4449 45.5406 64.4693 45.3964 64.467 45.25L65.2037 45.0259L64.8043 44.7419C65.0217 44.4801 65.4522 44.7308 65.5742 44.196C65.3035 44.4135 64.9951 44.4645 64.6889 44.4801C64.7222 43.0489 65.1083 41.3627 65.7562 40.0136C65.5742 40.1756 65.4256 40.4308 65.3412 40.3376C65.6585 39.5366 65.8161 39.7407 66.0047 39.6542C66.231 39.0706 65.9714 38.9708 66.0047 38.5093C67.0098 37.5974 67.0164 37.3533 68.057 36.7764L67.7997 36.6189C68.5296 36.2173 68.3033 35.809 69.0777 35.352C69.1509 35.3675 68.9512 35.6448 68.7981 35.8734C69.3195 35.2943 69.4859 35.5761 69.994 35.028L69.7478 35.6515C70.1871 35.2588 70.8083 34.6486 70.744 35.0569C71.332 34.1516 72.9339 33.2463 73.9768 32.472L74.03 32.7338C74.4582 32.1147 76.2111 31.6444 76.6149 31.1119L76.7414 31.1695L77.8841 30.393C78.472 30.2421 78.3833 30.6681 78.4032 30.5505C79.6325 30.1045 80.6509 29.9137 81.4741 29.9825C81.6338 29.6164 83.025 29.4367 84.0501 29.6852C86.6904 30.2665 87.2141 33.253 86.5995 35.9022C86.0692 38.5958 84.9775 41.1918 83.8837 43.5393C83.5286 44.2249 83.289 45.3254 82.9296 46.2462C83.6085 45.2588 83.5442 45.0947 84.1255 44.0696C84.6336 43.344 85.1106 43.2353 85.6543 42.6496L85.2194 42.8626C85.5566 41.6822 85.7497 42.2058 85.9005 41.2073L86.2977 41.447C86.2245 41.0365 86.7747 40.362 87.0144 40.0735L86.8391 39.6542C87.2984 39.0196 87.5291 38.5514 87.8886 38.4272L87.5868 38.3961C87.9218 38.2186 88.3878 35.4585 88.6407 36.4991C88.6252 36.2506 88.532 36.0065 88.6585 35.5006L88.9625 35.4651C89.0179 34.6908 88.9802 33.7921 89.1599 33.5547C89.2087 33.9918 89.3308 34.1538 89.455 34.3113C89.2931 30.6858 88.7694 33.5525 87.8043 30.6171Z" fill="#383838"/>
<path d="M69.2565 49.2834C69.3275 48.7065 69.079 48.478 69.0191 47.7236L68.8105 47.992C68.9281 48.4358 69.0946 48.8618 69.2565 49.2834Z" fill="#383838"/>
<path d="M69.7879 48.3049L69.8256 47.8855L69.6104 47.2421L69.7879 48.3049Z" fill="#383838"/>
<path d="M65.4961 49.2964L65.5671 49.4428C65.9709 49.8466 66.3969 50.2083 66.8473 50.5544C66.3703 50.1706 65.9199 49.7446 65.4961 49.2964Z" fill="#383838"/>
<path d="M66.8486 50.5553C67.0261 50.6951 67.2147 50.8371 67.4011 50.9702C67.2103 50.8415 67.035 50.6951 66.8486 50.5553Z" fill="#383838"/>
<path d="M69.3944 36.0065L69.248 36.0819C69.1326 36.3504 68.8353 36.5789 68.7021 36.8319L69.3944 36.0065Z" fill="#383838"/>
<path d="M78.5149 31.8486C78.7457 31.3028 79.2494 31.6245 78.6325 31.3849C78.0756 31.6378 78.6303 31.6534 78.5149 31.8486Z" fill="#383838"/>
<path d="M80.5561 30.6684C80.2188 30.7039 80.0347 30.8259 79.8594 30.9236C80.3564 31.0278 80.3253 30.7904 80.5561 30.6684Z" fill="#383838"/>
<path d="M72.2634 45.7826C72.4453 45.6318 72.33 45.3233 72.219 45.0615L71.915 45.7516L72.2634 45.7826Z" fill="#383838"/>
<path d="M70.9961 46.6823C71.533 46.5979 71.3666 45.8302 71.5419 45.4242L70.9983 46.0921L71.3511 45.7903C71.5708 46.2318 71.1403 46.5669 70.9961 46.6823Z" fill="#383838"/>
<path d="M55.1104 42.2783C55.1924 42.3782 55.2768 42.4492 55.2679 42.5867C55.3433 42.4403 55.3611 42.3205 55.1104 42.2783Z" fill="#383838"/>
<path d="M55.2256 42.6736L55.27 42.6358V42.5826L55.2256 42.6736Z" fill="#383838"/>
<path d="M65.8477 43.0668L65.3906 43.3486C65.5082 43.7702 65.6369 43.4396 65.8588 43.5727L65.8477 43.0668Z" fill="#383838"/>
<path d="M65.5691 45.0784L65.8132 44.8765L65.4648 44.8632L65.5691 45.0784Z" fill="#383838"/>
<path d="M55.4377 41.4272L55.0605 41.6935L55.1182 41.7712C55.2092 41.5027 55.3401 41.6092 55.4377 41.4272Z" fill="#383838"/>
<path d="M51.2081 40.8373C51.4256 40.6664 51.1837 40.327 51.2214 40.0252C51.1726 40.9349 50.9197 40.0407 51.2081 40.8373Z" fill="#383838"/>
<path d="M50.5029 41.416C50.6383 41.4293 50.6937 41.2918 50.7492 41.1498C50.5229 40.7681 50.5761 41.2318 50.5029 41.416Z" fill="#383838"/>
<path d="M13.0529 96.0655H8.77734L8.83503 95.908C9.06135 95.9014 9.21001 95.8836 9.28545 95.8481C9.40748 95.7993 9.49401 95.7327 9.5517 95.6484C9.63823 95.5197 9.73142 95.2845 9.83127 94.9473L10.8497 91.4305C10.9407 91.1443 10.9784 90.9313 10.9784 90.7893C10.9784 90.6872 10.9429 90.6029 10.8608 90.5385C10.7831 90.4809 10.6367 90.452 10.4192 90.452C10.3727 90.452 10.3349 90.452 10.3061 90.4498L10.3593 90.29H12.709L12.6758 90.4498C12.4139 90.4498 12.2231 90.472 12.1122 90.523C12.0079 90.5763 11.9103 90.6584 11.8415 90.7737C11.7882 90.8536 11.7039 91.0932 11.5885 91.4904L10.5879 94.9473C10.5102 95.2069 10.4703 95.3866 10.4703 95.4887C10.4703 95.5574 10.5102 95.6218 10.5879 95.6883C10.6367 95.7305 10.7432 95.7483 10.914 95.7483H11.4732C11.8748 95.7483 12.1987 95.6994 12.4383 95.5929C12.6136 95.5153 12.7756 95.4043 12.922 95.249C13.0019 95.1625 13.1395 94.9561 13.3436 94.6122L13.4546 94.4214H13.6099L13.0529 96.0655Z" fill="#383838"/>
<path d="M16.0292 90.5192C16.1468 90.5192 16.2488 90.5613 16.3287 90.6456C16.4086 90.7299 16.453 90.8254 16.453 90.9429C16.453 91.0628 16.4086 91.1626 16.3243 91.2469C16.2444 91.3312 16.1423 91.3734 16.0292 91.3734C15.916 91.3734 15.8117 91.3312 15.7252 91.2469C15.6453 91.1626 15.6076 91.0628 15.6076 90.9429C15.6076 90.8254 15.6453 90.7299 15.7252 90.6456C15.8095 90.5613 15.9071 90.5192 16.0292 90.5192ZM16.0846 92.2121L15.2326 95.1941C15.186 95.3961 15.1572 95.5159 15.1572 95.558C15.1572 95.6024 15.1661 95.6401 15.1949 95.6668C15.2193 95.6978 15.2548 95.7111 15.2881 95.7111C15.3325 95.7111 15.3857 95.6912 15.4479 95.6423C15.6098 95.5114 15.7718 95.3339 15.9293 95.0987L16.0846 95.1941C15.8916 95.4915 15.6675 95.74 15.3968 95.9419C15.2082 96.0883 15.0241 96.1638 14.851 96.1638C14.7267 96.1638 14.6358 96.1283 14.5648 96.0639C14.4893 95.9929 14.4561 95.9086 14.4561 95.7977C14.4561 95.6956 14.4893 95.5181 14.5581 95.2763L15.1084 93.3681C15.1971 93.0575 15.2482 92.8622 15.2482 92.7823C15.2482 92.718 15.226 92.667 15.186 92.627C15.135 92.5871 15.0795 92.5671 15.0019 92.5671C14.942 92.5671 14.8111 92.5826 14.6136 92.6159V92.4495L16.0846 92.2121Z" fill="#383838"/>
<path d="M19.5672 93.1451C19.5672 92.9188 19.5095 92.739 19.3741 92.6104C19.2477 92.4772 19.0768 92.4151 18.8816 92.4151C18.5643 92.4151 18.2936 92.5726 18.085 92.8966C17.8787 93.2139 17.7744 93.5511 17.7744 93.9039C17.7744 94.1191 17.8387 94.2989 17.9741 94.4364C18.1072 94.5784 18.267 94.6494 18.46 94.6494C18.6109 94.6494 18.7573 94.605 18.8971 94.5252C19.0347 94.4409 19.1523 94.3255 19.2566 94.1835C19.3453 94.0393 19.4274 93.8507 19.4829 93.6266C19.5361 93.4047 19.5672 93.2449 19.5672 93.1451ZM17.5281 96.065C17.2951 96.1693 17.1243 96.3069 17.0089 96.471C16.8891 96.633 16.8314 96.7972 16.8314 96.9547C16.8314 97.1411 16.9113 97.2964 17.0799 97.4185C17.3262 97.596 17.6834 97.6825 18.1538 97.6825C18.5643 97.6825 18.9104 97.6115 19.1944 97.4739C19.4873 97.3364 19.6271 97.1567 19.6271 96.9392C19.6271 96.8261 19.5783 96.7284 19.4718 96.6241C19.3631 96.5287 19.1545 96.4466 18.8505 96.3823C18.6819 96.349 18.2381 96.2425 17.5281 96.065ZM21.0382 92.475L20.9206 92.9188H20.2062C20.2617 93.0719 20.2883 93.2139 20.2883 93.3448C20.2883 93.722 20.133 94.057 19.8112 94.3477C19.4895 94.6405 19.0502 94.8025 18.4889 94.8336C18.1915 94.9268 17.9674 95.0311 17.8143 95.1553C17.7544 95.2019 17.73 95.2485 17.73 95.2995C17.73 95.355 17.7544 95.4082 17.8055 95.4526C17.8565 95.4992 17.9852 95.548 18.1982 95.5924L19.0191 95.7899C19.4829 95.8964 19.778 96.0228 19.9244 96.1693C20.0731 96.3202 20.1418 96.4932 20.1418 96.6885C20.1418 96.9237 20.0575 97.1345 19.8823 97.3297C19.7181 97.5228 19.4673 97.6759 19.1345 97.7801C18.8061 97.8933 18.4423 97.9443 18.0362 97.9443C17.6834 97.9443 17.3639 97.9044 17.0733 97.8201C16.787 97.7358 16.574 97.6226 16.4542 97.4784C16.3255 97.343 16.2656 97.1922 16.2656 97.0435C16.2656 96.9215 16.3056 96.795 16.3899 96.6641C16.4675 96.5287 16.5718 96.4222 16.6894 96.3379C16.7693 96.2824 16.9867 96.156 17.3395 95.9563C17.2153 95.8498 17.1487 95.7411 17.1487 95.619C17.1487 95.5037 17.2042 95.3816 17.3173 95.2552C17.4371 95.1265 17.6834 94.9845 18.0517 94.8336C17.7389 94.7759 17.4926 94.6406 17.3062 94.4453C17.1243 94.2412 17.0311 94.0149 17.0311 93.7686C17.0311 93.3647 17.2108 93.0075 17.5614 92.6858C17.9164 92.3707 18.389 92.2132 18.9792 92.2132C19.1878 92.2132 19.3586 92.2309 19.4984 92.2753C19.6293 92.3175 19.7647 92.3863 19.8956 92.475H21.0382V92.475Z" fill="#383838"/>
<path d="M23.5893 90.0092L22.3912 94.1428C22.9126 93.3618 23.3142 92.847 23.6004 92.5963C23.8955 92.3367 24.164 92.2102 24.4347 92.2102C24.57 92.2102 24.6854 92.2568 24.7764 92.3523C24.8629 92.441 24.9095 92.5719 24.9095 92.7272C24.9095 92.9114 24.8718 93.1421 24.7941 93.404L24.2705 95.1879C24.2083 95.4053 24.1773 95.5229 24.1773 95.5473C24.1773 95.5872 24.1862 95.6205 24.2083 95.6472C24.235 95.6693 24.2638 95.6871 24.2927 95.6871C24.3282 95.6871 24.3747 95.6671 24.4258 95.6294C24.5833 95.5029 24.7408 95.3299 24.9006 95.108L25.0315 95.1879C24.9361 95.341 24.803 95.5052 24.6299 95.6871C24.4613 95.8668 24.3126 95.9911 24.1884 96.0621C24.0663 96.1286 23.9554 96.1641 23.8556 96.1641C23.7557 96.1641 23.667 96.1286 23.6004 96.0643C23.5338 95.9977 23.5028 95.9134 23.5028 95.8069C23.5028 95.6827 23.5494 95.4475 23.6492 95.108L24.1418 93.404C24.2039 93.191 24.235 93.0268 24.235 92.9025C24.235 92.847 24.215 92.8005 24.1795 92.7672C24.1484 92.7339 24.1018 92.7161 24.0419 92.7161C23.9576 92.7161 23.8644 92.7516 23.7601 92.8093C23.5671 92.9314 23.3452 93.151 23.0879 93.475C23.0235 93.5593 22.7994 93.9165 22.4133 94.5378C22.2935 94.7397 22.1937 94.9549 22.1182 95.1879L21.8453 96.0643H21.2041L22.6086 91.1896L22.7573 90.666C22.7573 90.5905 22.724 90.5262 22.6663 90.4707C22.6019 90.413 22.5287 90.3842 22.44 90.3842C22.3867 90.3842 22.3157 90.3908 22.207 90.4086L22.1182 90.4219V90.2555L23.5893 90.0092Z" fill="#383838"/>
<path d="M27.6604 91.1545L27.3253 92.3083H27.9932L27.92 92.5834H27.2543L26.5244 95.0928C26.4489 95.3613 26.4001 95.5322 26.4001 95.6165C26.4001 95.6608 26.4179 95.7052 26.44 95.7296C26.4622 95.754 26.4889 95.7673 26.5221 95.7673C26.5931 95.7673 26.6841 95.7141 26.795 95.6165C26.8683 95.5566 27.0214 95.3813 27.2543 95.0928L27.3941 95.1993C27.139 95.5765 26.886 95.8472 26.6553 96.0048C26.4955 96.109 26.3402 96.1645 26.1738 96.1645C26.054 96.1645 25.9475 96.1223 25.8698 96.0513C25.7899 95.967 25.75 95.8694 25.75 95.7474C25.75 95.5921 25.7944 95.3569 25.8876 95.0396L26.5998 92.5834H25.9563L25.9985 92.4148C26.3091 92.326 26.571 92.204 26.7751 92.0331C26.9859 91.8645 27.2144 91.5716 27.4673 91.1545H27.6604V91.1545Z" fill="#383838"/>
<path d="M29.7645 90.5192C29.8866 90.5192 29.9864 90.5613 30.0641 90.6456C30.155 90.7299 30.1905 90.8254 30.1905 90.9429C30.1905 91.0628 30.155 91.1626 30.0641 91.2469C29.9797 91.3312 29.8799 91.3734 29.7645 91.3734C29.6469 91.3734 29.5449 91.3312 29.4628 91.2469C29.3762 91.1626 29.3385 91.0628 29.3385 90.9429C29.3385 90.8254 29.3762 90.7299 29.4628 90.6456C29.5449 90.5613 29.6425 90.5192 29.7645 90.5192ZM29.82 92.2121L28.9769 95.1941C28.9192 95.3961 28.8925 95.5159 28.8925 95.558C28.8925 95.6024 28.9059 95.6401 28.9303 95.6668C28.9591 95.6978 28.9902 95.7111 29.0235 95.7111C29.0745 95.7111 29.1233 95.6912 29.181 95.6423C29.343 95.5114 29.5027 95.3339 29.6669 95.0987L29.82 95.1941C29.627 95.4915 29.3984 95.74 29.1433 95.9419C28.9458 96.0883 28.7616 96.1638 28.5841 96.1638C28.4688 96.1638 28.3756 96.1283 28.3001 96.0639C28.2247 95.9929 28.1914 95.9086 28.1914 95.7977C28.1914 95.6956 28.2247 95.5181 28.2935 95.2763L28.8459 93.3681C28.9369 93.0575 28.9813 92.8622 28.9813 92.7823C28.9813 92.718 28.9613 92.667 28.9192 92.627C28.8748 92.5871 28.8149 92.5671 28.7328 92.5671C28.6773 92.5671 28.5442 92.5826 28.3489 92.6159V92.4495L29.82 92.2121Z" fill="#383838"/>
<path d="M32.3364 92.2132L31.7728 94.148C32.3031 93.3581 32.7069 92.8367 32.9865 92.5882C33.2683 92.3352 33.5434 92.2132 33.8008 92.2132C33.9494 92.2132 34.067 92.2576 34.158 92.353C34.249 92.4439 34.2956 92.5682 34.2956 92.7191C34.2956 92.8899 34.2512 93.114 34.1735 93.4002L33.6521 95.1908C33.5922 95.4038 33.5612 95.5236 33.5612 95.568C33.5612 95.6124 33.5767 95.6434 33.5944 95.6723C33.6211 95.6989 33.6432 95.7122 33.6721 95.7122C33.7054 95.7122 33.7431 95.6967 33.7919 95.6523C33.9494 95.5347 34.107 95.3572 34.2867 95.1087L34.4154 95.1908C34.158 95.5658 33.9051 95.8365 33.6721 96.0007C33.5057 96.1094 33.3592 96.1649 33.2306 96.1649C33.1218 96.1649 33.0397 96.1338 32.9776 96.0739C32.9177 96.0051 32.8844 95.9208 32.8844 95.8143C32.8844 95.6789 32.9288 95.4438 33.0286 95.1087L33.5212 93.4002C33.5833 93.1872 33.6144 93.0208 33.6144 92.9032C33.6144 92.8433 33.5944 92.7989 33.5589 92.7634C33.5212 92.7279 33.4768 92.7102 33.4236 92.7102C33.3437 92.7102 33.2483 92.7457 33.1396 92.8123C32.9266 92.9387 32.7069 93.1473 32.4806 93.4446C32.2565 93.7397 32.0169 94.1147 31.7595 94.5673C31.6286 94.8092 31.5199 95.0777 31.4289 95.3594L31.2181 96.0672H30.5791L31.3512 93.4002C31.4378 93.0763 31.4844 92.8833 31.4844 92.8234C31.4844 92.759 31.4644 92.7035 31.4134 92.6569C31.3668 92.6104 31.3069 92.5882 31.2336 92.5882C31.1959 92.5882 31.1405 92.5904 31.0539 92.6059L30.8897 92.6281L30.8653 92.475L32.3364 92.2132Z" fill="#383838"/>
<path d="M37.8372 93.1451C37.8372 92.9188 37.7728 92.739 37.6463 92.6104C37.5221 92.4772 37.3557 92.4151 37.1493 92.4151C36.8298 92.4151 36.5636 92.5726 36.3617 92.8966C36.1464 93.2139 36.0466 93.5511 36.0466 93.9039C36.0466 94.1191 36.1132 94.2989 36.2485 94.4364C36.3772 94.5784 36.5347 94.6494 36.7322 94.6494C36.8853 94.6494 37.0251 94.605 37.1693 94.5252C37.3047 94.4409 37.4222 94.3255 37.5221 94.1835C37.6197 94.0393 37.6974 93.8507 37.7528 93.6266C37.8061 93.4047 37.8372 93.2449 37.8372 93.1451ZM35.7981 96.065C35.5651 96.1693 35.3921 96.3069 35.2767 96.471C35.1613 96.633 35.1036 96.7972 35.1036 96.9547C35.1036 97.1411 35.1901 97.2964 35.3566 97.4185C35.5962 97.596 35.9556 97.6825 36.4282 97.6825C36.832 97.6825 37.1782 97.6115 37.4688 97.4739C37.7551 97.3364 37.8993 97.1567 37.8993 96.9392C37.8993 96.8261 37.8505 96.7284 37.7395 96.6241C37.6353 96.5287 37.4289 96.4466 37.1249 96.3823C36.9541 96.349 36.5148 96.2425 35.7981 96.065ZM39.3149 92.475L39.1862 92.9188H38.4762C38.5339 93.0719 38.5605 93.2139 38.5605 93.3448C38.5605 93.722 38.403 94.057 38.0879 94.3477C37.7662 94.6405 37.3202 94.8025 36.7677 94.8336C36.4637 94.9268 36.2396 95.0311 36.0888 95.1553C36.0311 95.2019 36.0044 95.2485 36.0044 95.2995C36.0044 95.355 36.0266 95.4082 36.0799 95.4526C36.1287 95.4992 36.2574 95.548 36.4659 95.5924L37.2936 95.7899C37.744 95.8964 38.0524 96.0228 38.1988 96.1693C38.343 96.3202 38.4185 96.4932 38.4185 96.6885C38.4185 96.9237 38.3319 97.1345 38.1611 97.3297C37.9836 97.5228 37.7307 97.6759 37.4067 97.7801C37.0761 97.8933 36.71 97.9443 36.3106 97.9443C35.9556 97.9443 35.6361 97.9044 35.3432 97.8201C35.057 97.7358 34.8529 97.6226 34.722 97.4784C34.5999 97.343 34.54 97.1922 34.54 97.0435C34.54 96.9215 34.5778 96.795 34.6599 96.6641C34.7375 96.5287 34.8418 96.4222 34.966 96.3379C35.0437 96.2824 35.2567 96.156 35.6162 95.9563C35.483 95.8498 35.4187 95.7411 35.4187 95.619C35.4187 95.5037 35.4741 95.3816 35.594 95.2552C35.7027 95.1265 35.949 94.9845 36.3239 94.8336C36.0089 94.7759 35.7604 94.6406 35.5762 94.4453C35.3987 94.2412 35.3033 94.0149 35.3033 93.7686C35.3033 93.3647 35.4808 93.0075 35.8358 92.6858C36.1864 92.3707 36.6568 92.2132 37.2425 92.2132C37.46 92.2132 37.6353 92.2309 37.7706 92.2753C37.9126 92.3175 38.0368 92.3863 38.1655 92.475H39.3149V92.475Z" fill="#383838"/>
<path d="M39.856 95.3017C39.9736 95.3017 40.0801 95.3416 40.1622 95.4237C40.2487 95.5103 40.2864 95.6145 40.2864 95.7321C40.2864 95.8475 40.2487 95.954 40.1622 96.0383C40.0734 96.1204 39.9736 96.1626 39.856 96.1626C39.7384 96.1626 39.6319 96.1204 39.5498 96.0383C39.4655 95.954 39.4277 95.8475 39.4277 95.7321C39.4277 95.6145 39.4655 95.5103 39.5498 95.4237C39.6319 95.3416 39.7384 95.3017 39.856 95.3017Z" fill="#383838"/>
<path d="M42.0345 95.3017C42.1565 95.3017 42.2586 95.3416 42.3429 95.4237C42.4206 95.5103 42.4694 95.6145 42.4694 95.7321C42.4694 95.8475 42.4206 95.954 42.3429 96.0383C42.2586 96.1204 42.1521 96.1626 42.0345 96.1626C41.9169 96.1626 41.817 96.1204 41.7283 96.0383C41.6462 95.954 41.5996 95.8475 41.5996 95.7321C41.5996 95.6145 41.6462 95.5103 41.7283 95.4237C41.817 95.3416 41.9169 95.3017 42.0345 95.3017Z" fill="#383838"/>
<path d="M44.2144 95.3017C44.3386 95.3017 44.4429 95.3416 44.5228 95.4237C44.6115 95.5103 44.6515 95.6145 44.6515 95.7321C44.6515 95.8475 44.6071 95.954 44.5206 96.0383C44.434 96.1204 44.332 96.1626 44.2144 96.1626C44.0968 96.1626 43.9969 96.1204 43.9082 96.0383C43.8216 95.954 43.7861 95.8475 43.7861 95.7321C43.7861 95.6145 43.8216 95.5103 43.9082 95.4237C43.9969 95.3416 44.0968 95.3017 44.2144 95.3017Z" fill="#383838"/>
<path d="M48.344 90.2919L50.1301 94.8205L51.0931 91.439C51.1729 91.1573 51.2129 90.942 51.2129 90.7889C51.2129 90.6891 51.1774 90.6048 51.1042 90.5404C51.0309 90.4805 50.8912 90.4539 50.6915 90.4539C50.6604 90.4539 50.6227 90.4539 50.5827 90.4495L50.6316 90.2919H52.4887L52.4354 90.4495C52.2424 90.4472 52.0982 90.4672 52.0094 90.5072C51.8741 90.5671 51.772 90.6469 51.7032 90.7357C51.6189 90.8733 51.5191 91.1018 51.4281 91.439L50.0724 96.1983H49.9149L47.9979 91.3259L46.9728 94.927C46.8996 95.1932 46.8574 95.404 46.8574 95.5482C46.8574 95.6547 46.8885 95.7413 46.9639 95.799C47.0305 95.8478 47.1991 95.8877 47.4609 95.9077L47.4165 96.0674H45.6016L45.6659 95.9077C45.8878 95.901 46.0409 95.8833 46.1185 95.8478C46.2339 95.799 46.3205 95.7302 46.3781 95.6481C46.4625 95.5238 46.5534 95.2842 46.6555 94.927L47.8004 90.911C47.6894 90.7357 47.5696 90.6203 47.4409 90.5582C47.3211 90.4916 47.1192 90.4583 46.853 90.4495L46.9018 90.2919H48.344V90.2919Z" fill="#383838"/>
<path d="M52.7299 94.2478C53.1426 94.2034 53.4843 94.1191 53.7527 94.0038C54.1033 93.8484 54.3673 93.6621 54.5404 93.4446C54.709 93.225 54.8 93.0208 54.8 92.8256C54.8 92.7035 54.7623 92.6126 54.6846 92.5371C54.6136 92.4617 54.5071 92.4218 54.3673 92.4218C54.0767 92.4218 53.7705 92.5793 53.4465 92.8877C53.1204 93.1939 52.8808 93.6488 52.7299 94.2478ZM52.6966 94.4608C52.6744 94.6006 52.6677 94.7204 52.6677 94.8092C52.6677 95.0621 52.7521 95.284 52.9362 95.4571C53.1137 95.6346 53.3289 95.7255 53.5885 95.7255C53.7927 95.7255 53.9857 95.6812 54.1765 95.5968C54.3673 95.5125 54.6469 95.3306 55.0197 95.0421L55.1062 95.162C54.4339 95.8343 53.7949 96.1671 53.1803 96.1671C52.7676 96.1671 52.4592 96.0406 52.2462 95.7766C52.0376 95.5103 51.9355 95.2241 51.9355 94.909C51.9355 94.4919 52.0665 94.057 52.3261 93.6133C52.5834 93.1673 52.9118 92.8256 53.309 92.5815C53.7017 92.3352 54.1077 92.2132 54.5249 92.2132C54.8244 92.2132 55.0463 92.2753 55.1927 92.3929C55.3347 92.5172 55.408 92.6636 55.408 92.8256C55.408 93.0652 55.3148 93.2893 55.1306 93.5112C54.8821 93.7908 54.5204 94.0149 54.039 94.1879C53.7195 94.3033 53.2735 94.3965 52.6966 94.4608Z" fill="#383838"/>
<path d="M59.3557 92.2132L59.6531 95.4038C60.1456 94.8247 60.5361 94.2833 60.8357 93.773C61.0065 93.4779 61.0908 93.2582 61.0908 93.1273C61.0908 93.0652 61.0753 93.0097 61.0465 92.9631C61.0376 92.9365 60.9976 92.901 60.9155 92.85C60.8401 92.799 60.7891 92.7501 60.7536 92.6947C60.727 92.6414 60.7048 92.5882 60.7048 92.5283C60.7048 92.4417 60.738 92.3619 60.8046 92.3042C60.869 92.242 60.9488 92.2132 61.0553 92.2132C61.1729 92.2132 61.2683 92.2531 61.3482 92.3441C61.4325 92.4262 61.4747 92.546 61.4747 92.6858C61.4747 92.8367 61.4525 92.9742 61.4059 93.1051C61.3216 93.3448 61.1574 93.6621 60.9133 94.0459C60.6071 94.5096 60.2987 94.9401 59.9792 95.335C59.6575 95.73 59.4245 96.0073 59.2648 96.1649H59.105L58.8343 93.2205L57.077 96.1649H56.8862C56.8707 94.9578 56.8064 93.9993 56.7065 93.2982C56.6599 93.0053 56.5933 92.8123 56.4935 92.7257C56.4203 92.6592 56.3116 92.6237 56.1696 92.6237C56.0875 92.6237 55.981 92.6303 55.8545 92.6503V92.4928L57.077 92.2132C57.2457 92.6836 57.3544 93.4158 57.4076 94.3965C57.4232 94.767 57.4387 94.9978 57.4498 95.0998L59.2004 92.2132H59.3557V92.2132Z" fill="#383838"/>
<path d="M67.8509 90.4329C67.5625 90.4329 67.2873 90.5017 67.0166 90.6415C66.7459 90.779 66.4797 91.0098 66.2112 91.3337C65.9472 91.651 65.7031 92.0682 65.4946 92.5851C65.2283 93.2197 65.1018 93.821 65.1018 94.3846C65.1018 94.7884 65.2039 95.1456 65.4125 95.454C65.6166 95.7691 65.9339 95.9222 66.3643 95.9222C66.6239 95.9222 66.8746 95.8601 67.1231 95.7314C67.3739 95.6027 67.6312 95.3808 67.8953 95.0768C68.2436 94.6863 68.5254 94.1915 68.7495 93.588C68.9803 92.9823 69.0979 92.4187 69.0979 91.9017C69.0979 91.5157 68.9914 91.1718 68.7828 90.8767C68.5809 90.5793 68.2636 90.4329 67.8509 90.4329ZM67.9973 90.1578C68.3768 90.1578 68.7118 90.2465 69.0091 90.4063C69.3064 90.5727 69.5372 90.819 69.7058 91.1451C69.8767 91.4713 69.961 91.8086 69.961 92.1547C69.961 92.7737 69.779 93.4238 69.4152 94.1006C69.0624 94.7862 68.592 95.3009 68.0129 95.6582C67.4316 96.0176 66.828 96.1951 66.2112 96.1951C65.7652 96.1951 65.3947 96.0975 65.0974 95.9C64.7979 95.7048 64.576 95.4429 64.4295 95.1168C64.2897 94.7973 64.2188 94.4844 64.2188 94.1782C64.2188 93.6391 64.3519 93.1066 64.607 92.5807C64.8666 92.0526 65.175 91.6111 65.5389 91.2561C65.9006 90.9033 66.2844 90.6348 66.6905 90.4462C67.101 90.2532 67.5358 90.1578 67.9973 90.1578Z" fill="#383838"/>
<path d="M70.4505 92.4506L71.9237 92.2132L71.3047 94.2789C71.8017 93.4313 72.2521 92.8389 72.6604 92.4994C72.8911 92.3064 73.0797 92.2132 73.2217 92.2132C73.3171 92.2132 73.3859 92.242 73.4392 92.2931C73.4969 92.3485 73.519 92.4306 73.519 92.5371C73.519 92.7257 73.4747 92.9032 73.3748 93.0741C73.3105 93.2006 73.2106 93.2649 73.0842 93.2649C73.022 93.2649 72.9644 93.2427 72.92 93.2006C72.8667 93.1584 72.8423 93.0896 72.829 93.0053C72.8246 92.9476 72.809 92.9121 72.7891 92.8966C72.7691 92.8766 72.7403 92.8633 72.7114 92.8633C72.6604 92.8633 72.6116 92.8766 72.5761 92.8966C72.5006 92.9365 72.3897 93.0475 72.2366 93.2272C71.997 93.5112 71.7462 93.8706 71.4667 94.31C71.3535 94.4985 71.2537 94.7093 71.1649 94.9467C71.0473 95.2662 70.9785 95.4615 70.9563 95.5281L70.821 96.0672H70.1709L70.9563 93.4202C71.0518 93.1118 71.0961 92.8966 71.0961 92.7701C71.0961 92.7146 71.0717 92.668 71.034 92.6392C70.9741 92.5904 70.8964 92.5682 70.8055 92.5682C70.7456 92.5682 70.6391 92.586 70.4771 92.6126L70.4505 92.4506Z" fill="#383838"/>
<path d="M76.1527 90.0092L74.695 95.0769C74.6262 95.3299 74.584 95.483 74.584 95.5429C74.584 95.5828 74.6018 95.6161 74.6306 95.6472C74.6573 95.6716 74.6905 95.6893 74.7327 95.6893C74.7882 95.6893 74.8481 95.6627 74.9035 95.6161C75.0566 95.5007 75.2097 95.321 75.3673 95.0769L75.5004 95.2056C75.2297 95.5872 74.979 95.8513 74.7504 96.0044C74.5818 96.1087 74.4309 96.1641 74.2734 96.1641C74.1647 96.1641 74.0759 96.1286 74.0094 96.051C73.9339 95.9822 73.8984 95.8979 73.8984 95.798C73.8984 95.6982 73.9473 95.4874 74.0338 95.1679L75.1876 91.1741C75.2763 90.8479 75.3273 90.6615 75.3273 90.6127C75.3273 90.5462 75.2985 90.4907 75.2475 90.4441C75.192 90.4019 75.1143 90.3798 74.9945 90.3798C74.9302 90.3798 74.8303 90.3908 74.695 90.4086V90.2488L76.1527 90.0092Z" fill="#383838"/>
<path d="M77.0505 94.2478C77.4676 94.2034 77.8115 94.1191 78.08 94.0038C78.4261 93.8484 78.6835 93.6621 78.861 93.4446C79.0385 93.225 79.125 93.0208 79.125 92.8256C79.125 92.7035 79.0873 92.6126 79.0119 92.5371C78.9386 92.4617 78.8255 92.4218 78.6924 92.4218C78.4017 92.4218 78.0911 92.5793 77.7671 92.8877C77.4432 93.1939 77.2058 93.6488 77.0505 94.2478ZM77.0216 94.4608C76.9994 94.6006 76.9905 94.7204 76.9905 94.8092C76.9905 95.0621 77.0837 95.284 77.259 95.4571C77.4387 95.6346 77.6584 95.7255 77.9113 95.7255C78.1133 95.7255 78.3152 95.6812 78.4971 95.5968C78.6924 95.5125 78.9653 95.3306 79.3402 95.0421L79.4268 95.162C78.7567 95.8343 78.1132 96.1671 77.5053 96.1671C77.097 96.1671 76.782 96.0406 76.569 95.7766C76.3604 95.5103 76.2539 95.2241 76.2539 94.909C76.2539 94.4919 76.387 94.057 76.6466 93.6133C76.9084 93.1673 77.2368 92.8256 77.6296 92.5815C78.0267 92.3352 78.4305 92.2132 78.8477 92.2132C79.1494 92.2132 79.3713 92.2753 79.5155 92.3929C79.6597 92.5172 79.733 92.6636 79.733 92.8256C79.733 93.0652 79.6376 93.2893 79.449 93.5112C79.2027 93.7908 78.8388 94.0149 78.364 94.1879C78.0378 94.3033 77.5985 94.3965 77.0216 94.4608Z" fill="#383838"/>
<path d="M82.782 92.4306C82.5934 92.4306 82.4071 92.5172 82.2007 92.6858C81.9145 92.9321 81.6549 93.2871 81.4286 93.7619C81.2023 94.2389 81.0891 94.665 81.0891 95.0421C81.0891 95.2418 81.1401 95.3949 81.2355 95.5037C81.3309 95.619 81.4397 95.6723 81.5684 95.6723C81.8768 95.6723 82.214 95.4437 82.5757 94.9845C83.0594 94.3832 83.3057 93.7575 83.3057 93.1207C83.3057 92.8766 83.2591 92.7035 83.1614 92.597C83.0683 92.4861 82.944 92.4306 82.782 92.4306ZM84.2953 92.2132L83.4654 95.0998L83.37 95.4837C83.3656 95.5236 83.3611 95.5569 83.3611 95.5791C83.3611 95.6257 83.37 95.6634 83.4033 95.6989C83.4233 95.7255 83.4521 95.7344 83.4898 95.7344C83.5275 95.7344 83.5719 95.7144 83.6296 95.6678C83.7428 95.5835 83.887 95.4149 84.0734 95.1553L84.2176 95.2574C84.0201 95.5569 83.8204 95.7766 83.6141 95.9341C83.4055 96.085 83.2191 96.1649 83.0394 96.1649C82.9174 96.1649 82.8308 96.1338 82.7621 96.0783C82.7022 96.014 82.6733 95.9274 82.6733 95.8098C82.6733 95.6723 82.7022 95.4881 82.7687 95.2574L82.8597 94.9401C82.4825 95.426 82.1452 95.7699 81.828 95.9563C81.6039 96.0983 81.3864 96.1649 81.1734 96.1649C80.9715 96.1649 80.7873 96.0828 80.632 95.9097C80.4834 95.7344 80.4102 95.5037 80.4102 95.1997C80.4102 94.7515 80.5411 94.2722 80.8162 93.7708C81.0891 93.2693 81.4286 92.8722 81.8479 92.5682C82.1763 92.3286 82.4781 92.2132 82.7709 92.2132C82.9462 92.2132 83.0882 92.2576 83.2058 92.3485C83.3145 92.4417 83.4033 92.5882 83.4654 92.799L83.6207 92.3108L84.2953 92.2132Z" fill="#383838"/>
<path d="M86.3081 92.2132L85.7467 94.148C86.277 93.3581 86.683 92.8367 86.9626 92.5882C87.2466 92.3352 87.5195 92.2132 87.7813 92.2132C87.9211 92.2132 88.0409 92.2576 88.1341 92.353C88.2207 92.4439 88.265 92.5682 88.265 92.7191C88.265 92.8899 88.2251 93.114 88.1474 93.4002L87.6282 95.1908C87.5728 95.4038 87.5417 95.5236 87.5417 95.568C87.5417 95.6124 87.5506 95.6434 87.5728 95.6723C87.5972 95.6989 87.6149 95.7122 87.6416 95.7122C87.6748 95.7122 87.7192 95.6967 87.7658 95.6523C87.9145 95.5347 88.0831 95.3572 88.2562 95.1087L88.3937 95.1908C88.1253 95.5658 87.8812 95.8365 87.6416 96.0007C87.4729 96.1094 87.3287 96.1649 87.1978 96.1649C87.0935 96.1649 87.0136 96.1338 86.9515 96.0739C86.8849 96.0051 86.8539 95.9208 86.8539 95.8143C86.8539 95.6789 86.9049 95.4438 86.9981 95.1087L87.4951 93.4002C87.5572 93.1872 87.5883 93.0208 87.5883 92.9032C87.5883 92.8433 87.5728 92.7989 87.5328 92.7634C87.4973 92.7279 87.4507 92.7102 87.3997 92.7102C87.3198 92.7102 87.22 92.7457 87.1113 92.8123C86.9005 92.9387 86.683 93.1473 86.4545 93.4446C86.2304 93.7397 85.9863 94.1147 85.7312 94.5673C85.6025 94.8092 85.4893 95.0777 85.4072 95.3594L85.1942 96.0672H84.5508L85.3274 93.4002C85.4161 93.0763 85.4627 92.8833 85.4627 92.8234C85.4627 92.759 85.4405 92.7035 85.3873 92.6569C85.3385 92.6104 85.2786 92.5882 85.2009 92.5882C85.172 92.5882 85.1099 92.5904 85.0212 92.6059L84.8636 92.6281L84.8437 92.475L86.3081 92.2132Z" fill="#383838"/>
<path d="M91.9084 92.2132L91.6488 93.5201H91.4935C91.4779 93.1362 91.4003 92.8633 91.2494 92.6858C91.1007 92.5172 90.9188 92.4262 90.7036 92.4262C90.5261 92.4262 90.3818 92.4794 90.282 92.5726C90.1755 92.668 90.1267 92.7879 90.1267 92.921C90.1267 93.0164 90.1422 93.1051 90.1888 93.1917C90.2265 93.2738 90.3219 93.3958 90.4573 93.5445C90.8278 93.9505 91.0652 94.2567 91.1717 94.4608C91.2782 94.665 91.3337 94.858 91.3337 95.0399C91.3337 95.335 91.2117 95.5924 90.9632 95.8254C90.7213 96.0539 90.4129 96.1649 90.0357 96.1649C89.8316 96.1649 89.5964 96.1183 89.3301 96.0229C89.237 95.9874 89.1615 95.9696 89.1083 95.9696C88.984 95.9696 88.8819 96.0406 88.822 96.1649H88.6689L88.9241 94.787H89.0816C89.0994 95.2197 89.1859 95.5236 89.3523 95.7056C89.5143 95.8831 89.7362 95.9696 90.0135 95.9696C90.2265 95.9696 90.3952 95.9141 90.5283 95.7899C90.6503 95.6723 90.7191 95.5192 90.7191 95.3439C90.7191 95.2285 90.6969 95.1265 90.6481 95.0288C90.5682 94.8602 90.3952 94.625 90.1489 94.3255C89.8915 94.0193 89.734 93.7996 89.6607 93.6465C89.5853 93.4979 89.5476 93.3448 89.5476 93.1939C89.5476 92.921 89.6519 92.6836 89.8516 92.4928C90.0512 92.3064 90.3064 92.2132 90.6259 92.2132C90.7169 92.2132 90.799 92.2199 90.8678 92.2309C90.9121 92.242 91.0031 92.2753 91.1451 92.3286C91.2938 92.3863 91.3936 92.4151 91.4402 92.4151C91.5645 92.4151 91.6643 92.3441 91.7486 92.2132H91.9084V92.2132Z" fill="#383838"/>
<path d="M94.5537 96.1951L95.0285 94.0562H95.175C95.1594 94.2625 95.1461 94.4356 95.1461 94.5665C95.1461 94.957 95.2726 95.2765 95.5144 95.5139C95.7674 95.7624 96.0935 95.8823 96.4929 95.8823C96.8612 95.8823 97.143 95.7669 97.3383 95.5428C97.5291 95.3142 97.6267 95.048 97.6267 94.7507C97.6267 94.5621 97.5801 94.3824 97.4914 94.2226C97.3605 93.9874 97.001 93.5747 96.4241 92.9779C96.1446 92.6983 95.9671 92.4831 95.8872 92.3455C95.7541 92.117 95.6919 91.8729 95.6919 91.62C95.6919 91.2206 95.8384 90.8744 96.1401 90.5882C96.4397 90.302 96.828 90.1578 97.2961 90.1578C97.4581 90.1578 97.6112 90.1733 97.7488 90.2066C97.8375 90.2199 97.995 90.2776 98.2302 90.3774C98.3966 90.4418 98.4854 90.4751 98.5054 90.4795C98.5409 90.4884 98.5875 90.4928 98.6385 90.4928C98.7162 90.4928 98.7872 90.4684 98.8448 90.4329C98.9003 90.3885 98.978 90.2953 99.0534 90.1578H99.2176L98.7783 92.0726H98.6274C98.6429 91.904 98.6429 91.7686 98.6429 91.6621C98.6429 91.316 98.5387 91.0364 98.3079 90.819C98.0794 90.6015 97.782 90.4884 97.4093 90.4884C97.112 90.4884 96.8723 90.5771 96.686 90.7524C96.5085 90.9255 96.4131 91.1252 96.4131 91.3515C96.4131 91.5467 96.4685 91.7353 96.5906 91.9195C96.7082 92.0948 96.9788 92.3899 97.4026 92.7959C97.8286 93.2042 98.0949 93.5237 98.228 93.75C98.3501 93.9807 98.4166 94.2248 98.4166 94.4844C98.4166 94.7729 98.3345 95.0569 98.1792 95.332C98.0261 95.6093 97.8042 95.8179 97.5158 95.9666C97.2229 96.1197 96.9078 96.1951 96.5639 96.1951C96.3975 96.1951 96.2333 96.1774 96.0913 96.1485C95.9427 96.1152 95.703 96.042 95.3858 95.9178C95.2726 95.8756 95.1816 95.8556 95.1062 95.8556C94.9398 95.8556 94.8066 95.9666 94.7135 96.1951H94.5537Z" fill="#383838"/>
<path d="M101.121 91.1545L100.786 92.3083H101.454L101.383 92.5834H100.717L99.9875 95.0928C99.9076 95.3613 99.8633 95.5322 99.8633 95.6165C99.8633 95.6608 99.8788 95.7052 99.9032 95.7296C99.9187 95.754 99.9498 95.7673 99.9786 95.7673C100.05 95.7673 100.147 95.7141 100.26 95.6165C100.331 95.5566 100.485 95.3813 100.717 95.0928L100.862 95.1993C100.598 95.5765 100.354 95.8472 100.118 96.0048C99.9609 96.109 99.7989 96.1645 99.6347 96.1645C99.5127 96.1645 99.4084 96.1223 99.3285 96.0513C99.2487 95.967 99.2109 95.8694 99.2109 95.7474C99.2109 95.5921 99.262 95.3569 99.3485 95.0396L100.061 92.5834H99.4128L99.4594 92.4148C99.7723 92.326 100.032 92.204 100.24 92.0331C100.445 91.8645 100.675 91.5716 100.93 91.1545H101.121V91.1545Z" fill="#383838"/>
<path d="M102.841 92.2132C102.939 92.3752 103.003 92.5327 103.039 92.6725C103.076 92.8189 103.118 93.0985 103.149 93.5201L103.343 95.6146C103.511 95.4082 103.757 95.0843 104.079 94.6405C104.239 94.4275 104.428 94.1324 104.663 93.7619C104.8 93.5334 104.885 93.3736 104.916 93.2826C104.931 93.2361 104.94 93.1917 104.94 93.1451C104.94 93.1118 104.931 93.083 104.916 93.0674C104.891 93.0475 104.836 93.0275 104.756 92.9986C104.669 92.9676 104.601 92.921 104.547 92.85C104.494 92.7745 104.463 92.6902 104.463 92.5993C104.463 92.4839 104.494 92.3885 104.558 92.3175C104.632 92.2465 104.718 92.2132 104.818 92.2132C104.947 92.2132 105.053 92.262 105.144 92.3641C105.228 92.4706 105.275 92.6104 105.275 92.7945C105.275 93.0164 105.197 93.2738 105.044 93.5622C104.887 93.8484 104.594 94.2922 104.157 94.889C103.717 95.4837 103.192 96.1338 102.57 96.8372C102.14 97.3253 101.823 97.6293 101.616 97.7557C101.406 97.8844 101.228 97.9443 101.086 97.9443C100.993 97.9443 100.92 97.9155 100.846 97.8489C100.782 97.7823 100.751 97.7025 100.751 97.6182C100.751 97.5028 100.795 97.4029 100.893 97.3142C100.98 97.2188 101.086 97.1766 101.195 97.1766C101.244 97.1766 101.292 97.1855 101.335 97.2143C101.35 97.2299 101.377 97.2698 101.406 97.3342C101.432 97.3985 101.454 97.4451 101.479 97.4651C101.492 97.4828 101.512 97.4873 101.532 97.4873C101.545 97.4873 101.579 97.4739 101.625 97.4495C101.774 97.3497 101.96 97.1988 102.167 96.988C102.439 96.7107 102.637 96.4821 102.772 96.3069L102.528 93.6066C102.493 93.1628 102.435 92.8944 102.351 92.7945C102.275 92.6991 102.14 92.6503 101.954 92.6503C101.891 92.6503 101.787 92.6592 101.632 92.6747L101.59 92.5172L102.841 92.2132Z" fill="#383838"/>
<path d="M107.562 90.0092L106.111 95.0769C106.04 95.3299 106.002 95.483 106.002 95.5429C106.002 95.5828 106.013 95.6161 106.04 95.6472C106.069 95.6716 106.104 95.6893 106.142 95.6893C106.197 95.6893 106.253 95.6627 106.319 95.6161C106.461 95.5007 106.619 95.321 106.779 95.0769L106.907 95.2056C106.634 95.5872 106.39 95.8513 106.166 96.0044C105.998 96.1087 105.838 96.1641 105.689 96.1641C105.581 96.1641 105.492 96.1286 105.414 96.051C105.343 95.9822 105.308 95.8979 105.308 95.798C105.308 95.6982 105.352 95.4874 105.443 95.1679L106.595 91.1741C106.69 90.8479 106.737 90.6615 106.737 90.6127C106.737 90.5462 106.712 90.4907 106.657 90.4441C106.603 90.4019 106.517 90.3798 106.404 90.3798C106.344 90.3798 106.242 90.3908 106.111 90.4086V90.2488L107.562 90.0092Z" fill="#383838"/>
<path d="M108.287 94.2478C108.707 94.2034 109.046 94.1191 109.315 94.0038C109.661 93.8484 109.923 93.6621 110.102 93.4446C110.273 93.225 110.36 93.0208 110.36 92.8256C110.36 92.7035 110.322 92.6126 110.244 92.5371C110.173 92.4617 110.065 92.4218 109.923 92.4218C109.634 92.4218 109.328 92.5793 109.002 92.8877C108.678 93.1939 108.441 93.6488 108.287 94.2478ZM108.256 94.4608C108.239 94.6006 108.225 94.7204 108.225 94.8092C108.225 95.0621 108.316 95.284 108.496 95.4571C108.671 95.6346 108.889 95.7255 109.146 95.7255C109.348 95.7255 109.546 95.6812 109.736 95.5968C109.923 95.5125 110.205 95.3306 110.582 95.0421L110.666 95.162C109.996 95.8343 109.353 96.1671 108.738 96.1671C108.323 96.1671 108.012 96.0406 107.804 95.7766C107.597 95.5103 107.493 95.2241 107.493 94.909C107.493 94.4919 107.62 94.057 107.881 93.6133C108.148 93.1673 108.472 92.8256 108.864 92.5815C109.259 92.3352 109.668 92.2132 110.08 92.2132C110.384 92.2132 110.611 92.2753 110.75 92.3929C110.897 92.5172 110.97 92.6636 110.97 92.8256C110.97 93.0652 110.872 93.2893 110.688 93.5112C110.438 93.7908 110.076 94.0149 109.597 94.1879C109.282 94.3033 108.833 94.3965 108.256 94.4608Z" fill="#383838"/>
<path d="M3.95832 77.1729C3.95832 78.8459 3.95832 80.1549 4.04707 80.8849C4.09588 81.3952 4.20239 81.7724 4.72158 81.8457C4.97009 81.8789 5.3495 81.9144 5.598 81.9144C5.8221 81.9144 5.8931 81.9677 5.8931 82.0542C5.8931 82.1785 5.77107 82.2273 5.50703 82.2273C4.41095 82.2273 3.31265 82.1785 2.86002 82.1785C2.40739 82.1785 1.30687 82.2273 0.647886 82.2273C0.397163 82.2273 0.279567 82.194 0.279567 82.0542C0.279567 81.9677 0.350569 81.9144 0.536947 81.9144C0.803201 81.9144 1.01177 81.8789 1.16708 81.8457C1.51765 81.7724 1.59975 81.3952 1.67297 80.8849C1.7595 80.1549 1.7595 78.8459 1.7595 77.1729V74.1043C1.7595 71.4551 1.7595 70.9669 1.71956 70.4078C1.69294 69.8154 1.55315 69.5358 0.974048 69.4138C0.836483 69.3783 0.536947 69.365 0.295099 69.365C0.126471 69.365 0 69.3295 0 69.2252C0 69.0854 0.137565 69.0477 0.397163 69.0477C1.30687 69.0477 2.40739 69.1009 2.91327 69.1009C3.57003 69.1009 7.11122 69.1009 7.51282 69.0854C7.85007 69.061 8.0542 69.061 8.22949 69.0166C8.33377 68.9789 8.41808 68.9079 8.50905 68.9079C8.57562 68.9079 8.62665 68.9789 8.62665 69.061C8.62665 69.1875 8.54455 69.396 8.4913 69.8487C8.47577 70.0262 8.44027 71.0535 8.40255 71.2643C8.3848 71.4018 8.3493 71.5061 8.22949 71.5061C8.1008 71.5061 8.06973 71.4196 8.0542 71.2265C8.0542 71.0868 8.0542 70.8094 7.9477 70.5676C7.82789 70.3191 7.464 70.0595 6.79615 70.0417L4.11807 69.9929C4.00713 69.9929 3.95832 70.0417 3.95832 70.2347V74.5902C3.95832 74.6967 3.97163 74.75 4.07813 74.75L6.31245 74.7322C6.60755 74.7322 6.8494 74.7322 7.0979 74.7123C7.4285 74.6967 7.67035 74.6235 7.85007 74.4016C7.93439 74.2951 7.96545 74.2241 8.06973 74.2241C8.14074 74.2241 8.17846 74.2796 8.17846 74.3861C8.17846 74.4882 8.09192 74.923 8.03867 75.4644C8.00317 75.8106 7.96545 76.6182 7.96545 76.7358C7.96545 76.8933 7.96545 77.0686 7.79682 77.0686C7.6881 77.0686 7.65482 76.9444 7.65482 76.8268C7.65482 76.7025 7.6171 76.4962 7.54832 76.2854C7.464 76.0391 7.19775 75.7262 6.6608 75.653C6.2237 75.602 4.37545 75.602 4.07813 75.602C3.99382 75.602 3.95832 75.6353 3.95832 75.7595V77.1729V77.1729Z" fill="#383838"/>
<path d="M17.5804 77.1746C17.5804 79.4067 17.5804 80.607 17.9421 80.9221C18.2394 81.1884 18.6876 81.306 20.0499 81.306C20.9774 81.306 21.6563 81.2904 22.0868 80.8178C22.302 80.5915 22.5084 80.1034 22.5461 79.775C22.5594 79.6152 22.5993 79.511 22.7391 79.511C22.8589 79.511 22.8745 79.6019 22.8745 79.8061C22.8745 79.9969 22.7546 81.306 22.6149 81.8119C22.5084 82.1957 22.4218 82.2844 21.5188 82.2844C19.0027 82.2844 17.8533 82.1802 16.44 82.1802C16.0406 82.1802 14.9423 82.229 14.2478 82.229C14.0193 82.229 13.8995 82.1802 13.8995 82.0559C13.8995 81.9694 13.9638 81.9161 14.1768 81.9161C14.4386 81.9161 14.6494 81.8806 14.8025 81.8473C15.1553 81.7741 15.2329 81.3969 15.3106 80.8866C15.3949 80.1566 15.3949 78.7788 15.3949 77.1746V74.106C15.3949 71.4568 15.3949 70.9686 15.3616 70.4095C15.3261 69.8171 15.1886 69.5375 14.6161 69.4155C14.4719 69.38 14.2656 69.3667 14.0348 69.3667C13.844 69.3667 13.7441 69.3312 13.7441 69.2091C13.7441 69.0871 13.8617 69.0494 14.1258 69.0494C14.9423 69.0494 16.0406 69.1026 16.5132 69.1026C16.9348 69.1026 18.1995 69.0494 18.8851 69.0494C19.1247 69.0494 19.2467 69.0871 19.2467 69.2091C19.2467 69.3312 19.1447 69.3667 18.9383 69.3667C18.7409 69.3667 18.4702 69.38 18.2572 69.4155C17.7823 69.502 17.647 69.8015 17.6137 70.4095C17.5804 70.9686 17.5804 71.4568 17.5804 74.106V77.1746Z" fill="#383838"/>
<path d="M32.9833 76.8109C33.0809 76.8109 33.0942 76.7576 33.0809 76.7066L31.5056 72.4021C31.4834 72.3245 31.4723 72.2402 31.4191 72.2402C31.3636 72.2402 31.3325 72.3245 31.3148 72.4021L29.7106 76.6866C29.6906 76.7576 29.7106 76.8109 29.7749 76.8109H32.9833ZM29.4288 77.6828C29.3445 77.6828 29.3112 77.7161 29.2757 77.8204L28.3327 80.3143C28.1574 80.7514 28.0687 81.1686 28.0687 81.3793C28.0687 81.6878 28.2307 81.9163 28.7632 81.9163H29.0294C29.238 81.9163 29.2912 81.954 29.2912 82.0561C29.2912 82.1959 29.1892 82.2314 28.9917 82.2314C28.4392 82.2314 27.6871 82.1803 27.1479 82.1803C26.9549 82.1803 25.9963 82.2314 25.0866 82.2314C24.8581 82.2314 24.7627 82.1959 24.7627 82.0561C24.7627 81.954 24.8293 81.9163 24.9646 81.9163C25.1244 81.9163 25.3706 81.8985 25.506 81.883C26.3114 81.7765 26.6398 81.1885 26.9859 80.3143L31.3636 69.3668C31.5722 68.8609 31.6787 68.6679 31.8539 68.6679C32.0137 68.6679 32.1202 68.8232 32.291 69.227C32.7037 70.1856 35.4972 77.2968 36.6132 79.9482C37.2767 81.5169 37.7848 81.7588 38.1442 81.8475C38.4127 81.8985 38.6745 81.9163 38.8764 81.9163C39.0184 81.9163 39.1005 81.9363 39.1005 82.0561C39.1005 82.1959 38.9541 82.2314 38.3062 82.2314C37.6783 82.2314 36.4047 82.2314 35.0135 82.1959C34.6918 82.1803 34.4854 82.1803 34.4854 82.0561C34.4854 81.954 34.5542 81.9163 34.7295 81.8985C34.8537 81.8653 34.9758 81.7099 34.8848 81.4992L33.4892 77.8049C33.4559 77.7161 33.4049 77.6828 33.3183 77.6828H29.4288V77.6828Z" fill="#383838"/>
<path d="M44.7315 69.1205C44.7803 68.821 44.8846 68.6679 45.02 68.6679C45.1598 68.6679 45.2685 68.7567 45.4926 69.2093L50.2541 79.0407L54.9979 69.0873C55.1155 68.8055 55.2175 68.6679 55.3795 68.6679C55.5348 68.6679 55.6413 68.8388 55.6946 69.2093L57.2766 79.9815C57.4363 81.082 57.6094 81.5857 58.1352 81.7432C58.6411 81.8963 58.9872 81.9163 59.2113 81.9163C59.3711 81.9163 59.4931 81.934 59.4931 82.0405C59.4931 82.1803 59.2823 82.2291 59.0383 82.2291C58.599 82.2291 56.1982 82.1803 55.5037 82.1226C55.0999 82.0916 54.9979 82.0405 54.9979 81.934C54.9979 81.8475 55.06 81.7965 55.1842 81.7432C55.293 81.7099 55.3396 81.4858 55.2686 80.9911L54.2257 73.3207H54.1614L50.3628 81.2351C49.9568 82.0561 49.8725 82.2158 49.7083 82.2158C49.5552 82.2158 49.3799 81.8653 49.0981 81.3394C48.6832 80.5384 47.3031 77.8714 47.0968 77.3855C46.937 77.0194 45.8964 74.8228 45.2818 73.5115H45.213L44.31 80.4541C44.27 80.767 44.2545 80.9911 44.2545 81.2706C44.2545 81.6034 44.4808 81.7588 44.7803 81.8298C45.0976 81.8963 45.3328 81.9163 45.5081 81.9163C45.6523 81.9163 45.7744 81.954 45.7744 82.0405C45.7744 82.1959 45.6124 82.2291 45.3528 82.2291C44.6206 82.2291 43.8351 82.1803 43.5223 82.1803C43.1895 82.1803 42.353 82.2291 41.7938 82.2291C41.623 82.2291 41.4766 82.1959 41.4766 82.0405C41.4766 81.954 41.5875 81.9163 41.7606 81.9163C41.9003 81.9163 42.0268 81.9163 42.2886 81.8653C42.7746 81.7588 42.9143 81.082 42.9986 80.4874L44.7315 69.1205Z" fill="#383838"/>
<path d="M69.4494 75.7967C69.0789 75.5393 68.6839 75.4129 68.0005 75.3796C67.6899 75.3618 67.5146 75.3618 67.2506 75.3618C67.1818 75.3618 67.1463 75.3951 67.1463 75.4816V79.6152C67.1463 80.7668 67.2018 81.0641 67.7565 81.2904C68.2268 81.4857 68.6307 81.499 69.0323 81.499C69.8177 81.499 71.1401 81.0819 71.1401 79.2691C71.1401 78.1863 70.7718 76.7219 69.4494 75.7967ZM67.1463 74.4033C67.1463 74.5431 67.2018 74.5786 67.2683 74.5919C67.4281 74.6252 67.6899 74.6474 68.0893 74.6474C68.6662 74.6474 69.0478 74.5786 69.3473 74.3146C69.7977 73.9485 70.0596 73.3205 70.0596 72.4707C70.0596 71.2992 69.3762 69.766 67.8807 69.766C67.6344 69.766 67.4791 69.766 67.3038 69.8015C67.1818 69.8348 67.1463 69.9058 67.1463 70.0966V74.4033ZM65.0562 74.106C65.0562 71.4568 65.0562 70.9686 65.0163 70.4095C64.9874 69.8171 64.8432 69.5375 64.273 69.4155C64.131 69.38 63.8359 69.3667 63.5918 69.3667C63.3965 69.3667 63.29 69.3312 63.29 69.2091C63.29 69.0871 63.4165 69.0494 63.6783 69.0494C64.6036 69.0494 65.6996 69.1026 66.0458 69.1026C66.9044 69.1026 67.5834 69.0494 68.178 69.0494C71.3309 69.0494 71.8945 70.7379 71.8945 71.6653C71.8945 73.0942 71.0669 73.9485 70.1128 74.7139C71.5395 75.2043 73.2857 76.4402 73.2857 78.4814C73.2857 80.3452 71.839 82.2867 68.6307 82.2867C68.2135 82.2867 66.6271 82.1802 66.1012 82.1802C65.6996 82.1802 64.6036 82.229 63.9046 82.229C63.6783 82.229 63.5585 82.1802 63.5585 82.0559C63.5585 81.9694 63.6273 81.9161 63.8359 81.9161C64.0977 81.9161 64.3107 81.8806 64.4593 81.8473C64.8099 81.7763 64.8987 81.3969 64.9674 80.8866C65.0562 80.1566 65.0562 78.7788 65.0562 77.1746V74.106Z" fill="#383838"/>
<path d="M80.1736 74.1043C80.1736 71.4551 80.1736 70.9669 80.1425 70.4078C80.107 69.8154 79.965 69.5358 79.3903 69.4138C79.2483 69.3783 78.9532 69.365 78.7092 69.365C78.5161 69.365 78.4141 69.3295 78.4141 69.2074C78.4141 69.0854 78.5339 69.0477 78.7979 69.0477C79.7231 69.0477 80.8192 69.1009 81.3074 69.1009C81.8621 69.1009 85.3323 69.1009 85.6629 69.0854C86.0001 69.0477 86.2775 69.0166 86.4195 68.9789C86.506 68.9612 86.6058 68.9079 86.6946 68.9079C86.7833 68.9079 86.8011 68.9789 86.8011 69.0632C86.8011 69.1875 86.7123 69.396 86.6635 70.1992C86.6435 70.3723 86.6058 71.1378 86.5703 71.3486C86.5526 71.4395 86.5149 71.5416 86.395 71.5416C86.2775 71.5416 86.2419 71.4551 86.2419 71.2975C86.2419 71.1755 86.2242 70.8782 86.1377 70.6696C86.0134 70.3545 85.8426 70.1504 84.9684 70.0417C84.671 70.0062 82.8428 69.9707 82.49 69.9707C82.4057 69.9707 82.3679 70.0262 82.3679 70.1504V74.5569C82.3679 74.6768 82.3901 74.75 82.49 74.75C82.8805 74.75 84.8841 74.75 85.2834 74.7123C85.7006 74.6768 85.9624 74.6235 86.1177 74.4527C86.2419 74.3129 86.3107 74.2241 86.395 74.2241C86.4638 74.2241 86.5149 74.2596 86.5149 74.3661C86.5149 74.4726 86.4328 74.75 86.3795 75.6353C86.3462 75.9858 86.3107 76.6848 86.3107 76.809C86.3107 76.9444 86.3107 77.1374 86.1576 77.1374C86.0356 77.1374 86.0001 77.0686 86.0001 76.9799C85.9779 76.809 85.9779 76.5805 85.9313 76.3519C85.8426 76.0058 85.5963 75.744 84.9528 75.673C84.62 75.6353 82.8938 75.6197 82.4745 75.6197C82.3901 75.6197 82.3679 75.6907 82.3679 75.795V77.1729C82.3679 77.7675 82.3524 79.3695 82.3679 79.8754C82.4057 81.0802 82.6852 81.3376 84.458 81.3376C84.9151 81.3376 85.6473 81.3376 86.1044 81.1312C86.5526 80.9226 86.7656 80.5521 86.8832 79.8377C86.9253 79.6491 86.9586 79.5803 87.0784 79.5803C87.2182 79.5803 87.2182 79.7201 87.2182 79.8953C87.2182 80.2947 87.0784 81.484 86.9941 81.8279C86.8721 82.285 86.7123 82.285 86.0534 82.285C83.413 82.285 82.2503 82.1785 81.223 82.1785C80.8192 82.1785 79.7232 82.2273 79.0242 82.2273C78.7979 82.2273 78.6781 82.1785 78.6781 82.0542C78.6781 81.9677 78.7447 81.9144 78.9532 81.9144C79.2128 81.9144 79.4236 81.8789 79.5811 81.8457C79.9295 81.7747 80.016 81.3952 80.087 80.8849C80.1736 80.1549 80.1736 78.7771 80.1736 77.1729V74.1043V74.1043Z" fill="#383838"/>
<path d="M97.8928 76.8109C97.9771 76.8109 97.9905 76.7576 97.9772 76.7066L96.4063 72.4021C96.3907 72.3245 96.3707 72.2402 96.3197 72.2402C96.2687 72.2402 96.2354 72.3245 96.2154 72.4021L94.6112 76.6866C94.5957 76.7576 94.6113 76.8109 94.68 76.8109H97.8928ZM94.3339 77.6828C94.2429 77.6828 94.2074 77.7161 94.1741 77.8204L93.2312 80.3143C93.0603 80.7514 92.9693 81.1686 92.9693 81.3793C92.9693 81.6878 93.1313 81.9163 93.6683 81.9163H93.9323C94.1342 81.9163 94.1897 81.954 94.1897 82.0561C94.1897 82.1959 94.0876 82.2314 93.8968 82.2314C93.3421 82.2314 92.5877 82.1803 92.0463 82.1803C91.86 82.1803 90.897 82.2314 89.9917 82.2314C89.7654 82.2314 89.6611 82.1959 89.6611 82.0561C89.6611 81.954 89.7277 81.9163 89.8653 81.9163C90.0228 81.9163 90.2669 81.8985 90.4133 81.883C91.2121 81.7765 91.5427 81.1885 91.8955 80.3143L96.2687 69.3668C96.4773 68.8609 96.5882 68.6679 96.7568 68.6679C96.9121 68.6679 97.0186 68.8232 97.1917 69.227C97.6111 70.1856 100.398 77.2968 101.516 79.9482C102.182 81.5169 102.677 81.7588 103.049 81.8475C103.307 81.8985 103.571 81.9163 103.779 81.9163C103.924 81.9163 104.01 81.9363 104.01 82.0561C104.01 82.1959 103.85 82.2314 103.205 82.2314C102.583 82.2314 101.308 82.2314 99.9075 82.1959C99.5991 82.1803 99.3883 82.1803 99.3883 82.0561C99.3883 81.954 99.4593 81.9163 99.6301 81.8985C99.7522 81.8653 99.8764 81.7099 99.7832 81.4992L98.3921 77.8049C98.361 77.7161 98.31 77.6828 98.219 77.6828H94.3339V77.6828Z" fill="#383838"/>
<path d="M107.799 74.106C107.799 71.4568 107.799 70.9686 107.761 70.4095C107.728 69.8171 107.59 69.5375 107.013 69.4155C106.873 69.38 106.569 69.3667 106.339 69.3667C106.141 69.3667 106.039 69.3312 106.039 69.2091C106.039 69.0871 106.157 69.0494 106.416 69.0494C107.339 69.0494 108.438 69.1026 108.966 69.1026C109.381 69.1026 110.479 69.0494 111.107 69.0494C111.373 69.0494 111.495 69.0871 111.495 69.2091C111.495 69.3312 111.389 69.3667 111.213 69.3667C111.022 69.3667 110.916 69.38 110.705 69.4155C110.237 69.502 110.095 69.8015 110.064 70.4095C110.031 70.9686 110.031 71.4568 110.031 74.106V76.5467C110.031 79.0739 110.532 80.1389 111.389 80.8334C112.167 81.4857 112.973 81.5456 113.567 81.5456C114.331 81.5456 115.276 81.306 115.973 80.607C116.931 79.6507 116.984 78.0798 116.984 76.2871V74.106C116.984 71.4568 116.984 70.9686 116.947 70.4095C116.916 69.8171 116.771 69.5375 116.201 69.4155C116.064 69.38 115.762 69.3667 115.571 69.3667C115.378 69.3667 115.276 69.3312 115.276 69.2091C115.276 69.0871 115.398 69.0494 115.642 69.0494C116.529 69.0494 117.628 69.1026 117.646 69.1026C117.859 69.1026 118.957 69.0494 119.634 69.0494C119.884 69.0494 120 69.0871 120 69.2091C120 69.3312 119.895 69.3667 119.687 69.3667C119.494 69.3667 119.392 69.38 119.179 69.4155C118.708 69.502 118.569 69.8015 118.533 70.4095C118.495 70.9686 118.495 71.4568 118.495 74.106V75.972C118.495 77.909 118.311 79.968 116.845 81.2239C115.609 82.2867 114.348 82.473 113.219 82.473C112.296 82.473 110.621 82.4264 109.349 81.2705C108.458 80.4695 107.799 79.1826 107.799 76.6532V74.106Z" fill="#383838"/>
</svg>
