<svg width="130" height="32" viewBox="0 0 130 32" fill="none" xmlns="http://www.w3.org/2000/svg">
<path d="M126.94 0.37207L121.077 10.3653L115.217 0.37207H112.126L119.724 12.8323V22.3191H122.402V12.8323L130 0.37207H126.94ZM93.9076 0.37207V22.3191H109.542V19.7268H96.5878V12.1354H108.282V9.57436H96.5878V2.93308H109.542V0.37207H93.9076ZM75.9996 0.37207V22.3191H89.9342V19.7268H78.6798V0.37207H75.9996ZM68.5912 0.37207L57.5892 11.0936V0.37207H54.9114V22.3191H57.5892V14.571L61.3415 10.9658L69.3797 22.3191H72.7209L63.2645 9.09929L72.3435 0.37207H68.5912ZM46.4935 0.37207V18.2075L34.7367 0.37207H31.7416V22.3191H34.4218V4.45233L46.1786 22.3191H49.1424V0.37207H46.4935ZM23.1987 22.3191H25.8789V0.37207H23.1987V22.3191ZM14.6581 0.37207V9.51166H2.67779V0.37207H0V22.3191H2.67779V12.104H14.6581V22.3191H17.3046V0.37207H14.6581Z" fill="#383838"/>
<path d="M108.782 28.4783H109.344C109.025 27.5836 108.272 27.0242 107.345 27.0242C106.147 27.0242 105.181 28.0442 105.181 29.2958C105.181 30.5546 106.147 31.5723 107.345 31.5723C108.167 31.5723 108.768 31.1358 109.07 30.6848C109.07 30.6848 109.486 30.1832 109.457 29.1198H107.376V29.6358H108.905C108.808 30.3641 108.272 31.0562 107.345 31.0562C106.441 31.0562 105.708 30.258 105.708 29.2958C105.708 28.3384 106.441 27.5402 107.345 27.5402C107.984 27.5402 108.506 27.8923 108.782 28.4783ZM96.3474 31.4975H96.9363V27.1303H96.4099V30.68L94.0686 27.1303H93.4749V31.4975H94.0061V27.943L96.3474 31.4975ZM83.444 31.4975H83.9752V27.1303H83.444V31.4975ZM72.5406 27.6391H73.9083V27.1303H70.6416V27.6391H72.0093V31.4975H72.5406V27.6391V27.6391ZM60.9857 31.4975H61.5121V27.1303H60.9857V28.9485H58.6012V27.1303H58.0675V31.4975H58.6012V29.4646H60.9857V31.4975ZM47.0367 29.6358H48.5631C48.4693 30.3641 47.9333 31.0562 47.0054 31.0562C46.1016 31.0562 45.3661 30.258 45.3661 29.2958C45.3661 28.3384 46.1016 27.5402 47.0054 27.5402C47.6448 27.5402 48.1664 27.8923 48.4429 28.4783H49.0054C48.6857 27.5836 47.9333 27.0242 47.0054 27.0242C45.806 27.0242 44.8421 28.0442 44.8421 29.2958C44.8421 30.5546 45.806 31.5723 47.0054 31.5723C47.8275 31.5723 48.4285 31.1358 48.7289 30.6848C48.7289 30.6848 49.1448 30.1832 49.1183 29.1198H47.0367V29.6358ZM35.2655 31.4975H35.7967V27.1303H35.2655V31.4975ZM23.2852 31.4975H26.0567V30.9814H23.8164V27.1303H23.2852V31.4975Z" fill="#383838"/>
</svg>
