<svg width="70" height="50" viewBox="0 0 70 50" fill="none" xmlns="http://www.w3.org/2000/svg">
<g clip-path="url(#clip0_203_2806)">
<path d="M18 24.0928C18 20.7933 18 19.1435 18.6746 17.6934C19.3492 16.2433 20.6162 15.1696 23.1501 13.0224L25.6081 10.9394C30.1881 7.05826 32.4781 5.11768 35.2059 5.11768C37.9337 5.11768 40.2237 7.05826 44.8037 10.9394L47.2617 13.0224C49.7956 15.1696 51.0625 16.2433 51.7371 17.6934C52.4118 19.1435 52.4118 20.7933 52.4118 24.0928V34.3973C52.4118 38.9795 52.4118 41.2706 50.9719 42.6942C49.5321 44.1177 47.2147 44.1177 42.5798 44.1177H27.8319C23.1971 44.1177 20.8797 44.1177 19.4399 42.6942C18 41.2706 18 38.9795 18 34.3973V24.0928Z" stroke="#383838" stroke-width="3"/>
<path d="M40 44V33C40 32.4477 39.5523 32 39 32H32C31.4477 32 31 32.4477 31 33V44" stroke="#383838" stroke-width="3" stroke-linecap="round" stroke-linejoin="round"/>
</g>
<defs>
<clipPath id="clip0_203_2806">
<rect width="70" height="50" fill="white"/>
</clipPath>
</defs>
</svg>
