<svg width="74" height="54" viewBox="0 0 74 54" fill="none" xmlns="http://www.w3.org/2000/svg">
<g clip-path="url(#clip0_1_234)">
<path d="M15.4727 54C12.7314 54 10.3936 53.0197 8.45955 51.0761C6.52545 49.1324 5.56682 46.7831 5.56682 44.0282H0V5.07042C0 3.71831 0.504545 2.53521 1.51364 1.52113C2.52273 0.507042 3.7 0 5.04545 0H53.7341V14.1127H62.5636L74 29.4085V44.0282H68.0295C68.0295 46.7831 67.0541 49.1493 65.12 51.0761C63.1859 53.0197 60.8482 54 58.1068 54C55.3655 54 53.0109 53.0197 51.0936 51.0761C49.1595 49.1324 48.1841 46.7831 48.1841 44.0282H25.3955C25.3955 46.7831 24.42 49.1493 22.4859 51.0761C20.5518 53.0366 18.2141 54 15.4727 54ZM15.4727 48.9296C16.8182 48.9296 17.9618 48.4563 18.9205 47.493C19.8791 46.5296 20.35 45.3803 20.35 44.0282C20.35 42.6761 19.8791 41.5268 18.9205 40.5634C17.9618 39.6 16.8182 39.1268 15.4727 39.1268C14.1273 39.1268 12.9836 39.6 12.025 40.5634C11.0664 41.5268 10.5955 42.6761 10.5955 44.0282C10.5955 45.3803 11.0664 46.5296 12.025 47.493C12.9836 48.4563 14.1273 48.9296 15.4727 48.9296ZM5.04545 38.9577H6.89545C7.85409 37.4366 9.04818 36.2197 10.5114 35.3239C11.9745 34.4282 13.5891 33.9718 15.3886 33.9718C17.1882 33.9718 18.8195 34.4282 20.3164 35.3577C21.7964 36.2873 23.0241 37.4873 23.9827 38.9408H48.7055V5.07042H5.04545V38.9577ZM58.1068 48.9296C59.4523 48.9296 60.5959 48.4563 61.5545 47.493C62.5132 46.5296 62.9841 45.3803 62.9841 44.0282C62.9841 42.6761 62.5132 41.5268 61.5545 40.5634C60.5959 39.6 59.4523 39.1268 58.1068 39.1268C56.7614 39.1268 55.6177 39.6 54.6591 40.5634C53.7005 41.5268 53.2295 42.6761 53.2295 44.0282C53.2295 45.3803 53.7005 46.5296 54.6591 47.493C55.6177 48.4563 56.7614 48.9296 58.1068 48.9296ZM53.7341 31.6901H69.375L60.0409 19.1831H53.7341V31.6901V31.6901Z" fill="#383838"/>
</g>
<defs>
<clipPath id="clip0_1_234">
<rect width="74" height="54" fill="white"/>
</clipPath>
</defs>
</svg>
