<svg width="88" height="54" viewBox="0 0 88 54" fill="none" xmlns="http://www.w3.org/2000/svg">
<path d="M75.6679 22.9711L65.5424 13.3636H2V52H65.5424L86 32.6818L80.9373 27.9298" stroke="#383838" stroke-width="3.2974" stroke-miterlimit="10" stroke-linecap="round" stroke-linejoin="round"/>
<path d="M16.7747 35.7812C16.7747 35.2647 16.568 34.8514 16.2581 34.5415C15.8448 34.2316 15.4315 33.9217 14.9149 33.7151C14.3983 33.5085 13.7784 33.1985 13.1584 32.8886C12.5385 32.5787 11.9186 32.2688 11.402 31.8556C10.8854 31.4423 10.3688 30.9258 10.0588 30.4093C9.64551 29.7894 9.54219 29.0663 9.54219 28.1366C9.54219 27.3101 9.64551 26.6903 9.95547 26.0704C10.2654 25.4506 10.5754 25.0374 11.092 24.6242C11.6086 24.2109 12.1252 23.901 12.8485 23.7977C13.4684 23.5911 14.295 23.4878 15.1215 23.4878C16.0514 23.4878 16.9813 23.5911 17.8079 23.6944C18.6344 23.901 19.3577 24.1076 19.8743 24.4175L18.8411 27.1035C18.5311 26.8969 18.0145 26.6903 17.2913 26.4837C16.568 26.2771 15.8448 26.1737 15.1215 26.1737C14.3983 26.1737 13.7784 26.2771 13.4684 26.587C13.1584 26.8969 12.8485 27.3101 12.8485 27.7233C12.8485 28.1366 13.0551 28.5498 13.3651 28.8597C13.7783 29.1696 14.1916 29.4795 14.7082 29.6861C15.2248 29.9961 15.8448 30.2027 16.4647 30.5126C17.0846 30.8225 17.7045 31.1324 18.2212 31.5457C18.7378 31.9589 19.2544 32.4754 19.5643 32.9919C19.9776 33.6118 20.0809 34.3349 20.0809 35.1614C20.0809 35.9878 19.9776 36.8142 19.6676 37.4341C19.3577 38.0539 18.9444 38.5704 18.4278 38.9837C17.9112 39.3969 17.2913 39.7068 16.568 39.9134C15.8448 40.12 15.0182 40.2233 14.1916 40.2233C13.0551 40.2233 12.0219 40.12 11.092 39.9134C10.1621 39.7068 9.54219 39.5002 9.12891 39.2936L10.1621 36.6076C10.3688 36.7109 10.5754 36.8142 10.782 36.9176C11.092 37.0209 11.402 37.1242 11.7119 37.2275C12.0219 37.3308 12.4352 37.4341 12.7451 37.4341C13.1584 37.5374 13.4684 37.5374 13.8817 37.5374C14.8116 37.5374 15.5348 37.3308 16.0514 37.0209C16.568 36.7109 16.7747 36.5043 16.7747 35.7812Z" fill="#383838"/>
<path d="M30.1034 36.6076H25.144L23.9041 40.2233H20.7012L26.5905 23.901H28.9668L34.8561 40.2233H31.5499L30.1034 36.6076ZM25.8672 34.025H29.3801L28.1403 30.4093L27.727 27.8266H27.6237L27.1071 30.4093L25.8672 34.025Z" fill="#383838"/>
<path d="M46.428 40.12H36.1992V23.901H39.4022V37.3308H46.5313V40.12H46.428Z" fill="#383838"/>
<path d="M48.0801 23.9009H57.6889V26.6901H51.283V30.5124H57.1723V33.3017H51.283V37.2273H57.8956V40.0166H48.1834V23.9009H48.0801Z" fill="#383838"/>
<path d="M60.7891 38.6736C60.7891 38.1571 60.9957 37.7439 61.3056 37.4339C61.6155 37.124 62.132 36.9174 62.6486 36.9174C63.2684 36.9174 63.6816 37.124 63.9916 37.4339C64.3015 37.7439 64.5081 38.1571 64.5081 38.6736C64.5081 39.1901 64.3015 39.6034 63.9916 40.0166C63.6816 40.4298 63.1651 40.5331 62.6486 40.5331C62.132 40.5331 61.6155 40.3265 61.3056 40.0166C60.9957 39.7067 60.7891 39.1901 60.7891 38.6736ZM61.099 23.9009H64.1982V31.5455L63.5783 35.3678H61.7188L61.099 31.5455V23.9009V23.9009Z" fill="#383838"/>
<path d="M71.2249 31.5454C79.3873 31.5454 85.9998 24.9339 85.9998 16.7727C85.9998 8.61157 79.3873 2 71.2249 2C64.1991 2 58.4131 6.85537 56.8633 13.3636" stroke="#383838" stroke-width="3.2974" stroke-miterlimit="10" stroke-linecap="round" stroke-linejoin="round"/>
</svg>
