<svg width="30" height="24" viewBox="0 0 30 24" fill="none" xmlns="http://www.w3.org/2000/svg">
<path d="M5.25 16.3635C5.25 15.6732 4.69036 15.1135 4 15.1135C3.30964 15.1135 2.75 15.6732 2.75 16.3635L5.25 16.3635ZM2.75 16.3635L2.75 23.9999L5.25 23.9999L5.25 16.3635L2.75 16.3635Z" fill="white"/>
<path d="M12.25 2.18188C12.25 1.49153 11.6904 0.931885 11 0.931885C10.3096 0.931885 9.75 1.49153 9.75 2.18188L12.25 2.18188ZM9.75 2.18188L9.75 24.0001L12.25 24.0001L12.25 2.18188L9.75 2.18188Z" fill="white"/>
<path d="M19.25 9.81836C19.25 9.128 18.6904 8.56836 18 8.56836C17.3096 8.56836 16.75 9.128 16.75 9.81836L19.25 9.81836ZM16.75 9.81836L16.75 24.0002L19.25 24.0002L19.25 9.81836L16.75 9.81836Z" fill="white"/>
<path d="M26.25 6C26.25 5.30964 25.6904 4.75 25 4.75C24.3096 4.75 23.75 5.30964 23.75 6L26.25 6ZM23.75 6L23.75 24L26.25 24L26.25 6L23.75 6Z" fill="white"/>
</svg>
