<svg width="56" height="56" viewBox="0 0 56 56" fill="none" xmlns="http://www.w3.org/2000/svg">
<g clip-path="url(#clip0_1_217)">
<path d="M2.8 51.66V17.22C2.142 17.122 1.512 16.66 0.91 15.82C0.308 14.98 0 14.07 0 13.09V4.2C0 3.122 0.42 2.156 1.26 1.302C2.1 0.448 3.08 0 4.2 0H51.8C52.878 0 53.844 0.434 54.712 1.302C55.566 2.156 56 3.122 56 4.2V13.09C56 14.07 55.692 14.98 55.09 15.82C54.488 16.66 53.858 17.122 53.2 17.22V51.66C53.2 52.738 52.766 53.718 51.912 54.628C51.044 55.538 50.078 56 49 56H7C5.88 56 4.9 55.538 4.06 54.642C3.22 53.732 2.8 52.738 2.8 51.66ZM7 17.29V51.8H49V17.29H7ZM51.8 13.09V4.2H4.2V13.09H51.8ZM19.6 31.99H36.4V27.79H19.6V31.99ZM7 51.8V17.29V51.8Z" fill="#383838"/>
</g>
<defs>
<clipPath id="clip0_1_217">
<rect width="56" height="56" fill="white"/>
</clipPath>
</defs>
</svg>
