<svg width="130" height="18" viewBox="0 0 130 18" fill="none" xmlns="http://www.w3.org/2000/svg">
<path d="M129.769 15.7946C129.769 16.3842 129.342 16.8085 128.792 16.8085C128.237 16.8085 127.813 16.3842 127.813 15.7946C127.813 15.2222 128.237 14.7893 128.792 14.7893C129.342 14.7893 129.769 15.2222 129.769 15.7946ZM128.539 15.8915H128.778L129.143 16.4895H129.376L128.983 15.8829C129.188 15.8544 129.342 15.7491 129.342 15.4984C129.342 15.225 129.183 15.1026 128.855 15.1026H128.325V16.4895H128.539V15.8915V15.8915ZM128.539 15.2791H128.827C129.069 15.2791 129.131 15.3532 129.131 15.487C129.131 15.638 129.049 15.712 128.79 15.712H128.539V15.2791ZM127.579 15.7946C127.579 16.4895 128.134 17.0022 128.792 17.0022C129.445 17.0022 130 16.4895 130 15.7946C130 15.1026 129.445 14.5928 128.792 14.5928C128.134 14.5928 127.579 15.1026 127.579 15.7946Z" fill="#383838"/>
<path d="M15.0005 16.9933L7.52728 8.9078L3.06446 12.1716V16.9933H0V1.05585H3.06446V8.85654L13.7502 1.05585H18.2643L9.89683 7.17337L18.9535 16.9933H15.0005Z" fill="#383838"/>
<path d="M24.714 1.05292H21.6523V16.9904H24.714V1.05292Z" fill="#383838"/>
<path d="M44.2268 5.87489C42.6462 4.24583 40.5529 3.33731 37.8216 3.33731C33.3332 3.33731 30.5023 5.66698 30.5023 8.95928C30.5023 12.3285 33.2819 14.6354 37.8758 14.6354C40.5529 14.6354 42.5693 13.8294 44.2781 12.018L46.9039 13.4449C44.4547 16.2416 41.675 17.4065 37.796 17.4065C31.4706 17.4065 27.3125 13.8579 27.3125 8.95928C27.3125 6.39607 28.4118 4.29424 30.6048 2.66233C32.3649 1.36649 34.8882 0.53772 37.6137 0.53772C41.544 0.53772 44.6056 1.93894 47.0293 4.88948L44.2268 5.87489Z" fill="#383838"/>
<path d="M64.7317 16.9933V10.1239H52.6163V16.9933H49.5547V1.05585H52.6163V7.30153H64.7317V1.05585H67.7933V16.9933H64.7317Z" fill="#383838"/>
<path d="M71.041 16.9933V1.05585H74.0998V14.1681H86.2152V16.9933H71.041Z" fill="#383838"/>
<path d="M89.3359 16.9933V1.05585H105.635V3.88107H92.3975V7.30153H101.605V10.1239H92.3975V14.1681H106.219V16.9933H89.3359Z" fill="#383838"/>
<path d="M123.589 16.9904L119.482 11.1349H111.704V16.9904H108.643V1.05585H121.322C124.663 1.05585 126.779 3.0523 126.779 6.10821C126.779 8.67427 125.426 10.3859 122.877 10.9498L127.109 16.9904H123.589V16.9904ZM123.64 6.15948C123.64 4.57883 122.695 3.88107 120.684 3.88107H111.704V8.30972H120.861C122.695 8.30972 123.64 7.5607 123.64 6.15948Z" fill="#383838"/>
</svg>
