<svg width="70" height="50" viewBox="0 0 70 50" fill="none" xmlns="http://www.w3.org/2000/svg">
<path d="M13 7.5H57C57.8284 7.5 58.5 8.17157 58.5 9V41C58.5 41.8284 57.8284 42.5 57 42.5H13C12.1716 42.5 11.5 41.8284 11.5 41V9C11.5 8.17157 12.1716 7.5 13 7.5Z" stroke="#383838" stroke-width="3" stroke-linejoin="round"/>
<path d="M31 9.33521H39" stroke="#383838" stroke-width="3" stroke-miterlimit="10" stroke-linecap="square"/>
<path d="M30 28H30.01M27 24H44M30 32H40C41.8856 32 42.8284 32 43.4142 31.4142C44 30.8284 44 29.8856 44 28V23C44 21.1144 44 20.1716 43.4142 19.5858C42.8284 19 41.8856 19 40 19H30C28.1144 19 27.1716 19 26.5858 19.5858C26 20.1716 26 21.1144 26 23V28C26 29.8856 26 30.8284 26.5858 31.4142C27.1716 32 28.1144 32 30 32Z" stroke="#383838" stroke-width="2" stroke-linecap="round"/>
<path d="M7 43H63" stroke="#383838" stroke-width="3" stroke-miterlimit="10" stroke-linecap="square"/>
</svg>
