<svg width="28" height="28" viewBox="0 0 28 28" fill="none" xmlns="http://www.w3.org/2000/svg">
<path d="M5.74977 22.2497C7.38138 23.8814 9.46018 24.9925 11.7233 25.4427C13.9864 25.8928 16.3322 25.6618 18.464 24.7788C20.5958 23.8957 22.4179 22.4004 23.6998 20.4818C24.9818 18.5632 25.666 16.3076 25.666 14.0002C25.666 11.6927 24.9818 9.43708 23.6998 7.51851C22.4179 5.59994 20.5958 4.10459 18.464 3.22157C16.3322 2.33855 13.9864 2.10751 11.7233 2.55767C9.46018 3.00783 7.38138 4.11897 5.74977 5.75058" stroke="#808080" stroke-width="2"/>
<path d="M17.5 13.9998L18.2809 13.3751L18.7806 13.9998L18.2809 14.6245L17.5 13.9998ZM3.5 14.9998C2.94771 14.9998 2.5 14.5521 2.5 13.9998C2.5 13.4476 2.94771 12.9998 3.5 12.9998V14.9998ZM13.6142 7.54181L18.2809 13.3751L16.7191 14.6245L12.0525 8.7912L13.6142 7.54181ZM18.2809 14.6245L13.6142 20.4579L12.0525 19.2085L16.7191 13.3751L18.2809 14.6245ZM17.5 14.9998H3.5V12.9998H17.5V14.9998Z" fill="#808080"/>
</svg>
