<svg width="42" height="33" viewBox="0 0 42 33" fill="none" xmlns="http://www.w3.org/2000/svg">
<path d="M37.7147 14.2872C35.7695 16.4829 33.5677 16.314 33.5677 16.314C29.0573 16.2084 29.0359 11.9437 29.0359 11.9437C29.0359 6.4122 35.6198 7.53116 36.9452 7.82674C37.0093 7.84785 37.052 7.84785 37.0734 7.84785C37.1376 7.86896 34.4441 0.711827 34.4441 0.711827L34.1876 0.690714C34.1449 0.690714 34.1021 0.690716 34.0593 0.669603C24.8033 -0.0693337 22.7512 6.64443 22.7512 6.64443L22.6443 6.96112L21.6183 4.23761L14.6068 6.77111L18.2408 16.5251L7.6167 9.26238L0.605225 11.7748L3.6193 19.9664L4.43161 22.141L8.27936 32.6128L15.3122 30.1004L11.6782 20.2198L22.3237 27.588L29.3138 25.0545L28.3518 22.4366L28.7366 22.6477C33.0119 24.8434 37.2017 23.0488 39.6172 21.5499C40.4295 21.0431 41.0281 20.5787 41.3701 20.3042C41.5625 20.1353 41.6052 20.0931 41.6052 20.0931L39.9165 15.6384L38.8477 12.6826L38.7622 12.8093C38.4415 13.4004 38.0781 13.886 37.7147 14.2872Z" fill="#383838"/>
</svg>
