<svg width="70" height="50" viewBox="0 0 70 50" fill="none" xmlns="http://www.w3.org/2000/svg">
<path d="M25 4.5L45.4 4.5C46.2284 4.5 46.9 5.17157 46.9 6L46.9 44C46.9 44.8284 46.2284 45.5 45.4 45.5L25 45.5C24.1716 45.5 23.5 44.8284 23.5 44L23.5 6C23.5 5.17157 24.1716 4.5 25 4.5Z" stroke="#383838" stroke-width="3" stroke-linejoin="round"/>
<circle cx="35.3108" cy="39.6666" r="1.76" fill="#383838"/>
<path d="M31.4258 6.17871L39.5913 6.17871" stroke="#383838" stroke-width="4" stroke-miterlimit="10" stroke-linecap="square"/>
<path d="M37.6294 30.1722C37.2143 30.1722 36.9376 30.0294 36.6608 29.8867C36.5225 29.7439 36.3841 29.4584 36.3841 29.03C36.3841 28.8873 36.3841 28.6017 36.5225 28.3162C36.5225 28.0306 36.6608 27.7451 36.6608 27.4595L37.491 24.4613C37.6294 24.1758 37.6294 23.8902 37.6294 23.6047C37.6294 23.3191 37.6294 23.0336 37.6294 22.8908C37.6294 22.3197 37.3526 21.7486 36.9376 21.3203C36.5225 20.892 35.8306 20.7492 35.0004 20.7492C34.5853 20.7492 34.0319 20.892 33.6168 21.0348C33.0633 21.1775 32.5099 21.3203 31.9564 21.6058L31.6797 22.6053C31.8181 22.6053 32.0948 22.4625 32.2331 22.4625C32.5099 22.4625 32.6482 22.3197 32.925 22.3197C33.3401 22.3197 33.6168 22.4625 33.8935 22.6053C34.0319 22.748 34.1703 23.0336 34.1703 23.4619C34.1703 23.6047 34.1703 23.8902 34.0319 24.1758C34.0319 24.4613 33.8935 24.7469 33.8935 25.0324L33.2017 27.8879C33.0633 28.1734 33.0633 28.4589 33.0633 28.7445C33.0633 29.03 33.0633 29.1728 33.0633 29.4584C33.0633 30.0294 33.3401 30.6005 33.7552 31.0289C34.1703 31.4572 34.8621 31.5999 35.6923 31.5999C36.2457 31.5999 36.6608 31.5999 37.0759 31.4572C37.491 31.3144 38.0445 31.1716 38.7363 30.8861L39.013 29.8867C38.8747 29.8867 38.7363 30.0294 38.4596 30.0294C38.0445 30.1722 37.7677 30.1722 37.6294 30.1722ZM37.0759 15.4666C36.5225 15.4666 36.1074 15.6094 35.6923 16.0377C35.2772 16.466 35.1388 16.8943 35.1388 17.3227C35.1388 17.8938 35.2772 18.3221 35.6923 18.6076C36.1074 19.0359 36.5225 19.1787 37.0759 19.1787C37.6294 19.1787 38.0445 19.0359 38.4596 18.6076C38.8747 18.1793 39.013 17.751 39.013 17.3227C39.013 16.7516 38.8747 16.3232 38.4596 16.0377C38.0445 15.6094 37.6294 15.4666 37.0759 15.4666Z" fill="#383838"/>
</svg>
