<svg width="28" height="25" viewBox="0 0 28 25" fill="none" xmlns="http://www.w3.org/2000/svg">
<path d="M19.785 7.05291V2.89153H8.215V7.05291H6.265V1H21.735V7.05291H19.785ZM2.95 8.94444C2.95 8.94444 3.093 8.94444 3.3725 8.94444C3.652 8.94444 4.0095 8.94444 4.445 8.94444H23.555C23.9905 8.94444 24.348 8.94444 24.6275 8.94444C24.907 8.94444 25.05 8.94444 25.05 8.94444H21.735H6.265H2.95ZM22.4175 11.9394C22.6775 11.9394 22.905 11.8448 23.1 11.6556C23.295 11.4665 23.3925 11.2458 23.3925 10.9936C23.3925 10.7414 23.295 10.5207 23.1 10.3316C22.905 10.1424 22.6775 10.0478 22.4175 10.0478C22.1575 10.0478 21.93 10.1424 21.735 10.3316C21.54 10.5207 21.4425 10.7414 21.4425 10.9936C21.4425 11.2458 21.54 11.4665 21.735 11.6556C21.93 11.8448 22.1575 11.9394 22.4175 11.9394ZM19.785 21.8069V15.754H8.215V21.8069H19.785ZM21.735 23.6984H6.265V18.1499H1V10.3946C1 9.44885 1.3315 8.65441 1.9945 8.01759C2.6575 7.38078 3.47 7.05291 4.445 7.05291H23.555C24.53 7.05291 25.349 7.37447 26.0055 8.01129C26.6685 8.65441 27 9.44885 27 10.3946V18.1499H21.735V23.6984ZM25.05 16.2584V10.3946C25.05 9.97218 24.907 9.6254 24.6275 9.35428C24.348 9.08316 23.9905 8.94444 23.555 8.94444H4.445C4.0095 8.94444 3.652 9.08316 3.3725 9.35428C3.093 9.6254 2.95 9.97218 2.95 10.3946V16.2584H6.265V13.8624H21.735V16.2584H25.05V16.2584Z" fill="#808080"/>
</svg>
