<svg width="70" height="50" viewBox="0 0 70 50" fill="none" xmlns="http://www.w3.org/2000/svg">
<path d="M11.5 9C11.5 8.17157 12.1716 7.5 13 7.5H57C57.8284 7.5 58.5 8.17157 58.5 9V41C58.5 41.8284 57.8284 42.5 57 42.5H13C12.1716 42.5 11.5 41.8284 11.5 41V9Z" stroke="#383838" stroke-width="3" stroke-linejoin="round"/>
<path d="M31 9.33521H39" stroke="#383838" stroke-width="3" stroke-miterlimit="10" stroke-linecap="square"/>
<path d="M30.25 23.5C29.35 23.5 28.585 23.185 27.95 22.55C27.315 21.915 27 21.15 27 20.25C27 19.35 27.315 18.585 27.95 17.95C28.585 17.315 29.35 17 30.25 17C31.15 17 31.915 17.315 32.55 17.95C33.185 18.585 33.5 19.35 33.5 20.25C33.5 21.15 33.185 21.915 32.55 22.55C31.915 23.185 31.15 23.5 30.25 23.5ZM30.25 22C30.735 22 31.145 21.83 31.49 21.49C31.83 21.145 32 20.735 32 20.25C32 19.765 31.83 19.355 31.49 19.01C31.145 18.67 30.735 18.5 30.25 18.5C29.765 18.5 29.355 18.67 29.01 19.01C28.67 19.355 28.5 19.765 28.5 20.25C28.5 20.735 28.67 21.145 29.01 21.49C29.355 21.83 29.765 22 30.25 22ZM39.75 33C38.85 33 38.085 32.685 37.45 32.05C36.815 31.415 36.5 30.65 36.5 29.75C36.5 28.85 36.815 28.085 37.45 27.45C38.085 26.815 38.85 26.5 39.75 26.5C40.65 26.5 41.415 26.815 42.05 27.45C42.685 28.085 43 28.85 43 29.75C43 30.65 42.685 31.415 42.05 32.05C41.415 32.685 40.65 33 39.75 33ZM39.75 31.5C40.235 31.5 40.645 31.33 40.985 30.985C41.33 30.645 41.5 30.235 41.5 29.75C41.5 29.265 41.33 28.855 40.985 28.51C40.645 28.17 40.235 28 39.75 28C39.265 28 38.855 28.17 38.51 28.51C38.17 28.855 38 29.265 38 29.75C38 30.235 38.17 30.645 38.51 30.985C38.855 31.33 39.265 31.5 39.75 31.5ZM28.05 33L27 31.95L41.95 17L43 18.05L28.05 33Z" fill="#383838" stroke="#383838"/>
<path d="M7 43H63" stroke="#383838" stroke-width="3" stroke-miterlimit="10" stroke-linecap="square"/>
</svg>
